<?xml version="1.0" encoding="UTF-8"?>
<svg xmlns="http://www.w3.org/2000/svg" id="Ebene_2" data-name="Ebene 2" viewBox="0 0 102.138 103.548">
  <defs>
    <style>
      .cls-1 {
        fill: #d5c7a3;
      }
    </style>
  </defs>
  <g id="Ebene_2-2" data-name="Ebene 2">
    <g>
      <g>
        <g>
          <path class="cls-1" d="M34.949,46.313c-.276,0-.5-.224-.5-.5v-9.089c0-1.638,1.332-2.97,2.969-2.97,1.196,0,2.27,.712,2.736,1.814,.107,.254-.011,.547-.266,.655-.254,.105-.547-.012-.655-.267-.309-.73-1.021-1.203-1.815-1.203-1.086,0-1.969,.884-1.969,1.97v9.089c0,.276-.224,.5-.5,.5Z"></path>
          <path class="cls-1" d="M37.961,37.547c-.187,0-.366-.104-.452-.284-.119-.249-.014-.548,.235-.667l3.736-1.789c.247-.119,.547-.015,.667,.235,.119,.249,.014,.548-.235,.667l-3.736,1.789c-.069,.033-.143,.049-.215,.049Z"></path>
          <path class="cls-1" d="M50.373,67.818c-10.344,0-19.148-8.062-20.043-18.355-.024-.274,.18-.518,.455-.541,.27-.02,.518,.18,.542,.455,.851,9.78,9.217,17.441,19.047,17.441,9.916,0,18.099-7.434,19.034-17.291,.026-.274,.271-.469,.545-.451,.275,.026,.477,.271,.45,.545-.984,10.374-9.594,18.197-20.029,18.197Z"></path>
          <g>
            <path class="cls-1" d="M65.255,56.474h-10.699v-10.303c0-.276,.224-.5,.5-.5s.5,.224,.5,.5v9.303h8.699v-9.303c0-.276,.224-.5,.5-.5s.5,.224,.5,.5v10.303Z"></path>
            <path class="cls-1" d="M64.755,53.472h-9.699c-.276,0-.5-.224-.5-.5s.224-.5,.5-.5h9.699c.276,0,.5,.224,.5,.5s-.224,.5-.5,.5Z"></path>
          </g>
          <path class="cls-1" d="M69.244,50.083h-4.489c-.276,0-.5-.224-.5-.5s.224-.5,.5-.5h4.489c.763,0,1.384-.621,1.384-1.385s-.621-1.385-1.384-1.385H31.5c-.763,0-1.384,.621-1.384,1.385s.621,1.385,1.384,1.385h23.223c.276,0,.5,.224,.5,.5s-.224,.5-.5,.5H31.5c-1.315,0-2.384-1.069-2.384-2.385s1.069-2.385,2.384-2.385h37.744c1.315,0,2.384,1.069,2.384,2.385s-1.069,2.385-2.384,2.385Z"></path>
        </g>
        <g>
          <path class="cls-1" d="M74.371,2.129l.908,.376-5.619,6.173-.833-.346,.403-8.332,.894,.37-.276,5.385c-.031,.619-.096,1.206-.194,1.763,.341-.487,.717-.957,1.13-1.41l3.589-3.979Z"></path>
          <path class="cls-1" d="M78.841,13.771l.525-2.631-2.65-1.698-2.162,1.581-.778-.499,6.869-4.962,.646,.414-1.656,8.305-.796-.51Zm.729-3.476l.545-2.541c.066-.323,.168-.707,.304-1.151-.252,.247-.551,.504-.896,.771l-2.091,1.55,2.139,1.371Z"></path>
          <path class="cls-1" d="M86.447,17.542c-.467,.51-1.016,.737-1.647,.684s-1.263-.37-1.896-.951c-.687-.629-1.133-1.201-1.341-1.717l.595-.649c.146,.318,.332,.635,.558,.949s.478,.598,.752,.849c.449,.412,.865,.636,1.248,.674,.383,.038,.714-.095,.992-.398,.184-.201,.294-.402,.331-.604,.037-.202,.01-.443-.079-.725-.09-.281-.264-.667-.524-1.158-.362-.686-.538-1.267-.526-1.742,.011-.476,.211-.926,.601-1.352,.409-.446,.902-.647,1.479-.604,.577,.044,1.142,.318,1.693,.823,.575,.527,1.008,1.118,1.297,1.772l-.747,.394c-.294-.639-.667-1.164-1.118-1.578-.356-.327-.705-.505-1.046-.536-.341-.03-.636,.09-.885,.362-.184,.2-.298,.398-.341,.594-.043,.196-.026,.428,.051,.695,.078,.269,.238,.633,.481,1.094,.409,.772,.613,1.388,.614,1.845,0,.458-.18,.885-.542,1.28Z"></path>
          <path class="cls-1" d="M94.987,19.82c-.528-.683-1.172-1.046-1.932-1.09-.76-.044-1.536,.239-2.326,.851-.813,.628-1.294,1.305-1.443,2.028s.049,1.438,.594,2.144c.335,.434,.795,.868,1.38,1.303l-.633,.489c-.495-.306-.986-.774-1.474-1.406-.708-.916-.976-1.836-.804-2.763,.171-.927,.768-1.785,1.791-2.575,.64-.494,1.294-.809,1.96-.941,.667-.133,1.305-.073,1.915,.177,.61,.251,1.151,.682,1.624,1.294,.503,.651,.825,1.313,.963,1.984l-.857,.174c-.143-.642-.396-1.197-.759-1.668Z"></path>
          <path class="cls-1" d="M94.525,32.933l1.771-2.015-1.444-2.797-2.663,.287-.424-.82,8.43-.86,.353,.683-5.588,6.362-.434-.84Zm2.37-2.645l1.743-1.928c.219-.247,.499-.528,.839-.845-.341,.088-.729,.161-1.162,.219l-2.585,.296,1.166,2.258Z"></path>
        </g>
      </g>
      <path class="cls-1" d="M51.069,103.548C22.909,103.548,0,80.639,0,52.479S22.909,1.41,51.069,1.41c3.466,0,6.928,.349,10.292,1.037,.271,.056,.445,.32,.39,.591-.055,.271-.321,.444-.59,.39-3.298-.676-6.693-1.018-10.091-1.018C23.461,2.41,1,24.871,1,52.479s22.461,50.068,50.069,50.068,50.069-22.461,50.069-50.068c0-4.381-.566-8.728-1.682-12.918-.071-.267,.088-.541,.354-.612,.269-.072,.541,.088,.612,.354,1.139,4.274,1.716,8.708,1.716,13.176,0,28.159-22.909,51.068-51.069,51.068Z"></path>
    </g>
  </g>
</svg>
