<?xml version="1.0" encoding="UTF-8"?>
<svg xmlns="http://www.w3.org/2000/svg" id="Ebene_2" data-name="Ebene 2" viewBox="0 0 106.542 106.461">
  <defs>
    <style>
      .cls-1 {
        fill: #d5c7a3;
      }
    </style>
  </defs>
  <g id="Ebene_2-2" data-name="Ebene 2">
    <g>
      <g>
        <path class="cls-1" d="M34.949,49.228c-.276,0-.5-.224-.5-.5v-9.09c0-1.637,1.332-2.969,2.969-2.969,1.196,0,2.27,.712,2.736,1.813,.107,.254-.011,.547-.266,.655-.254,.105-.547-.012-.655-.267-.309-.73-1.021-1.202-1.815-1.202-1.086,0-1.969,.883-1.969,1.969v9.09c0,.276-.224,.5-.5,.5Z"></path>
        <path class="cls-1" d="M37.961,40.46c-.187,0-.366-.104-.452-.284-.119-.249-.014-.548,.235-.667l3.736-1.789c.247-.119,.547-.015,.667,.235,.119,.249,.014,.548-.235,.667l-3.736,1.789c-.069,.033-.143,.049-.215,.049Z"></path>
        <path class="cls-1" d="M50.373,70.732c-10.344,0-19.148-8.062-20.043-18.354-.024-.274,.18-.518,.455-.541,.27-.022,.518,.179,.542,.455,.851,9.779,9.217,17.44,19.047,17.44,9.916,0,18.099-7.434,19.034-17.291,.026-.274,.271-.463,.545-.451,.275,.026,.477,.271,.45,.545-.984,10.374-9.594,18.197-20.029,18.197Z"></path>
        <g>
          <path class="cls-1" d="M65.255,59.388h-10.699v-10.303c0-.276,.224-.5,.5-.5s.5,.224,.5,.5v9.303h8.699v-9.303c0-.276,.224-.5,.5-.5s.5,.224,.5,.5v10.303Z"></path>
          <path class="cls-1" d="M64.755,56.385h-9.699c-.276,0-.5-.224-.5-.5s.224-.5,.5-.5h9.699c.276,0,.5,.224,.5,.5s-.224,.5-.5,.5Z"></path>
        </g>
        <path class="cls-1" d="M69.244,52.997h-4.489c-.276,0-.5-.224-.5-.5s.224-.5,.5-.5h4.489c.763,0,1.384-.621,1.384-1.385s-.621-1.384-1.384-1.384H31.5c-.763,0-1.384,.621-1.384,1.384s.621,1.385,1.384,1.385h23.223c.276,0,.5,.224,.5,.5s-.224,.5-.5,.5H31.5c-1.315,0-2.384-1.069-2.384-2.385s1.069-2.384,2.384-2.384h37.744c1.315,0,2.384,1.069,2.384,2.384s-1.069,2.385-2.384,2.385Z"></path>
      </g>
      <g>
        <path class="cls-1" d="M46.936,.069L49.153,.004c1.042-.031,1.8,.103,2.274,.4,.475,.298,.722,.783,.741,1.456,.014,.465-.105,.853-.355,1.163-.25,.31-.624,.517-1.118,.621v.054c1.199,.169,1.813,.778,1.844,1.826,.021,.702-.2,1.257-.663,1.664-.463,.408-1.12,.624-1.972,.648l-2.738,.081-.23-7.85Zm1.011,3.334l1.503-.044c.644-.019,1.104-.134,1.381-.344,.277-.211,.408-.556,.394-1.035-.013-.44-.18-.754-.5-.939-.321-.186-.825-.269-1.512-.248l-1.342,.039,.075,2.571Zm.022,.773l.086,2.937,1.637-.048c.634-.019,1.107-.155,1.42-.41,.313-.254,.462-.643,.447-1.165-.014-.487-.188-.84-.522-1.06-.334-.22-.836-.319-1.505-.3l-1.562,.046Z"></path>
        <path class="cls-1" d="M60.823,8.755l-.589-2.616-3.111-.476-1.333,2.323-.913-.14L59.136,.522l.759,.116,1.862,8.261-.934-.144Zm-.747-3.472l-.535-2.543c-.07-.322-.133-.714-.19-1.176-.129,.328-.298,.685-.505,1.069l-1.281,2.266,2.511,.384Z"></path>
        <path class="cls-1" d="M71.627,7.965c-.438,1.22-1.104,2.034-1.997,2.441-.894,.408-1.962,.389-3.207-.058l-2.047-.734,2.651-7.391,2.265,.812c1.149,.412,1.928,1.051,2.337,1.916,.408,.866,.408,1.87-.002,3.013Zm-.921-.297c.346-.964,.365-1.776,.056-2.438-.308-.662-.939-1.165-1.893-1.507l-1.249-.448-2.119,5.905,1.047,.375c1.024,.368,1.885,.393,2.582,.073,.696-.318,1.222-.972,1.576-1.96Z"></path>
        <path class="cls-1" d="M77.095,15.496l-3.78-2.207,3.961-6.781,3.78,2.208-.409,.7-2.992-1.747-1.276,2.185,2.811,1.642-.406,.695-2.811-1.642-1.458,2.495,2.992,1.748-.412,.704Z"></path>
        <path class="cls-1" d="M84.955,21.888l-.671-.604,2.334-4.971c.1-.224,.233-.498,.401-.824s.274-.517,.319-.572c-.375,.299-.813,.601-1.317,.903l-4.635,2.862-.671-.603,3.692-7.238,.719,.646-2.317,4.438c-.327,.621-.645,1.163-.955,1.626,.51-.423,1.044-.804,1.604-1.144l4.237-2.612,.719,.646-2.12,4.572c-.243,.527-.554,1.091-.932,1.689,.39-.333,.9-.708,1.529-1.125l4.152-2.775,.719,.646-6.809,4.439Z"></path>
        <path class="cls-1" d="M91.081,29.531l1.447-2.258-1.849-2.548-2.589,.686-.542-.748,8.205-2.119,.451,.621-4.566,7.131-.556-.765Zm1.945-2.972l1.433-2.168c.18-.276,.414-.597,.703-.961-.324,.138-.696,.269-1.116,.392l-2.512,.682,1.492,2.056Z"></path>
        <path class="cls-1" d="M95.546,38.206l-.438-.945,4.176-6.664-.018-.039c-.678,.377-1.309,.701-1.894,.973l-4.05,1.876-.354-.766,7.125-3.301,.433,.937-4.156,6.643,.018,.039c.085-.047,.36-.192,.826-.436,.465-.243,.802-.409,1.009-.497l4.089-1.895,.359,.775-7.125,3.3Z"></path>
        <path class="cls-1" d="M98.116,47.672l-.234-1.016,5.461-5.66-.01-.042c-.741,.229-1.425,.416-2.054,.561l-4.35,1.001-.189-.822,7.652-1.76,.231,1.005-5.437,5.644,.01,.041c.093-.028,.392-.113,.897-.256,.505-.142,.869-.234,1.09-.278l4.392-1.01,.191,.832-7.652,1.761Z"></path>
        <path class="cls-1" d="M98.695,55.833l-.177-4.373,7.846-.317,.177,4.374-.811,.033-.14-3.462-2.528,.102,.131,3.253-.805,.032-.131-3.252-2.887,.116,.14,3.462-.816,.032Z"></path>
      </g>
      <path class="cls-1" d="M51.069,106.461C22.909,106.461,0,83.552,0,55.393,0,31.414,17,10.404,40.421,5.436c.271-.051,.536,.116,.593,.386s-.115,.535-.386,.593C17.666,11.285,1,31.882,1,55.393c0,27.607,22.461,50.068,50.069,50.068,24.563,0,45.33-17.554,49.379-41.739,.045-.272,.305-.461,.576-.41,.272,.046,.456,.304,.411,.576-4.13,24.668-25.312,42.573-50.366,42.573Z"></path>
    </g>
  </g>
</svg>
