<?xml version="1.0" encoding="UTF-8"?>
<svg xmlns="http://www.w3.org/2000/svg" id="Ebene_2" data-name="Ebene 2" viewBox="0 0 104.602 105.922">
  <defs>
    <style>
      .cls-1 {
        fill: #d5c7a3;
      }
    </style>
  </defs>
  <g id="Ebene_2-2" data-name="Ebene 2">
    <g>
      <g>
        <path class="cls-1" d="M34.949,48.688c-.276,0-.5-.224-.5-.5v-9.09c0-1.638,1.332-2.97,2.969-2.97,1.196,0,2.27,.712,2.736,1.814,.107,.254-.011,.547-.266,.655-.254,.105-.547-.011-.655-.267-.309-.73-1.021-1.203-1.815-1.203-1.086,0-1.969,.884-1.969,1.97v9.09c0,.276-.224,.5-.5,.5Z"></path>
        <path class="cls-1" d="M37.961,39.921c-.187,0-.366-.104-.452-.284-.119-.249-.014-.548,.235-.667l3.736-1.789c.247-.119,.547-.015,.667,.235,.119,.249,.014,.548-.235,.667l-3.736,1.789c-.069,.033-.143,.049-.215,.049Z"></path>
        <path class="cls-1" d="M50.373,70.192c-10.344,0-19.148-8.062-20.043-18.354-.024-.274,.18-.518,.455-.541,.27-.023,.518,.18,.542,.455,.851,9.779,9.217,17.44,19.047,17.44,9.916,0,18.099-7.434,19.034-17.291,.026-.274,.271-.464,.545-.451,.275,.026,.477,.271,.45,.545-.984,10.374-9.594,18.197-20.029,18.197Z"></path>
        <g>
          <path class="cls-1" d="M65.255,58.849h-10.699v-10.303c0-.276,.224-.5,.5-.5s.5,.224,.5,.5v9.303h8.699v-9.303c0-.276,.224-.5,.5-.5s.5,.224,.5,.5v10.303Z"></path>
          <path class="cls-1" d="M64.755,55.846h-9.699c-.276,0-.5-.224-.5-.5s.224-.5,.5-.5h9.699c.276,0,.5,.224,.5,.5s-.224,.5-.5,.5Z"></path>
        </g>
        <path class="cls-1" d="M69.244,52.457h-4.489c-.276,0-.5-.224-.5-.5s.224-.5,.5-.5h4.489c.763,0,1.384-.621,1.384-1.385s-.621-1.384-1.384-1.384H31.5c-.763,0-1.384,.621-1.384,1.384s.621,1.385,1.384,1.385h23.223c.276,0,.5,.224,.5,.5s-.224,.5-.5,.5H31.5c-1.315,0-2.384-1.069-2.384-2.385s1.069-2.384,2.384-2.384h37.744c1.315,0,2.384,1.069,2.384,2.384s-1.069,2.385-2.384,2.385Z"></path>
      </g>
      <g>
        <path class="cls-1" d="M59.415,0l2.176,.43c1.022,.201,1.732,.5,2.128,.896,.396,.396,.53,.924,.399,1.585-.09,.456-.292,.808-.605,1.055-.313,.247-.723,.365-1.229,.357l-.01,.053c1.13,.431,1.594,1.161,1.391,2.19-.136,.688-.475,1.18-1.016,1.475-.542,.295-1.231,.359-2.067,.194l-2.688-.53,1.52-7.704Zm.095,4.234l-.568,2.883,1.607,.316c.622,.123,1.114,.095,1.476-.084,.362-.178,.593-.523,.695-1.037,.094-.478,.002-.86-.274-1.148s-.744-.498-1.401-.627l-1.534-.303Zm.15-.759l1.476,.291c.632,.125,1.106,.115,1.423-.028s.521-.451,.614-.922c.085-.432-.008-.774-.279-1.026-.271-.253-.745-.445-1.419-.579l-1.317-.26-.498,2.524Z"></path>
        <path class="cls-1" d="M71.001,11.572l.015-2.682-2.924-1.164-1.822,1.964-.858-.342,5.799-6.179,.714,.284-.045,8.468-.878-.35Zm.055-3.551l.051-2.598c.004-.33,.031-.727,.08-1.188-.2,.29-.445,.6-.733,.928l-1.758,1.92,2.361,.938Z"></path>
        <path class="cls-1" d="M76.379,14.566l-.777-.479,3.695-5.994-2.117-1.305,.425-.69,5.011,3.089-.425,.69-2.117-1.305-3.695,5.994Z"></path>
        <path class="cls-1" d="M85.186,21.571l-.677-.613,2.479-2.74-3.066-2.774-2.479,2.74-.677-.612,5.268-5.823,.677,.612-2.242,2.478,3.067,2.774,2.242-2.477,.677,.612-5.268,5.823Z"></path>
        <path class="cls-1" d="M89.174,26.369l-.554-.727,5.596-4.273-1.509-1.977,.645-.492,3.573,4.679-.645,.492-1.51-1.977-5.596,4.274Z"></path>
        <path class="cls-1" d="M101.88,32.486l-4.531,2.299c-.798,.405-1.548,.482-2.249,.232-.702-.251-1.266-.797-1.694-1.641-.428-.843-.529-1.611-.303-2.307,.226-.694,.741-1.246,1.546-1.654l4.512-2.289,.413,.814-4.569,2.318c-.584,.296-.952,.684-1.103,1.162-.151,.478-.069,1.026,.246,1.646,.299,.591,.688,.967,1.164,1.126,.477,.16,1.009,.091,1.596-.207l4.56-2.314,.413,.814Z"></path>
        <path class="cls-1" d="M103.736,37.376l.603,2.135c.283,1.003,.338,1.771,.165,2.303-.173,.533-.583,.891-1.231,1.074-.448,.126-.853,.105-1.215-.062-.362-.167-.653-.479-.875-.933l-.052,.014c.127,1.203-.313,1.947-1.323,2.232-.675,.19-1.267,.111-1.775-.238-.508-.35-.878-.935-1.109-1.755l-.744-2.636,7.557-2.134Zm-3.732,2.003l-2.827,.798,.445,1.576c.172,.61,.42,1.036,.743,1.278,.323,.241,.736,.291,1.239,.149,.469-.133,.769-.388,.9-.765,.131-.378,.106-.889-.076-1.533l-.425-1.504Zm.745-.211l.409,1.447c.175,.621,.398,1.039,.67,1.257,.271,.217,.638,.261,1.1,.13,.424-.119,.687-.357,.789-.714,.102-.356,.06-.865-.127-1.526l-.365-1.292-2.476,.698Z"></path>
      </g>
      <path class="cls-1" d="M51.069,105.922C22.909,105.922,0,83.013,0,54.854S22.909,3.784,51.069,3.784c.276,0,.5,.224,.5,.5s-.224,.5-.5,.5C23.461,4.784,1,27.245,1,54.854s22.461,50.068,50.069,50.068,50.069-22.461,50.069-50.068c0-1.109-.037-2.228-.108-3.323-.018-.276,.191-.514,.466-.532,.273-.033,.513,.19,.532,.466,.073,1.118,.11,2.258,.11,3.39,0,28.159-22.909,51.068-51.069,51.068Z"></path>
    </g>
  </g>
</svg>
