<?xml version="1.0" encoding="UTF-8"?>
<svg xmlns="http://www.w3.org/2000/svg" id="Ebene_2" data-name="Ebene 2" viewBox="0 0 102.138 103.772">
  <defs>
    <style>
      .cls-1 {
        fill: #d5c7a3;
      }
    </style>
  </defs>
  <g id="Ebene_2-2" data-name="Ebene 2">
    <g>
      <g>
        <path class="cls-1" d="M68.438,0l2.073,.788c.974,.37,1.623,.783,1.947,1.24s.367,1,.128,1.629c-.165,.435-.423,.748-.773,.938s-.773,.239-1.271,.146l-.02,.051c1.042,.614,1.377,1.412,1.004,2.393-.249,.656-.666,1.084-1.249,1.283-.584,.2-1.273,.148-2.07-.154l-2.561-.974,2.791-7.34Zm-.616,4.19l-1.045,2.746,1.531,.582c.593,.225,1.082,.28,1.469,.165,.387-.116,.674-.418,.859-.906,.173-.455,.146-.849-.078-1.179-.225-.331-.65-.615-1.275-.854l-1.461-.555Zm.274-.724l1.406,.534c.602,.229,1.071,.3,1.407,.211,.337-.088,.59-.356,.761-.806,.156-.411,.122-.765-.104-1.059-.225-.295-.658-.564-1.302-.809l-1.255-.477-.914,2.404Z"></path>
        <path class="cls-1" d="M81.527,11.008c-.669,1.064-1.465,1.731-2.386,2.002-.922,.271-1.861,.104-2.818-.499-.979-.616-1.546-1.391-1.701-2.324-.155-.933,.11-1.945,.798-3.036,.681-1.082,1.476-1.753,2.384-2.012,.908-.26,1.853-.081,2.835,.537,.954,.601,1.509,1.373,1.664,2.316,.154,.944-.104,1.949-.775,3.016Zm-5.295-3.333c-.567,.899-.805,1.703-.715,2.409,.091,.707,.501,1.29,1.231,1.75,.736,.463,1.438,.581,2.106,.354,.667-.228,1.285-.792,1.854-1.695,.563-.894,.803-1.689,.72-2.388-.084-.697-.492-1.277-1.226-1.739-.736-.463-1.442-.583-2.118-.359-.677,.225-1.294,.78-1.853,1.668Z"></path>
        <path class="cls-1" d="M89.608,18.343c-.877,.9-1.795,1.386-2.752,1.458-.958,.071-1.842-.288-2.652-1.077-.828-.808-1.22-1.684-1.176-2.629,.043-.945,.516-1.879,1.415-2.803,.893-.915,1.81-1.404,2.752-1.469,.942-.063,1.829,.31,2.66,1.119,.808,.788,1.188,1.659,1.142,2.614-.046,.955-.509,1.884-1.389,2.786Zm-4.48-4.368c-.742,.762-1.144,1.497-1.202,2.207-.06,.71,.22,1.366,.838,1.969,.623,.607,1.284,.87,1.984,.787,.7-.082,1.423-.505,2.168-1.27,.737-.756,1.139-1.484,1.203-2.184,.064-.7-.214-1.353-.834-1.957-.623-.607-1.288-.872-1.996-.795s-1.429,.491-2.161,1.242Z"></path>
        <path class="cls-1" d="M92.171,28.504l-.61-.885,1.51-4.519-1.068-.262-2.533,1.748-.519-.752,6.464-4.459,.519,.751-3.205,2.212,5.227,.72,.613,.889-4.601-.663-1.796,5.22Z"></path>
        <path class="cls-1" d="M97.2,34.118c-.627,.291-1.221,.29-1.782-.003-.562-.292-1.023-.828-1.385-1.608-.392-.845-.583-1.545-.576-2.101l.799-.37c.013,.35,.062,.714,.15,1.091,.088,.378,.21,.735,.367,1.073,.256,.553,.553,.92,.892,1.102,.339,.183,.695,.188,1.069,.015,.247-.114,.426-.258,.538-.43,.111-.173,.18-.405,.206-.699,.025-.294,.013-.718-.038-1.271-.07-.772-.008-1.376,.185-1.811,.193-.436,.552-.773,1.075-1.016,.549-.255,1.081-.251,1.598,.012,.516,.262,.931,.732,1.246,1.411,.328,.709,.499,1.42,.515,2.135l-.841,.076c-.025-.702-.167-1.331-.424-1.887-.203-.438-.456-.738-.759-.897-.304-.16-.622-.162-.957-.007-.247,.114-.428,.253-.543,.417-.116,.164-.189,.385-.221,.662-.031,.276-.023,.675,.023,1.193,.079,.871,.031,1.518-.144,1.939-.175,.423-.507,.747-.994,.973Z"></path>
      </g>
      <path class="cls-1" d="M51.069,103.772C22.909,103.772,0,80.863,0,52.704S22.909,1.635,51.069,1.635c2.509,0,5.03,.184,7.494,.546,.272,.041,.462,.295,.422,.568-.041,.273-.289,.453-.568,.422-2.415-.355-4.887-.536-7.348-.536C23.461,2.635,1,25.096,1,52.704s22.461,50.068,50.069,50.068,50.068-22.461,50.068-50.068c0-3.582-.38-7.156-1.128-10.622-.059-.27,.112-.536,.383-.594,.267-.059,.536,.112,.594,.383,.764,3.535,1.151,7.18,1.151,10.833,0,28.159-22.909,51.068-51.068,51.068Z"></path>
      <g>
        <path class="cls-1" d="M42.209,71.595h-11.604V33.812h11.604v37.782Zm-10.604-1h9.604V34.812h-9.604v35.782Z"></path>
        <path class="cls-1" d="M55.741,71.595h-8.15V38.297h8.15v33.298Zm-7.15-1h6.15v-31.298h-6.15v31.298Z"></path>
        <rect class="cls-1" x="31.104" y="38.297" width="10.604" height="1"></rect>
        <rect class="cls-1" x="31.104" y="66.111" width="10.604" height="1"></rect>
        <rect class="cls-1" x="35.906" y="41.915" width="1" height="21.577"></rect>
        <rect class="cls-1" x="51.166" y="53.23" width="1" height="10.262"></rect>
        <rect class="cls-1" x="48.091" y="45.771" width="7.15" height="1"></rect>
        <rect class="cls-1" x="48.091" y="48.76" width="7.15" height="1"></rect>
        <rect class="cls-1" x="41.325" y="63.121" width="7.149" height="1"></rect>
        <rect class="cls-1" x="41.325" y="66.111" width="7.149" height="1"></rect>
        <rect class="cls-1" x="48.091" y="67.605" width="7.15" height="1"></rect>
        <path class="cls-1" d="M63.758,71.705l-8.397-32.222,7.887-2.057,8.397,32.223-7.887,2.056Zm-7.177-31.507l7.892,30.286,5.951-1.55-7.892-30.287-5.951,1.551Z"></path>
        <rect class="cls-1" x="63.246" y="66.801" width="7.15" height=".999" transform="translate(-14.812 19.026) rotate(-14.607)"></rect>
        <path class="cls-1" d="M48.591,71.595h-7.382v-29.788h7.382v29.788Zm-6.382-1h5.382v-27.788h-5.382v27.788Z"></path>
      </g>
    </g>
  </g>
</svg>
