<?xml version="1.0" encoding="UTF-8"?>
<svg xmlns="http://www.w3.org/2000/svg" id="Ebene_2" data-name="Ebene 2" viewBox="0 0 102.138 102.138">
  <defs>
    <style>
      .cls-1 {
        fill: #d5c7a3;
      }
    </style>
  </defs>
  <g id="Ebene_2-2" data-name="Ebene 2">
    <g>
      <g>
        <path class="cls-1" d="M70.471,7.587l3.471-7.045,.819,.404-3.105,6.302,3.108,1.531-.366,.742-3.927-1.935Z"></path>
        <path class="cls-1" d="M77.123,11.26l4.369-6.524,.759,.508-4.369,6.524-.759-.508Z"></path>
        <path class="cls-1" d="M86.385,8.282l1.646,1.487c.772,.699,1.228,1.32,1.364,1.863,.136,.543-.021,1.064-.473,1.564-.312,.345-.666,.543-1.062,.593-.396,.051-.809-.058-1.237-.325l-.036,.04c.747,.951,.77,1.815,.065,2.594-.471,.521-1.014,.768-1.63,.741-.616-.025-1.24-.324-1.872-.896l-2.032-1.838,5.267-5.824Zm-2.097,3.68l-1.97,2.18,1.215,1.099c.47,.425,.906,.654,1.309,.688,.402,.032,.778-.145,1.129-.532,.327-.361,.445-.737,.356-1.127-.09-.39-.383-.809-.879-1.258l-1.16-1.049Zm.52-.573l1.115,1.009c.478,.432,.89,.668,1.235,.708,.346,.039,.679-.119,1.001-.475,.295-.327,.392-.668,.289-1.024-.104-.356-.409-.765-.92-1.226l-.996-.9-1.725,1.908Z"></path>
        <path class="cls-1" d="M90.531,18.99l-2.588,1.99-.557-.724,6.225-4.787,1.312,1.707c.587,.764,.875,1.44,.863,2.03-.012,.589-.312,1.11-.899,1.562-.823,.634-1.7,.645-2.631,.032l-1.498,3.842-.658-.855,1.43-3.498-.999-1.299Zm.622-.479l.763,.992c.394,.511,.783,.808,1.169,.89,.387,.083,.782-.032,1.188-.345,.411-.316,.615-.666,.609-1.048-.005-.383-.213-.842-.626-1.379l-.724-.94-2.38,1.83Z"></path>
        <path class="cls-1" d="M92.319,27.357l6.841-3.854,.448,.795-6.841,3.855-.448-.796Z"></path>
      </g>
      <path class="cls-1" d="M51.069,102.138C22.909,102.138,0,79.229,0,51.069S22.909,0,51.069,0c2.509,0,5.03,.184,7.494,.546,.272,.041,.462,.295,.422,.568-.041,.273-.289,.455-.568,.422-2.415-.355-4.887-.536-7.348-.536C23.461,1,1,23.461,1,51.069s22.461,50.068,50.069,50.068,50.068-22.461,50.068-50.068c0-3.583-.38-7.157-1.128-10.622-.059-.27,.112-.536,.383-.594,.271-.06,.537,.113,.594,.383,.764,3.534,1.151,7.179,1.151,10.833,0,28.159-22.909,51.068-51.068,51.068Z"></path>
      <g>
        <path class="cls-1" d="M42.209,69.96h-11.604V32.178h11.604v37.782Zm-10.604-1h9.604V33.178h-9.604v35.782Z"></path>
        <path class="cls-1" d="M55.741,69.96h-8.15V36.662h8.15v33.298Zm-7.15-1h6.15v-31.298h-6.15v31.298Z"></path>
        <rect class="cls-1" x="31.104" y="36.662" width="10.604" height="1"></rect>
        <rect class="cls-1" x="31.104" y="64.476" width="10.604" height="1"></rect>
        <rect class="cls-1" x="35.906" y="40.28" width="1" height="21.577"></rect>
        <rect class="cls-1" x="51.166" y="51.596" width="1" height="10.262"></rect>
        <rect class="cls-1" x="48.091" y="44.136" width="7.15" height="1"></rect>
        <rect class="cls-1" x="48.091" y="47.125" width="7.15" height="1"></rect>
        <rect class="cls-1" x="41.325" y="61.486" width="7.149" height="1"></rect>
        <rect class="cls-1" x="41.325" y="64.476" width="7.149" height="1"></rect>
        <rect class="cls-1" x="48.091" y="65.971" width="7.15" height="1"></rect>
        <path class="cls-1" d="M63.758,70.07l-8.397-32.223,7.887-2.056,8.397,32.223-7.887,2.056Zm-7.177-31.508l7.892,30.287,5.951-1.55-7.892-30.287-5.951,1.55Z"></path>
        <rect class="cls-1" x="63.246" y="65.166" width="7.15" height=".999" transform="translate(-14.4 18.973) rotate(-14.607)"></rect>
        <path class="cls-1" d="M48.591,69.96h-7.382v-29.788h7.382v29.788Zm-6.382-1h5.382v-27.788h-5.382v27.788Z"></path>
      </g>
    </g>
  </g>
</svg>
