<?xml version="1.0" encoding="UTF-8"?>
<svg xmlns="http://www.w3.org/2000/svg" id="Ebene_2" data-name="Ebene 2" viewBox="0 0 103.256 105.017">
  <defs>
    <style>
      .cls-1 {
        fill: #d5c7a3;
      }
    </style>
  </defs>
  <g id="Ebene_2-2" data-name="Ebene 2">
    <g>
      <g>
        <path class="cls-1" d="M64.058,0l2.132,.614c1.001,.288,1.682,.646,2.043,1.075,.361,.428,.448,.966,.262,1.612-.129,.447-.36,.78-.693,.999s-.751,.303-1.254,.251l-.016,.052c1.09,.526,1.489,1.293,1.198,2.302-.194,.674-.574,1.135-1.139,1.382-.565,.247-1.257,.253-2.076,.017l-2.632-.759,2.175-7.545Zm-.269,4.227l-.813,2.823,1.574,.453c.609,.176,1.102,.19,1.478,.043,.376-.146,.636-.472,.781-.974,.135-.468,.076-.857-.175-1.168-.252-.312-.699-.56-1.343-.745l-1.502-.433Zm.215-.743l1.445,.416c.619,.179,1.093,.21,1.42,.094,.328-.115,.559-.404,.691-.865,.122-.423,.059-.772-.19-1.047-.248-.275-.703-.508-1.363-.698l-1.291-.372-.712,2.473Z"></path>
        <path class="cls-1" d="M79.032,5.994l-2.322,4.52c-.408,.796-.971,1.299-1.686,1.507-.715,.209-1.493,.097-2.334-.335s-1.373-.995-1.598-1.69-.131-1.444,.281-2.247l2.312-4.5,.812,.417-2.341,4.558c-.3,.583-.37,1.112-.212,1.588,.157,.477,.546,.873,1.164,1.19,.589,.303,1.123,.379,1.604,.229,.479-.15,.869-.519,1.171-1.104l2.336-4.548,.812,.417Zm-3.372-3.356c.085-.166,.188-.264,.311-.293,.122-.03,.241-.015,.359,.046,.121,.062,.207,.152,.257,.271s.032,.26-.053,.426c-.082,.159-.187,.255-.314,.288s-.252,.019-.373-.044c-.118-.061-.199-.151-.243-.272s-.025-.262,.057-.421Zm1.82,.935c.085-.165,.188-.263,.311-.293s.241-.015,.359,.046,.202,.15,.252,.269,.032,.26-.053,.426c-.082,.159-.187,.255-.314,.288s-.25,.02-.368-.041-.199-.151-.243-.273c-.044-.121-.025-.262,.057-.421Z"></path>
        <path class="cls-1" d="M85.586,11.478c-.679-.532-1.393-.727-2.14-.583-.748,.144-1.431,.608-2.047,1.395-.635,.809-.936,1.582-.902,2.32s.4,1.383,1.102,1.933c.432,.338,.983,.646,1.657,.925l-.494,.63c-.554-.176-1.146-.51-1.773-1.003-.91-.714-1.396-1.541-1.456-2.48-.062-.94,.307-1.919,1.104-2.936,.5-.637,1.057-1.102,1.67-1.394,.614-.292,1.247-.392,1.9-.298,.652,.093,1.283,.379,1.892,.856,.647,.508,1.121,1.07,1.42,1.688l-.788,.378c-.295-.587-.677-1.063-1.145-1.431Z"></path>
        <path class="cls-1" d="M88.971,25.045l-.598-.69,2.791-2.421-2.71-3.124-2.792,2.421-.598-.689,5.932-5.146,.598,.689-2.523,2.189,2.71,3.124,2.523-2.189,.599,.689-5.932,5.146Z"></path>
        <path class="cls-1" d="M93.336,31.968l-2.217-3.775,6.772-3.976,2.216,3.775-.699,.41-1.754-2.987-2.182,1.28,1.647,2.808-.694,.407-1.648-2.807-2.491,1.463,1.754,2.988-.704,.413Z"></path>
        <path class="cls-1" d="M98.197,34.806l-3.058,1.146-.32-.855,7.354-2.753,.756,2.017c.338,.902,.414,1.633,.23,2.193-.185,.561-.623,.971-1.317,1.23-.973,.364-1.814,.117-2.525-.74l-2.558,3.234-.378-1.012,2.392-2.926-.575-1.534Zm.734-.274l.439,1.172c.226,.604,.512,1.001,.856,1.193,.346,.191,.758,.198,1.237,.019,.486-.183,.783-.457,.891-.824s.042-.867-.195-1.501l-.416-1.111-2.812,1.053Z"></path>
      </g>
      <path class="cls-1" d="M51.069,105.017C22.909,105.017,0,82.107,0,53.948S22.909,2.879,51.069,2.879c2.509,0,5.03,.184,7.494,.546,.272,.041,.462,.295,.422,.568-.041,.273-.289,.456-.568,.422-2.415-.355-4.887-.536-7.348-.536C23.461,3.879,1,26.34,1,53.948s22.461,50.068,50.069,50.068,50.068-22.461,50.068-50.068c0-3.582-.38-7.156-1.128-10.622-.059-.27,.112-.536,.383-.594,.267-.06,.536,.113,.594,.383,.764,3.535,1.151,7.18,1.151,10.833,0,28.159-22.909,51.068-51.068,51.068Z"></path>
      <g>
        <path class="cls-1" d="M42.209,72.839h-11.604V35.057h11.604v37.782Zm-10.604-1h9.604V36.057h-9.604v35.782Z"></path>
        <path class="cls-1" d="M55.741,72.839h-8.15V39.541h8.15v33.298Zm-7.15-1h6.15v-31.298h-6.15v31.298Z"></path>
        <rect class="cls-1" x="31.104" y="39.541" width="10.604" height="1"></rect>
        <rect class="cls-1" x="31.104" y="67.355" width="10.604" height="1"></rect>
        <rect class="cls-1" x="35.906" y="43.159" width="1" height="21.577"></rect>
        <rect class="cls-1" x="51.166" y="54.475" width="1" height="10.262"></rect>
        <rect class="cls-1" x="48.091" y="47.015" width="7.15" height="1"></rect>
        <rect class="cls-1" x="48.091" y="50.004" width="7.15" height="1"></rect>
        <rect class="cls-1" x="41.325" y="64.365" width="7.149" height="1"></rect>
        <rect class="cls-1" x="41.325" y="67.355" width="7.149" height="1"></rect>
        <rect class="cls-1" x="48.091" y="68.85" width="7.15" height="1"></rect>
        <path class="cls-1" d="M63.758,72.949l-8.397-32.222,7.887-2.057,8.397,32.223-7.887,2.056Zm-7.177-31.507l7.892,30.286,5.951-1.55-7.892-30.287-5.951,1.551Z"></path>
        <rect class="cls-1" x="63.246" y="68.045" width="7.15" height=".999" transform="translate(-15.126 19.066) rotate(-14.607)"></rect>
        <path class="cls-1" d="M48.591,72.839h-7.382v-29.788h7.382v29.788Zm-6.382-1h5.382v-27.788h-5.382v27.788Z"></path>
      </g>
    </g>
  </g>
</svg>
