<?xml version="1.0" encoding="UTF-8"?>
<svg xmlns="http://www.w3.org/2000/svg" id="Ebene_2" data-name="Ebene 2" viewBox="0 0 106.56 106.454">
  <defs>
    <style>
      .cls-1 {
        fill: #d5c7a3;
      }
    </style>
  </defs>
  <g id="Ebene_2-2" data-name="Ebene 2">
    <g>
      <g>
        <path class="cls-1" d="M46.467,8.003l-.459-7.839,.911-.054,.412,7.014,3.458-.203,.048,.826-4.37,.256Z"></path>
        <path class="cls-1" d="M60.672,.711l-.601,5.046c-.106,.889-.458,1.556-1.055,2-.598,.444-1.366,.611-2.304,.499-.939-.111-1.634-.454-2.087-1.027-.453-.573-.625-1.308-.519-2.204l.599-5.024,.907,.108-.606,5.088c-.078,.651,.041,1.172,.354,1.562s.816,.627,1.506,.709c.658,.079,1.185-.036,1.583-.344s.635-.789,.713-1.443l.605-5.077,.907,.107Z"></path>
        <path class="cls-1" d="M68.726,3.571c-.822-.264-1.558-.198-2.209,.196s-1.129,1.067-1.435,2.019c-.314,.979-.327,1.809-.04,2.489,.288,.681,.856,1.157,1.705,1.43,.522,.167,1.147,.265,1.875,.291l-.245,.763c-.581,.027-1.251-.08-2.011-.324-1.102-.354-1.844-.96-2.228-1.82-.384-.86-.378-1.905,.016-3.137,.248-.771,.608-1.399,1.082-1.887s1.033-.8,1.678-.939c.645-.139,1.335-.091,2.071,.146,.784,.252,1.424,.615,1.918,1.09l-.608,.628c-.481-.447-1.004-.762-1.57-.943Z"></path>
        <path class="cls-1" d="M75.308,14.376l-3.874-2.038,3.656-6.949,3.874,2.038-.378,.718-3.065-1.613-1.178,2.239,2.88,1.516-.375,.713-2.88-1.516-1.346,2.557,3.066,1.613-.38,.723Z"></path>
        <path class="cls-1" d="M80.917,14.208l-1.991,2.589-.724-.557,4.787-6.225,1.707,1.312c.764,.588,1.215,1.168,1.355,1.74,.14,.573-.016,1.153-.468,1.741-.633,.823-1.478,1.059-2.535,.706l-.461,4.097-.856-.658,.484-3.747-1.299-.999Zm.478-.621l.992,.763c.511,.393,.963,.579,1.358,.56s.748-.232,1.06-.638c.316-.412,.423-.802,.32-1.17s-.423-.759-.959-1.172l-.941-.724-1.831,2.381Z"></path>
        <path class="cls-1" d="M88.764,26.205l-.689-.781,2.098-7.579-.028-.032c-.542,.555-1.054,1.046-1.537,1.473l-3.345,2.955-.558-.632,5.885-5.199,.683,.772-2.085,7.554,.028,.032c.068-.069,.29-.287,.667-.653,.376-.365,.652-.621,.826-.765l3.377-2.983,.565,.64-5.885,5.199Z"></path>
        <path class="cls-1" d="M93.421,33.556l1.66-2.105-1.591-2.716-2.644,.429-.467-.797,8.372-1.309,.389,.662-5.241,6.652-.478-.816Zm2.226-2.767l1.637-2.019c.206-.258,.47-.554,.793-.888-.336,.105-.719,.199-1.149,.28l-2.566,.434,1.285,2.192Z"></path>
        <path class="cls-1" d="M98.364,36.657l-3.068,1.118-.312-.857,7.378-2.688,.737,2.023c.33,.904,.4,1.637,.211,2.195s-.632,.965-1.328,1.219c-.976,.355-1.815,.101-2.519-.763l-2.585,3.211-.37-1.014,2.417-2.905-.561-1.539Zm.737-.269l.429,1.176c.22,.605,.502,1.006,.846,1.201,.343,.195,.756,.205,1.237,.029,.488-.178,.787-.449,.897-.815s.05-.867-.182-1.503l-.407-1.115-2.821,1.027Z"></path>
        <path class="cls-1" d="M97.538,45.15l7.686-1.607,.187,.894-7.687,1.607-.187-.894Z"></path>
        <path class="cls-1" d="M102.687,56.55c-1.255,.059-2.257-.213-3.006-.813-.749-.602-1.149-1.468-1.202-2.598-.054-1.155,.257-2.063,.935-2.725,.677-.66,1.659-1.021,2.947-1.081,1.277-.06,2.282,.209,3.014,.806,.732,.597,1.125,1.475,1.18,2.633,.052,1.127-.264,2.023-.95,2.69-.686,.666-1.658,1.029-2.917,1.088Zm-.292-6.251c-1.062,.05-1.857,.313-2.385,.792-.528,.479-.772,1.148-.731,2.011,.041,.869,.345,1.513,.913,1.931,.568,.418,1.385,.602,2.451,.552,1.055-.049,1.845-.308,2.37-.774,.525-.468,.767-1.134,.727-2-.041-.869-.346-1.517-.916-1.943s-1.379-.616-2.427-.567Z"></path>
      </g>
      <path class="cls-1" d="M51.069,106.454C22.909,106.454,0,83.545,0,55.386,0,32.812,14.483,13.192,36.04,6.564c.263-.085,.543,.066,.625,.331,.081,.264-.067,.543-.331,.624C15.199,14.019,1,33.255,1,55.386c0,27.607,22.461,50.068,50.069,50.068,22.686,0,42.588-15.295,48.398-37.194,.071-.268,.346-.427,.612-.355,.267,.071,.426,.345,.355,.611-5.927,22.338-26.226,37.938-49.365,37.938Z"></path>
      <g>
        <path class="cls-1" d="M68.273,72.584H30.49V34.802h37.783v37.782Zm-36.783-1h35.783V35.802H31.49v35.782Z"></path>
        <path class="cls-1" d="M45.205,65.113c-3.634,0-6.59-2.956-6.59-6.59,0-3.229,2.309-5.962,5.49-6.497l1.799-.303-1.393,1.178c-1.135,.959-1.786,2.358-1.786,3.838,0,2.771,2.254,5.025,5.025,5.025,.875,0,1.741-.232,2.503-.673l1.592-.918-.908,1.599c-1.17,2.061-3.367,3.341-5.733,3.341Zm-2.567-11.56c-1.82,.934-3.023,2.822-3.023,4.97,0,3.082,2.508,5.59,5.59,5.59,1.419,0,2.766-.543,3.785-1.479-.407,.086-.822,.13-1.24,.13-3.322,0-6.025-2.703-6.025-6.025,0-1.141,.322-2.24,.913-3.186Z"></path>
        <path class="cls-1" d="M58.182,58.381l-.726-1.71c-.137-.322-.389-.575-.711-.712l-1.71-.727,1.71-.724c.322-.137,.574-.39,.711-.712l.726-1.71,.726,1.71c.137,.322,.39,.575,.711,.712l1.71,.724-1.709,.727c-.322,.137-.575,.39-.712,.712l-.725,1.71Zm-.68-3.147c.272,.178,.503,.408,.68,.681,.177-.272,.408-.503,.68-.681-.271-.177-.502-.407-.68-.68-.177,.272-.408,.503-.68,.68Z"></path>
        <path class="cls-1" d="M52.247,52.86l-.868-2.043c-.237-.56-.676-.997-1.234-1.234l-2.044-.867,2.044-.867c.558-.237,.997-.675,1.234-1.234l.867-2.043,.868,2.043c.237,.56,.676,.997,1.234,1.234l2.044,.867-2.044,.867c-.558,.237-.997,.675-1.234,1.234l-.867,2.043Zm-1.592-4.145c.702,.33,1.261,.889,1.592,1.593,.331-.704,.89-1.263,1.592-1.593-.702-.33-1.261-.889-1.592-1.593-.331,.704-.89,1.263-1.592,1.593Z"></path>
        <path class="cls-1" d="M59.614,47.406l-.663-1.564c-.093-.22-.265-.392-.484-.483l-1.565-.666,1.565-.663c.219-.093,.391-.265,.484-.484l.663-1.564,.665,1.564c.093,.22,.265,.392,.485,.485l1.564,.662-1.564,.665c-.22,.093-.392,.265-.485,.485l-.664,1.563Zm-.321-2.713c.12,.094,.228,.202,.322,.322,.094-.12,.202-.229,.322-.322-.12-.094-.228-.202-.322-.322-.094,.12-.202,.229-.322,.322Z"></path>
      </g>
    </g>
  </g>
</svg>
