<?xml version="1.0" encoding="UTF-8"?>
<svg xmlns="http://www.w3.org/2000/svg" id="Ebene_2" data-name="Ebene 2" viewBox="0 0 106.52 106.462">
  <defs>
    <style>
      .cls-1 {
        fill: #d5c7a3;
      }
    </style>
  </defs>
  <g id="Ebene_2-2" data-name="Ebene 2">
    <g>
      <g>
        <path class="cls-1" d="M47.326,3.849c.176,1.284-.039,2.314-.643,3.089-.604,.774-1.561,1.251-2.87,1.431l-2.155,.294-1.064-7.78,2.384-.325c1.21-.166,2.196,.041,2.958,.62s1.226,1.47,1.39,2.672Zm-.953,.163c-.139-1.015-.498-1.744-1.077-2.189-.58-.444-1.372-.599-2.375-.461l-1.314,.18,.85,6.216,1.102-.151c1.079-.147,1.853-.523,2.323-1.128,.471-.604,.635-1.427,.493-2.466Z"></path>
        <path class="cls-1" d="M56.184,8.029l-.843-2.546-3.143-.168-1.099,2.442-.922-.05,3.521-7.708,.767,.041,2.663,8.039-.944-.051Zm-1.083-3.382l-.782-2.479c-.102-.313-.203-.697-.304-1.151-.097,.339-.23,.71-.398,1.113l-1.053,2.381,2.537,.136Z"></path>
        <path class="cls-1" d="M64.761,2.394c-.84-.2-1.569-.078-2.188,.364-.619,.443-1.044,1.15-1.276,2.122-.239,1-.189,1.828,.149,2.485,.338,.656,.941,1.089,1.809,1.296,.533,.127,1.163,.176,1.892,.147l-.186,.778c-.577,.072-1.254,.016-2.03-.17-1.125-.269-1.912-.816-2.36-1.646-.449-.828-.522-1.871-.223-3.129,.188-.787,.5-1.441,.936-1.963,.436-.522,.969-.877,1.601-1.064,.632-.188,1.324-.192,2.077-.013,.801,.191,1.466,.505,1.996,.94l-.558,.673c-.514-.41-1.06-.684-1.637-.822Z"></path>
        <path class="cls-1" d="M73.49,13.322l-.831-.379,1.532-3.362-3.763-1.716-1.533,3.362-.831-.378,3.257-7.146,.831,.379-1.386,3.039,3.763,1.716,1.386-3.04,.831,.379-3.257,7.146Z"></path>
        <path class="cls-1" d="M77.515,15.838l-.75-.521,4.486-6.445,3.593,2.5-.463,.666-2.843-1.979-1.642,2.359,2.671,1.859-.463,.665-2.671-1.859-1.917,2.756Z"></path>
        <path class="cls-1" d="M85.845,22.848l-3.148-3.042,5.457-5.646,3.148,3.042-.563,.583-2.491-2.407-1.758,1.819,2.341,2.262-.56,.579-2.341-2.262-2.008,2.078,2.491,2.407-.567,.587Z"></path>
        <path class="cls-1" d="M91.659,30.388l-.603-.85,2.889-7.314-.025-.035c-.598,.494-1.159,.928-1.685,1.302l-3.639,2.583-.488-.688,6.403-4.546,.597,.841-2.874,7.291,.025,.034c.075-.062,.318-.255,.731-.578,.414-.324,.714-.549,.902-.674l3.674-2.608,.494,.696-6.403,4.546Z"></path>
        <path class="cls-1" d="M97.229,36.878c-.627,.289-1.222,.287-1.783-.006s-1.022-.83-1.382-1.61c-.39-.846-.581-1.546-.573-2.102l.8-.369c.011,.35,.061,.714,.148,1.091,.087,.378,.209,.735,.365,1.074,.255,.553,.552,.92,.891,1.104,.338,.183,.695,.188,1.069,.016,.247-.114,.427-.258,.539-.43s.181-.404,.207-.698c.026-.294,.014-.718-.036-1.271-.069-.772-.006-1.376,.188-1.811s.553-.772,1.076-1.015c.549-.253,1.082-.248,1.598,.015s.93,.734,1.244,1.414c.327,.708,.498,1.42,.512,2.136l-.841,.074c-.024-.703-.165-1.332-.421-1.888-.203-.439-.456-.738-.758-.898-.303-.16-.622-.163-.956-.009-.248,.114-.429,.253-.544,.417-.116,.163-.189,.384-.221,.661-.032,.276-.025,.675,.021,1.193,.079,.871,.03,1.518-.146,1.939-.176,.423-.508,.746-.996,.972Z"></path>
        <path class="cls-1" d="M97.072,43.23l-.241-.881,6.791-1.86-.657-2.398,.782-.214,1.555,5.678-.782,.214-.657-2.398-6.792,1.86Z"></path>
        <path class="cls-1" d="M98.633,52.874l-.446-4.354,7.812-.8,.446,4.354-.807,.083-.353-3.446-2.517,.257,.331,3.238-.801,.082-.332-3.238-2.875,.295,.353,3.446-.812,.083Z"></path>
        <path class="cls-1" d="M101.881,57.477l-3.258-.221,.062-.911,7.834,.531-.146,2.148c-.065,.961-.297,1.658-.696,2.093-.399,.434-.969,.626-1.708,.576-1.036-.07-1.701-.643-1.994-1.718l-3.665,1.889,.073-1.077,3.387-1.676,.111-1.635Zm.782,.053l-.084,1.249c-.043,.643,.052,1.123,.287,1.44,.235,.317,.608,.493,1.119,.528,.518,.035,.902-.093,1.151-.383,.25-.29,.397-.772,.443-1.447l.08-1.185-2.996-.203Z"></path>
      </g>
      <path class="cls-1" d="M51.069,106.462C22.909,106.462,0,83.553,0,55.394,0,32.82,14.483,13.2,36.04,6.572c.263-.086,.543,.066,.625,.331,.081,.264-.067,.543-.331,.624C15.199,14.026,1,33.263,1,55.394c0,27.607,22.461,50.068,50.069,50.068,22.686,0,42.588-15.295,48.398-37.193,.071-.268,.346-.426,.612-.355,.267,.071,.426,.345,.355,.611-5.927,22.337-26.227,37.938-49.365,37.938Z"></path>
      <g>
        <path class="cls-1" d="M68.273,72.592H30.49V34.81h37.783v37.782Zm-36.783-1h35.783V35.81H31.49v35.782Z"></path>
        <path class="cls-1" d="M45.205,65.121c-3.634,0-6.59-2.956-6.59-6.59,0-3.229,2.309-5.962,5.49-6.497l1.799-.303-1.393,1.178c-1.135,.959-1.786,2.358-1.786,3.838,0,2.771,2.254,5.025,5.025,5.025,.875,0,1.741-.232,2.503-.673l1.592-.918-.908,1.599c-1.17,2.061-3.367,3.341-5.733,3.341Zm-2.567-11.56c-1.82,.934-3.023,2.822-3.023,4.97,0,3.082,2.508,5.59,5.59,5.59,1.419,0,2.766-.543,3.785-1.479-.407,.086-.822,.13-1.24,.13-3.322,0-6.025-2.703-6.025-6.025,0-1.141,.322-2.24,.913-3.186Z"></path>
        <path class="cls-1" d="M58.182,58.389l-.726-1.71c-.137-.322-.389-.575-.711-.712l-1.71-.724,1.709-.727c.323-.137,.575-.39,.712-.712l.726-1.71,.726,1.71c.137,.322,.39,.575,.711,.712l1.71,.727-1.71,.724c-.321,.137-.574,.39-.711,.712l-.725,1.71Zm-.68-3.146c.272,.177,.503,.407,.68,.68,.177-.272,.408-.503,.68-.68-.271-.178-.502-.408-.68-.681-.177,.272-.408,.503-.68,.681Z"></path>
        <path class="cls-1" d="M52.247,52.87l-.868-2.045c-.237-.559-.675-.997-1.234-1.234l-2.043-.867,2.044-.867c.559-.237,.997-.675,1.234-1.234l.868-2.043,.868,2.043c.237,.56,.675,.997,1.234,1.234l2.044,.867-2.044,.867c-.559,.237-.997,.676-1.234,1.234l-.867,2.045Zm-1.592-4.146c.703,.331,1.262,.89,1.592,1.593,.331-.703,.89-1.262,1.592-1.593-.703-.33-1.262-.889-1.592-1.592-.331,.703-.89,1.262-1.592,1.592Z"></path>
        <path class="cls-1" d="M59.614,47.418l-.663-1.569c-.093-.218-.265-.39-.485-.483l-1.564-.665,1.565-.663c.219-.093,.391-.265,.484-.484l.663-1.567,.665,1.568c.093,.219,.265,.391,.485,.484l1.564,.662-1.564,.665c-.22,.094-.392,.266-.485,.485l-.664,1.567Zm-.322-2.717c.12,.095,.229,.203,.323,.323,.094-.12,.202-.229,.322-.323-.12-.094-.229-.202-.323-.322-.094,.12-.202,.229-.322,.322Z"></path>
      </g>
    </g>
  </g>
</svg>
