<?xml version="1.0" encoding="UTF-8"?>
<svg xmlns="http://www.w3.org/2000/svg" id="Ebene_2" data-name="Ebene 2" viewBox="0 0 106.709 106.613">
  <defs>
    <style>
      .cls-1 {
        fill: #d5c7a3;
      }
    </style>
  </defs>
  <g id="Ebene_2-2" data-name="Ebene 2">
    <g>
      <g>
        <path class="cls-1" d="M39.465,6.02l.653,3.2-.895,.183-1.571-7.694,2.11-.431c.944-.192,1.678-.154,2.203,.115s.861,.767,1.009,1.493c.208,1.018-.167,1.811-1.126,2.379l2.795,3.03-1.058,.217-2.517-2.819-1.605,.327Zm-.157-.768l1.226-.251c.631-.129,1.069-.349,1.312-.66,.244-.311,.314-.717,.211-1.219-.104-.509-.329-.845-.674-1.008s-.851-.178-1.514-.042l-1.163,.237,.601,2.942Z"></path>
        <path class="cls-1" d="M54.298,3.981c.021,1.257-.281,2.25-.905,2.979-.624,.73-1.501,1.104-2.633,1.123-1.156,.019-2.054-.32-2.694-1.018-.64-.697-.97-1.689-.991-2.979-.021-1.278,.278-2.274,.897-2.988C48.59,.385,49.479,.019,50.64,0c1.128-.019,2.014,.325,2.66,1.031s.978,1.688,.999,2.949Zm-6.256,.102c.017,1.063,.257,1.866,.718,2.408,.462,.542,1.125,.807,1.987,.792,.87-.014,1.522-.298,1.958-.854,.435-.555,.644-1.365,.626-2.433-.017-1.056-.251-1.854-.702-2.393s-1.11-.801-1.976-.787c-.87,.014-1.527,.3-1.971,.856-.444,.557-.657,1.36-.64,2.409Z"></path>
        <path class="cls-1" d="M65.065,5.83c-.254,1.231-.765,2.135-1.533,2.711-.768,.577-1.706,.751-2.814,.522-1.133-.234-1.935-.761-2.408-1.58s-.579-1.86-.318-3.123c.258-1.252,.767-2.159,1.526-2.721s1.708-.726,2.844-.491c1.104,.228,1.895,.757,2.371,1.586,.476,.829,.586,1.861,.332,3.096Zm-6.128-1.264c-.215,1.041-.156,1.877,.176,2.507s.921,1.031,1.767,1.206c.853,.176,1.551,.04,2.097-.406,.545-.447,.926-1.193,1.142-2.238,.213-1.034,.159-1.863-.164-2.488-.323-.624-.908-1.023-1.757-1.198-.852-.176-1.556-.04-2.11,.406-.555,.447-.938,1.184-1.15,2.212Z"></path>
        <path class="cls-1" d="M68.316,11.189l-.845-.347,2.979-7.266,4.05,1.66-.308,.751-3.206-1.314-1.09,2.659,3.012,1.234-.308,.75-3.012-1.234-1.273,3.106Z"></path>
        <path class="cls-1" d="M83.583,20.705l-.695-.575,2.135-5.061c.09-.227,.213-.507,.367-.839,.155-.332,.253-.527,.296-.585-.362,.313-.789,.633-1.28,.956l-4.517,3.044-.695-.575,3.4-7.38,.745,.616-2.139,4.526c-.302,.634-.598,1.188-.889,1.663,.493-.443,1.012-.846,1.558-1.207l4.13-2.779,.745,.617-1.937,4.652c-.222,.537-.51,1.112-.864,1.726,.377-.349,.871-.743,1.483-1.185l4.039-2.938,.745,.616-6.627,4.707Z"></path>
        <path class="cls-1" d="M87.024,24.394l5.981-5.088,.592,.695-5.981,5.088-.591-.695Z"></path>
        <path class="cls-1" d="M93.278,33.374l-.543-.889,3.382-7.101-.022-.036c-.63,.452-1.22,.847-1.77,1.183l-3.808,2.33-.44-.72,6.698-4.098,.538,.88-3.365,7.076,.022,.037c.079-.057,.335-.232,.77-.527,.435-.296,.75-.499,.946-.61l3.844-2.352,.446,.729-6.699,4.098Z"></path>
        <path class="cls-1" d="M100.758,41.289c-1.221,.438-2.272,.44-3.155,.009-.883-.431-1.547-1.269-1.993-2.512l-.734-2.048,7.392-2.649,.812,2.266c.412,1.149,.413,2.157,.004,3.022s-1.185,1.503-2.327,1.912Zm-.356-.899c.964-.346,1.604-.848,1.919-1.507,.315-.658,.302-1.465-.04-2.419l-.447-1.249-5.906,2.116,.375,1.047c.367,1.024,.895,1.705,1.584,2.04,.688,.335,1.527,.325,2.515-.028Z"></path>
        <path class="cls-1" d="M102.587,52.08c-1.245,.171-2.267-.011-3.066-.543s-1.275-1.358-1.429-2.479c-.157-1.146,.073-2.078,.688-2.797,.616-.718,1.562-1.165,2.839-1.34,1.267-.173,2.291,.005,3.073,.534,.783,.529,1.252,1.368,1.41,2.518,.153,1.118-.083,2.039-.706,2.764-.624,.726-1.56,1.173-2.809,1.344Zm-.848-6.199c-1.054,.144-1.822,.478-2.305,1.001-.483,.523-.667,1.212-.549,2.067,.118,.862,.478,1.476,1.081,1.842,.603,.365,1.433,.476,2.49,.331,1.046-.143,1.811-.471,2.292-.982,.481-.513,.663-1.197,.546-2.056-.118-.862-.48-1.48-1.086-1.855-.606-.374-1.429-.49-2.468-.348Z"></path>
        <path class="cls-1" d="M98.195,62.659l.081-.898,5.378-1.111c.239-.054,.539-.111,.9-.173s.578-.091,.649-.088c-.464-.12-.968-.291-1.513-.512l-5.069-1.995,.08-.898,8.007-1.384-.086,.963-4.941,.806c-.693,.11-1.318,.181-1.874,.21,.644,.154,1.27,.354,1.877,.599l4.631,1.826-.086,.963-4.93,1.043c-.568,.122-1.205,.211-1.911,.267,.5,.113,1.106,.296,1.817,.55l4.71,1.661-.085,.963-7.635-2.79Z"></path>
      </g>
      <path class="cls-1" d="M51.069,106.613C22.909,106.613,0,83.704,0,55.545,0,35.165,12.085,16.762,30.79,8.661c.255-.111,.548,.007,.658,.261,.109,.253-.007,.547-.26,.657C12.849,17.521,1,35.564,1,55.545c0,27.607,22.461,50.068,50.069,50.068,21.089,0,40.037-13.332,47.147-33.175,.093-.26,.381-.393,.639-.302,.26,.093,.396,.38,.302,.64-7.253,20.239-26.579,33.837-48.089,33.837Z"></path>
      <g>
        <path class="cls-1" d="M68.273,72.743H30.49V34.961h37.783v37.782Zm-36.783-1h35.783V35.961H31.49v35.782Z"></path>
        <path class="cls-1" d="M45.205,65.272c-3.634,0-6.59-2.956-6.59-6.59,0-3.229,2.309-5.962,5.49-6.497l1.799-.303-1.393,1.178c-1.135,.959-1.786,2.358-1.786,3.838,0,2.771,2.254,5.025,5.025,5.025,.875,0,1.741-.232,2.503-.673l1.592-.918-.908,1.599c-1.17,2.061-3.367,3.341-5.733,3.341Zm-2.567-11.56c-1.82,.934-3.023,2.822-3.023,4.97,0,3.082,2.508,5.59,5.59,5.59,1.419,0,2.766-.543,3.785-1.479-.407,.086-.822,.13-1.24,.13-3.322,0-6.025-2.703-6.025-6.025,0-1.141,.322-2.24,.913-3.186Z"></path>
        <path class="cls-1" d="M58.182,58.54l-.726-1.71c-.137-.322-.389-.575-.711-.712l-1.71-.724,1.709-.727c.323-.137,.575-.39,.712-.712l.726-1.71,.726,1.71c.137,.322,.39,.575,.711,.712l1.71,.727-1.71,.724c-.321,.137-.574,.39-.711,.712l-.725,1.71Zm-.68-3.146c.272,.177,.503,.407,.68,.68,.177-.272,.408-.503,.68-.68-.271-.178-.502-.408-.68-.681-.177,.272-.408,.503-.68,.681Z"></path>
        <path class="cls-1" d="M52.247,53.021l-.868-2.045c-.237-.559-.675-.997-1.234-1.234l-2.043-.867,2.044-.867c.559-.237,.997-.675,1.234-1.234l.868-2.043,.868,2.043c.237,.56,.675,.997,1.234,1.234l2.044,.867-2.044,.867c-.559,.237-.997,.676-1.234,1.234l-.867,2.045Zm-1.592-4.146c.703,.331,1.262,.89,1.592,1.593,.331-.703,.89-1.262,1.592-1.593-.703-.33-1.262-.889-1.592-1.592-.331,.703-.89,1.262-1.592,1.592Z"></path>
        <path class="cls-1" d="M59.614,47.569l-.663-1.569c-.093-.218-.265-.39-.485-.483l-1.564-.665,1.565-.663c.219-.093,.391-.265,.484-.484l.663-1.564,.665,1.564c.093,.22,.265,.392,.485,.485l1.564,.662-1.564,.665c-.22,.094-.392,.266-.485,.485l-.664,1.567Zm-.322-2.717c.12,.095,.229,.203,.323,.323,.094-.12,.202-.229,.322-.323-.12-.094-.229-.202-.323-.322-.094,.12-.202,.229-.322,.322Z"></path>
      </g>
    </g>
  </g>
</svg>
