<?xml version="1.0" encoding="UTF-8"?>
<svg xmlns="http://www.w3.org/2000/svg" id="Ebene_2" data-name="Ebene 2" viewBox="0 0 106.525 106.509">
  <defs>
    <style>
      .cls-1 {
        fill: #d5c7a3;
      }
    </style>
  </defs>
  <g id="Ebene_3" data-name="Ebene 3">
    <g>
      <g>
        <path class="cls-1" d="M22.116,17.691l-.719,.562-4.343-5.543-1.958,1.534-.5-.639,4.634-3.63,.5,.638-1.958,1.534,4.343,5.543Z"></path>
        <path class="cls-1" d="M30.407,12.512l-3.842,2.099-3.764-6.892,3.842-2.099,.389,.712-3.04,1.661,1.212,2.22,2.856-1.56,.386,.707-2.856,1.56,1.385,2.536,3.041-1.66,.391,.716Z"></path>
        <path class="cls-1" d="M33.378,7.747l1.05,3.093-.864,.293-2.526-7.435,2.039-.693c.912-.31,1.646-.363,2.2-.162s.951,.652,1.189,1.354c.334,.982,.062,1.816-.818,2.501l3.154,2.655-1.022,.348-2.851-2.48-1.551,.526Zm-.252-.742l1.185-.402c.61-.207,1.017-.48,1.219-.82,.203-.339,.221-.751,.057-1.235-.167-.492-.432-.797-.796-.915-.364-.119-.866-.069-1.507,.148l-1.124,.382,.965,2.843Z"></path>
        <path class="cls-1" d="M42.094,5.375l.483,3.229-.903,.135-1.162-7.766,2.13-.318c.953-.143,1.684-.065,2.193,.23,.51,.297,.819,.812,.929,1.545,.154,1.027-.263,1.799-1.25,2.316l2.631,3.174-1.068,.16-2.363-2.948-1.62,.242Zm-.116-.775l1.238-.186c.637-.095,1.086-.292,1.346-.59,.259-.297,.351-.699,.275-1.206-.077-.513-.283-.86-.62-1.042s-.84-.222-1.509-.122l-1.174,.176,.444,2.97Z"></path>
        <path class="cls-1" d="M55.043,7.968l-.903-2.525-3.146-.094-1.041,2.468-.923-.027,3.337-7.789,.768,.022,2.853,7.974-.945-.028Zm-1.164-3.355l-.84-2.459c-.109-.312-.219-.692-.332-1.144-.089,.341-.213,.715-.372,1.122l-.996,2.405,2.539,.075Z"></path>
        <path class="cls-1" d="M63.411,9.408l-5.286-1.095,.145-.699,5.362-5.34-3.955-.819,.167-.805,5.044,1.045-.145,.699-5.361,5.335,4.197,.869-.167,.81Z"></path>
        <path class="cls-1" d="M70.923,12.114l-5.026-1.969,.26-.665,6.185-4.361-3.761-1.473,.299-.766,4.796,1.879-.261,.665-6.182,4.356,3.991,1.562-.301,.771Z"></path>
        <path class="cls-1" d="M78.003,16.144l.468-2.641-2.686-1.642-2.127,1.627-.788-.481,6.761-5.108,.655,.4-1.477,8.338-.807-.493Zm.654-3.49l.49-2.552c.06-.324,.153-.71,.279-1.157-.247,.252-.54,.516-.88,.79l-2.057,1.595,2.168,1.324Z"></path>
        <path class="cls-1" d="M89.17,23.494c-.507,.47-1.072,.652-1.697,.548-.625-.104-1.229-.471-1.813-1.101-.633-.683-1.033-1.289-1.198-1.82l.646-.599c.12,.329,.28,.659,.48,.99,.201,.332,.427,.635,.681,.907,.414,.446,.811,.704,1.189,.772s.719-.037,1.021-.317c.199-.185,.326-.377,.378-.575,.053-.198,.046-.44-.02-.729-.067-.287-.209-.686-.429-1.195-.305-.714-.434-1.307-.384-1.78,.049-.473,.286-.906,.708-1.298,.443-.412,.951-.573,1.523-.483s1.112,.409,1.622,.958c.531,.572,.914,1.195,1.15,1.871l-.776,.332c-.242-.66-.571-1.215-.987-1.664-.329-.354-.662-.561-.999-.618-.337-.059-.641,.038-.912,.289-.2,.185-.329,.373-.388,.564-.059,.192-.061,.425-.005,.697,.056,.273,.186,.649,.392,1.129,.345,.803,.499,1.433,.463,1.889-.036,.456-.251,.866-.645,1.232Z"></path>
        <path class="cls-1" d="M99.481,28.275l-4.288,2.727c-.755,.48-1.494,.63-2.216,.448s-1.337-.671-1.844-1.469-.682-1.554-.524-2.267c.157-.713,.617-1.312,1.378-1.796l4.27-2.715,.49,.771-4.324,2.749c-.553,.352-.882,.772-.986,1.264-.104,.49,.031,1.028,.403,1.614,.355,.56,.778,.896,1.268,1.008,.49,.113,1.013-.007,1.569-.36l4.315-2.744,.49,.771Z"></path>
        <path class="cls-1" d="M94.482,35.882l7.274-2.959,.344,.846-6.507,2.647,1.305,3.209-.766,.312-1.649-4.055Z"></path>
        <path class="cls-1" d="M98.343,50.089l-.11-.906,6.99-.85-.3-2.468,.805-.099,.71,5.844-.805,.099-.3-2.469-6.99,.849Z"></path>
        <path class="cls-1" d="M98.496,59.866l.184-4.373,7.846,.329-.184,4.373-.81-.034,.145-3.461-2.527-.106-.137,3.252-.805-.033,.136-3.252-2.887-.121-.145,3.461-.816-.034Z"></path>
        <path class="cls-1" d="M97.534,65.69l.188-.894,6.892,1.444,.51-2.434,.794,.166-1.208,5.762-.794-.167,.51-2.434-6.892-1.444Z"></path>
        <path class="cls-1" d="M95.241,73.136l.332-.851,6.561,2.558,.903-2.316,.755,.294-2.138,5.484-.756-.294,.904-2.317-6.561-2.558Z"></path>
        <path class="cls-1" d="M92.788,85.867c-1.064-.669-1.732-1.464-2.003-2.385-.271-.922-.106-1.861,.496-2.819,.616-.979,1.39-1.547,2.323-1.702,.933-.156,1.946,.109,3.037,.795,1.082,.681,1.753,1.475,2.014,2.383,.26,.907,.082,1.853-.536,2.835-.6,.955-1.372,1.51-2.315,1.666-.944,.155-1.949-.103-3.016-.772Zm3.33-5.299c-.9-.565-1.704-.803-2.411-.712-.706,.091-1.289,.502-1.748,1.232-.463,.737-.581,1.439-.353,2.106s.793,1.285,1.696,1.853c.895,.562,1.69,.802,2.388,.718s1.277-.493,1.738-1.227c.463-.736,.582-1.443,.358-2.119-.225-.676-.781-1.293-1.669-1.852Z"></path>
      </g>
      <path class="cls-1" d="M51.069,106.509C22.909,106.509,0,83.6,0,55.44c0-13.662,5.326-26.5,14.997-36.15,.195-.195,.512-.195,.707,0,.195,.196,.195,.513,0,.707C6.222,29.459,1,42.046,1,55.44c0,27.607,22.461,50.068,50.069,50.068,13.91,0,27.309-5.859,36.76-16.075,.188-.204,.504-.215,.707-.027,.203,.188,.215,.504,.028,.707-9.64,10.42-23.307,16.396-37.495,16.396Z"></path>
      <g>
        <g>
          <path class="cls-1" d="M75.079,46.662H27.059l24.01-11.912,24.01,11.912Zm-43.754-1h39.488l-19.744-9.795-19.744,9.795Z"></path>
          <path class="cls-1" d="M51.069,72.687c-.276,0-.5-.224-.5-.5v-26.024c0-.276,.224-.5,.5-.5s.5,.224,.5,.5v26.024c0,.276-.224,.5-.5,.5Z"></path>
          <path class="cls-1" d="M57.332,61.992h-12.525c-.276,0-.5-.224-.5-.5s.224-.5,.5-.5h12.525c.276,0,.5,.224,.5,.5s-.224,.5-.5,.5Z"></path>
        </g>
        <g>
          <g>
            <path class="cls-1" d="M43.387,66.129h-7.166c-1.161,0-2.106-.945-2.106-2.106v-7.166h.5c4.837,0,8.772,3.936,8.772,8.772v.5Zm-8.272-8.257v6.15c0,.61,.496,1.106,1.106,1.106h6.15c-.248-3.889-3.368-7.009-7.256-7.257Z"></path>
            <polygon class="cls-1" points="35.998 72.187 38.111 65.785 37.162 65.472 34.946 72.187 35.998 72.187"></polygon>
            <polygon class="cls-1" points="42.557 72.187 40.341 65.472 39.392 65.785 41.504 72.187 42.557 72.187"></polygon>
          </g>
          <g>
            <path class="cls-1" d="M65.917,66.129h-7.166v-.5c0-4.837,3.935-8.772,8.772-8.772h.5v7.166c0,1.161-.945,2.106-2.106,2.106Zm-6.15-1h6.15c.61,0,1.106-.496,1.106-1.106v-6.15c-3.888,.248-7.008,3.368-7.256,7.257Z"></path>
            <polygon class="cls-1" points="60.634 72.187 62.746 65.785 61.797 65.472 59.581 72.187 60.634 72.187"></polygon>
            <polygon class="cls-1" points="67.192 72.187 64.977 65.472 64.027 65.785 66.139 72.187 67.192 72.187"></polygon>
          </g>
        </g>
      </g>
    </g>
  </g>
</svg>
