<?xml version="1.0" encoding="UTF-8"?>
<svg xmlns="http://www.w3.org/2000/svg" id="Ebene_2" data-name="Ebene 2" viewBox="0 0 106.568 106.512">
  <defs>
    <style>
      .cls-1 {
        fill: #d5c7a3;
      }
    </style>
  </defs>
  <g id="Ebene_3" data-name="Ebene 3">
    <g>
      <g>
        <path class="cls-1" d="M32.631,8.033l1.099,3.075-.86,.308-2.643-7.395,2.028-.725c.907-.324,1.639-.391,2.196-.198,.558,.192,.961,.638,1.21,1.336,.35,.978,.09,1.815-.778,2.514l3.196,2.605-1.017,.363-2.89-2.435-1.542,.551Zm-.264-.738l1.179-.421c.607-.217,1.009-.497,1.206-.839,.197-.343,.209-.755,.037-1.237-.174-.488-.445-.789-.81-.902-.365-.112-.867-.055-1.504,.173l-1.118,.399,1.01,2.827Z"></path>
        <path class="cls-1" d="M47.04,3.965c.184,1.243,.015,2.268-.509,3.073-.523,.805-1.345,1.29-2.464,1.456-1.145,.169-2.079-.05-2.804-.658-.725-.607-1.182-1.549-1.371-2.824-.188-1.264-.021-2.291,.5-3.079,.521-.788,1.354-1.268,2.502-1.437,1.116-.166,2.04,.06,2.771,.676,.731,.615,1.19,1.547,1.374,2.793Zm-6.189,.916c.155,1.053,.498,1.817,1.026,2.295,.529,.477,1.22,.652,2.074,.526,.86-.128,1.47-.495,1.83-1.102,.359-.607,.46-1.438,.304-2.494-.155-1.045-.491-1.805-1.008-2.28-.517-.476-1.205-.649-2.062-.522-.861,.127-1.475,.496-1.843,1.105-.368,.61-.475,1.435-.321,2.472Z"></path>
        <path class="cls-1" d="M57.96,4.268c-.079,1.254-.458,2.221-1.138,2.898-.68,.679-1.584,.982-2.713,.911-1.154-.072-2.023-.481-2.605-1.227-.583-.746-.833-1.762-.753-3.048,.081-1.276,.458-2.245,1.13-2.908,.673-.662,1.589-.957,2.747-.884,1.126,.07,1.982,.483,2.57,1.237,.588,.755,.842,1.762,.763,3.02Zm-6.245-.394c-.067,1.062,.108,1.881,.526,2.457,.417,.577,1.057,.894,1.918,.947,.868,.055,1.542-.178,2.019-.696s.75-1.311,.817-2.376c.066-1.054-.104-1.867-.511-2.44-.407-.572-1.043-.886-1.908-.94-.868-.055-1.546,.178-2.032,.698-.487,.52-.763,1.304-.829,2.351Z"></path>
        <path class="cls-1" d="M61.925,9.11l-.885-.224,1.921-7.613,4.245,1.071-.198,.786-3.359-.848-.703,2.786,3.156,.796-.199,.787-3.156-.797-.821,3.255Z"></path>
        <path class="cls-1" d="M74.75,14.175l-.796-.447,3.453-6.137-2.167-1.22,.397-.707,5.131,2.887-.398,.706-2.167-1.219-3.453,6.137Z"></path>
        <path class="cls-1" d="M87.009,18.373c-.81,.961-1.69,1.512-2.64,1.652-.95,.141-1.857-.154-2.722-.883-.884-.746-1.339-1.592-1.363-2.537-.025-.946,.378-1.911,1.209-2.897,.824-.977,1.704-1.531,2.639-1.663s1.847,.176,2.733,.924c.862,.727,1.305,1.568,1.328,2.524s-.372,1.916-1.184,2.88Zm-4.784-4.033c-.686,.813-1.032,1.575-1.04,2.288-.008,.712,.318,1.346,.978,1.902,.666,.561,1.344,.775,2.037,.643,.692-.133,1.383-.607,2.07-1.423,.681-.808,1.028-1.562,1.042-2.266,.014-.702-.311-1.333-.973-1.892-.666-.561-1.349-.777-2.049-.648-.701,.128-1.389,.594-2.065,1.396Z"></path>
        <path class="cls-1" d="M94.194,24.279c-.619,.498-1.265,.671-1.939,.517-.673-.154-1.327-.625-1.96-1.411l-.58-.72-2.405,1.938-.573-.711,6.116-4.926,1.277,1.586c1.23,1.527,1.252,2.771,.064,3.728Zm-3.868-2.105l.515,.64c.508,.63,.977,1.004,1.407,1.122,.43,.118,.87-.004,1.319-.366,.404-.325,.599-.7,.583-1.125-.015-.424-.249-.917-.7-1.478l-.64-.795-2.484,2.002Z"></path>
        <path class="cls-1" d="M101.09,37.271c-.732,.311-1.401,.299-2.006-.034-.605-.332-1.105-.964-1.499-1.894l-.36-.851-2.844,1.204-.356-.841,7.231-3.062,.794,1.874c.765,1.808,.445,3.008-.959,3.603Zm-3.144-3.084l.321,.757c.315,.745,.664,1.233,1.046,1.464,.381,.231,.838,.234,1.369,.01,.478-.202,.768-.51,.87-.922,.101-.412,.012-.95-.269-1.613l-.398-.939-2.938,1.244Z"></path>
        <path class="cls-1" d="M98.034,47.423l2.222-1.503-.691-3.07-2.649-.395-.203-.901,8.374,1.297,.168,.75-7.014,4.744-.208-.922Zm2.961-1.961l2.173-1.425c.274-.183,.616-.385,1.025-.605-.353,0-.746-.028-1.18-.081l-2.577-.367,.558,2.479Z"></path>
        <path class="cls-1" d="M98.604,53.559l-.044-.912,7.034-.34-.12-2.483,.81-.039,.284,5.88-.81,.039-.12-2.484-7.033,.34Z"></path>
        <path class="cls-1" d="M98.501,59.105l7.824,.67-.078,.91-7.824-.67,.078-.91Z"></path>
        <path class="cls-1" d="M100.166,71.471c-1.219-.305-2.101-.853-2.645-1.644-.544-.791-.679-1.735-.405-2.833,.28-1.122,.84-1.902,1.678-2.341s1.883-.501,3.134-.188c1.24,.31,2.125,.855,2.655,1.638,.53,.781,.654,1.735,.373,2.861-.273,1.094-.834,1.862-1.683,2.303-.848,.441-1.884,.51-3.107,.204Zm1.517-6.07c-1.032-.258-1.869-.234-2.512,.072s-1.069,.878-1.278,1.715c-.21,.845-.104,1.549,.32,2.112s1.153,.975,2.188,1.233c1.025,.256,1.856,.235,2.493-.062,.637-.297,1.061-.865,1.271-1.706,.211-.844,.104-1.553-.319-2.125-.423-.573-1.144-.986-2.162-1.24Z"></path>
      </g>
      <path class="cls-1" d="M51.069,106.512C22.909,106.512,0,83.603,0,55.444,0,37.322,9.741,20.397,25.422,11.272c.238-.139,.544-.058,.684,.181,.139,.239,.058,.545-.181,.685C10.551,21.082,1,37.677,1,55.444c0,27.607,22.461,50.068,50.069,50.068,19.253,0,36.486-10.743,44.974-28.037,.122-.246,.421-.347,.669-.229,.248,.122,.35,.422,.229,.67-8.658,17.639-26.234,28.596-45.872,28.596Z"></path>
      <g>
        <g>
          <path class="cls-1" d="M75.079,46.665H27.059l24.01-11.912,24.01,11.912Zm-43.754-1h39.488l-19.744-9.795-19.744,9.795Z"></path>
          <path class="cls-1" d="M51.069,72.69c-.276,0-.5-.224-.5-.5v-26.024c0-.276,.224-.5,.5-.5s.5,.224,.5,.5v26.024c0,.276-.224,.5-.5,.5Z"></path>
          <path class="cls-1" d="M57.332,61.995h-12.525c-.276,0-.5-.224-.5-.5s.224-.5,.5-.5h12.525c.276,0,.5,.224,.5,.5s-.224,.5-.5,.5Z"></path>
        </g>
        <g>
          <g>
            <path class="cls-1" d="M43.387,66.132h-7.166c-1.161,0-2.106-.945-2.106-2.106v-7.166h.5c4.837,0,8.772,3.936,8.772,8.772v.5Zm-8.272-8.257v6.15c0,.61,.496,1.106,1.106,1.106h6.15c-.248-3.889-3.368-7.009-7.256-7.257Z"></path>
            <polygon class="cls-1" points="35.998 72.19 38.111 65.788 37.162 65.475 34.946 72.19 35.998 72.19"></polygon>
            <polygon class="cls-1" points="42.557 72.19 40.341 65.475 39.392 65.788 41.504 72.19 42.557 72.19"></polygon>
          </g>
          <g>
            <path class="cls-1" d="M65.917,66.132h-7.166v-.5c0-4.837,3.935-8.772,8.772-8.772h.5v7.166c0,1.161-.945,2.106-2.106,2.106Zm-6.15-1h6.15c.61,0,1.106-.496,1.106-1.106v-6.15c-3.888,.248-7.008,3.368-7.256,7.257Z"></path>
            <polygon class="cls-1" points="60.634 72.19 62.746 65.788 61.797 65.475 59.581 72.19 60.634 72.19"></polygon>
            <polygon class="cls-1" points="67.192 72.19 64.977 65.475 64.027 65.788 66.139 72.19 67.192 72.19"></polygon>
          </g>
        </g>
      </g>
    </g>
  </g>
</svg>
