<?xml version="1.0" encoding="UTF-8"?>
<svg xmlns="http://www.w3.org/2000/svg" id="Ebene_2" data-name="Ebene 2" viewBox="0 0 106.604 106.515">
  <defs>
    <style>
      .cls-1 {
        fill: #d5c7a3;
      }
    </style>
  </defs>
  <g id="Ebene_3" data-name="Ebene 3">
    <g>
      <g>
        <path class="cls-1" d="M43.231,4.357c.277,1.267,.146,2.31-.394,3.131-.541,.82-1.456,1.372-2.747,1.655l-2.125,.466-1.683-7.67,2.35-.516c1.193-.262,2.192-.135,2.998,.382,.806,.516,1.339,1.366,1.6,2.552Zm-.938,.239c-.22-1-.636-1.699-1.249-2.096-.613-.397-1.415-.487-2.404-.271l-1.296,.284,1.344,6.128,1.086-.238c1.063-.233,1.805-.67,2.226-1.311,.42-.64,.518-1.473,.293-2.497Z"></path>
        <path class="cls-1" d="M52.374,7.828l-1.041-2.472-3.146,.079-.903,2.521-.923,.023L49.264,.02l.768-.02,3.287,7.805-.945,.023Zm-1.346-3.286l-.975-2.409c-.126-.305-.257-.68-.394-1.124-.07,.346-.173,.727-.31,1.142l-.862,2.456,2.54-.064Z"></path>
        <path class="cls-1" d="M60.485,1.526c-.853-.133-1.57,.047-2.152,.538-.582,.491-.949,1.23-1.103,2.218-.157,1.016-.042,1.837,.349,2.465s1.025,1.01,1.907,1.146c.541,.084,1.174,.083,1.897-.005l-.123,.791c-.569,.118-1.249,.116-2.038-.006-1.143-.178-1.971-.661-2.484-1.451-.513-.79-.671-1.823-.473-3.101,.125-.8,.382-1.478,.775-2.032,.393-.556,.896-.952,1.511-1.189,.615-.238,1.305-.298,2.069-.18,.814,.127,1.502,.386,2.064,.777l-.502,.716c-.544-.367-1.11-.597-1.698-.688Z"></path>
        <path class="cls-1" d="M70.06,11.716l-.859-.311,1.257-3.475-3.889-1.407-1.257,3.475-.859-.311,2.671-7.384,.859,.311-1.137,3.142,3.889,1.406,1.136-3.141,.859,.311-2.671,7.384Z"></path>
        <path class="cls-1" d="M75.54,14.642l-.787-.463,3.569-6.069-2.144-1.261,.411-.699,5.074,2.984-.411,.699-2.144-1.261-3.569,6.069Z"></path>
        <path class="cls-1" d="M83.413,20.482l-3.357-2.81,5.039-6.022,3.357,2.81-.521,.622-2.657-2.224-1.624,1.94,2.497,2.089-.517,.617-2.497-2.088-1.854,2.216,2.657,2.224-.524,.626Z"></path>
        <path class="cls-1" d="M88.932,21.496l-2.49,2.113-.591-.696,5.987-5.082,1.394,1.643c.624,.734,.943,1.396,.96,1.985,.017,.59-.258,1.124-.823,1.604-.792,.672-1.667,.725-2.627,.158l-1.311,3.909-.698-.823,1.259-3.562-1.06-1.249Zm.598-.508l.81,.954c.417,.491,.82,.77,1.21,.833,.39,.063,.78-.07,1.17-.401,.396-.336,.582-.695,.559-1.077-.023-.382-.254-.83-.692-1.347l-.768-.904-2.289,1.942Z"></path>
        <path class="cls-1" d="M94.356,28.743l-2.824,1.64-.458-.79,6.791-3.942,1.082,1.862c.483,.833,.681,1.541,.593,2.124s-.452,1.061-1.093,1.433c-.898,.521-1.769,.419-2.614-.308l-1.981,3.615-.542-.934,1.869-3.284-.822-1.416Zm.678-.395l.628,1.083c.323,.558,.671,.901,1.044,1.033s.78,.068,1.223-.188c.449-.261,.696-.581,.74-.961s-.103-.862-.443-1.447l-.596-1.026-2.597,1.507Z"></path>
        <path class="cls-1" d="M96.699,41.716l2.019-1.766-1.066-2.962-2.677-.063-.313-.869,8.47,.25,.26,.723-6.373,5.577-.32-.89Zm2.695-2.312l1.98-1.684c.25-.215,.564-.458,.942-.728-.35,.043-.744,.064-1.181,.066l-2.603-.045,.861,2.39Z"></path>
        <path class="cls-1" d="M100.419,49.338c-.681,.119-1.255-.036-1.722-.464s-.773-1.064-.921-1.911c-.159-.918-.164-1.644-.013-2.179l.868-.15c-.079,.341-.125,.705-.137,1.092-.013,.388,.013,.765,.077,1.132,.104,.6,.296,1.031,.577,1.295,.28,.265,.624,.361,1.029,.29,.268-.046,.478-.139,.631-.275,.152-.138,.279-.345,.38-.622,.101-.277,.198-.689,.292-1.236,.132-.765,.348-1.332,.647-1.702,.299-.37,.732-.604,1.3-.703,.596-.104,1.11,.038,1.541,.425s.71,.949,.838,1.687c.133,.769,.115,1.501-.055,2.195l-.832-.145c.157-.685,.183-1.329,.079-1.933-.083-.477-.25-.83-.501-1.063-.251-.232-.559-.316-.922-.254-.268,.047-.479,.135-.633,.263-.154,.129-.282,.322-.384,.582s-.198,.646-.287,1.159c-.148,.861-.362,1.474-.64,1.837-.279,.362-.683,.59-1.212,.682Z"></path>
        <path class="cls-1" d="M100.766,57.462c-.691,.011-1.234-.231-1.628-.726-.395-.495-.599-1.173-.613-2.032-.015-.931,.093-1.648,.325-2.153l.881-.015c-.131,.324-.233,.677-.305,1.058-.073,.381-.106,.758-.1,1.13,.01,.608,.133,1.065,.369,1.369,.236,.305,.56,.453,.972,.446,.272-.004,.494-.062,.666-.175,.172-.111,.329-.297,.472-.556,.143-.258,.303-.65,.48-1.176,.25-.734,.551-1.262,.904-1.58,.353-.319,.817-.483,1.394-.493,.605-.01,1.09,.21,1.456,.658,.365,.449,.554,1.048,.566,1.796,.013,.781-.119,1.501-.395,2.161l-.799-.272c.262-.652,.388-1.284,.377-1.896-.008-.483-.118-.859-.33-1.128-.212-.27-.503-.4-.872-.395-.272,.005-.494,.059-.666,.161-.172,.104-.329,.275-.47,.516s-.295,.607-.463,1.101c-.28,.828-.586,1.399-.917,1.715-.332,.315-.766,.478-1.303,.486Z"></path>
        <path class="cls-1" d="M97.709,65.154l.67-4.326,7.76,1.202-.669,4.325-.802-.124,.53-3.423-2.5-.388-.498,3.217-.796-.123,.498-3.217-2.855-.442-.53,3.424-.807-.125Z"></path>
      </g>
      <path class="cls-1" d="M51.069,106.515C22.909,106.515,0,83.605,0,55.446,0,34.379,12.65,15.741,32.227,7.966c.257-.1,.547,.023,.649,.28,.102,.257-.023,.547-.28,.649C13.402,16.519,1,34.791,1,55.446c0,27.607,22.461,50.068,50.069,50.068,21.049,0,39.984-13.299,47.118-33.092,.094-.259,.38-.392,.64-.301,.26,.094,.395,.381,.301,.641-7.275,20.188-26.588,33.752-48.058,33.752Z"></path>
      <g>
        <g>
          <path class="cls-1" d="M75.079,46.668H27.059l24.01-11.912,24.01,11.912Zm-43.754-1h39.488l-19.744-9.795-19.744,9.795Z"></path>
          <path class="cls-1" d="M51.069,72.692c-.276,0-.5-.224-.5-.5v-26.024c0-.276,.224-.5,.5-.5s.5,.224,.5,.5v26.024c0,.276-.224,.5-.5,.5Z"></path>
          <path class="cls-1" d="M57.332,61.999h-12.525c-.276,0-.5-.224-.5-.5s.224-.5,.5-.5h12.525c.276,0,.5,.224,.5,.5s-.224,.5-.5,.5Z"></path>
        </g>
        <g>
          <g>
            <path class="cls-1" d="M43.387,66.135h-7.166c-1.161,0-2.106-.945-2.106-2.106v-7.166h.5c4.837,0,8.772,3.936,8.772,8.772v.5Zm-8.272-8.257v6.15c0,.61,.496,1.106,1.106,1.106h6.15c-.248-3.889-3.368-7.009-7.256-7.257Z"></path>
            <polygon class="cls-1" points="35.998 72.193 38.111 65.791 37.162 65.478 34.946 72.193 35.998 72.193"></polygon>
            <polygon class="cls-1" points="42.557 72.193 40.341 65.478 39.392 65.791 41.504 72.193 42.557 72.193"></polygon>
          </g>
          <g>
            <path class="cls-1" d="M65.917,66.135h-7.166v-.5c0-4.837,3.935-8.772,8.772-8.772h.5v7.166c0,1.161-.945,2.106-2.106,2.106Zm-6.15-1h6.15c.61,0,1.106-.496,1.106-1.106v-6.15c-3.888,.248-7.008,3.368-7.256,7.257Z"></path>
            <polygon class="cls-1" points="60.634 72.193 62.746 65.791 61.797 65.478 59.581 72.193 60.634 72.193"></polygon>
            <polygon class="cls-1" points="67.192 72.193 64.977 65.478 64.027 65.791 66.139 72.193 67.192 72.193"></polygon>
          </g>
        </g>
      </g>
    </g>
  </g>
</svg>
