<?xml version="1.0" encoding="UTF-8"?>
<svg xmlns="http://www.w3.org/2000/svg" id="Ebene_2" data-name="Ebene 2" viewBox="0 0 106.067 106.423">
  <defs>
    <style>
      .cls-1 {
        fill: #d5c7a3;
      }
    </style>
  </defs>
  <g id="Ebene_2-2" data-name="Ebene 2">
    <g>
      <g>
        <path class="cls-1" d="M54.53,7.902l-.91-.081,.701-7.821,4.36,.391-.073,.808-3.45-.31-.257,2.862,3.242,.291-.072,.808-3.242-.291-.299,3.344Z"></path>
        <path class="cls-1" d="M61.119,8.847l1.725-7.661,.891,.2-1.725,7.661-.891-.2Z"></path>
        <path class="cls-1" d="M67.888,7.346l-1.166,3.051-.853-.326,2.802-7.335,2.012,.769c.9,.344,1.499,.77,1.798,1.278,.298,.509,.314,1.109,.051,1.802-.371,.97-1.113,1.438-2.227,1.403l.732,4.058-1.009-.386-.61-3.729-1.53-.585Zm.279-.732l1.169,.446c.603,.23,1.09,.279,1.462,.147s.649-.437,.833-.915c.185-.485,.176-.89-.029-1.213-.204-.323-.622-.605-1.254-.847l-1.109-.424-1.071,2.805Z"></path>
        <path class="cls-1" d="M77.44,15.685l-3.761-2.24,4.019-6.746,3.761,2.24-.415,.696-2.976-1.772-1.295,2.173,2.796,1.666-.412,.692-2.796-1.666-1.479,2.482,2.977,1.773-.418,.701Z"></path>
        <path class="cls-1" d="M87.659,16.729c-.517,.604-1.12,.893-1.811,.865s-1.419-.368-2.187-1.024l-.702-.601-2.007,2.349-.694-.594,5.102-5.97,1.548,1.322c1.491,1.275,1.742,2.492,.751,3.652Zm-4.19-1.355l.625,.534c.615,.525,1.146,.807,1.59,.843s.854-.165,1.229-.604c.338-.395,.46-.799,.366-1.213-.094-.415-.414-.855-.961-1.323l-.775-.663-2.073,2.426Z"></path>
        <path class="cls-1" d="M86.361,23.408l6.011-5.052,.588,.699-5.379,4.52,2.229,2.652-.634,.532-2.815-3.352Z"></path>
        <path class="cls-1" d="M93.421,33.524l1.66-2.105-1.592-2.716-2.644,.429-.467-.797,8.372-1.309,.389,.662-5.241,6.652-.478-.816Zm2.226-2.767l1.637-2.019c.206-.258,.471-.554,.793-.888-.336,.105-.719,.199-1.148,.28l-2.566,.434,1.285,2.192Z"></path>
        <path class="cls-1" d="M102.855,37.611c-.294-.811-.797-1.354-1.507-1.627-.711-.273-1.536-.24-2.475,.101-.967,.35-1.631,.847-1.993,1.491-.363,.644-.393,1.385-.088,2.223,.187,.515,.492,1.069,.916,1.661l-.752,.273c-.378-.442-.702-1.039-.975-1.789-.395-1.088-.369-2.046,.077-2.876,.445-.83,1.275-1.466,2.491-1.906,.761-.276,1.479-.376,2.154-.299,.675,.077,1.265,.328,1.77,.753,.504,.424,.889,1,1.152,1.728,.28,.773,.385,1.502,.312,2.184l-.869-.097c.06-.654-.012-1.261-.214-1.819Z"></path>
        <path class="cls-1" d="M98.333,49.422l-.758-4.312,7.734-1.359,.758,4.311-.799,.141-.6-3.412-2.492,.438,.563,3.205-.793,.14-.563-3.205-2.847,.5,.601,3.412-.805,.142Z"></path>
      </g>
      <path class="cls-1" d="M51.069,106.423C22.909,106.423,0,83.514,0,55.354,0,29.045,19.71,7.203,45.848,4.55c.279-.029,.52,.173,.548,.446,.028,.275-.172,.521-.447,.548C20.324,8.146,1,29.56,1,55.354c0,27.607,22.461,50.068,50.069,50.068s50.069-22.461,50.069-50.068c0-.276,.224-.5,.5-.5s.5,.224,.5,.5c0,28.159-22.909,51.068-51.069,51.068Z"></path>
      <g>
        <path class="cls-1" d="M51.511,68.577c-1.643,0-3.061-.505-4.223-1.504-.238-.204-.423-.44-.603-.669l-.167-.21c-.394-.479-.888-1.128-1.225-1.89-.43-.972-.604-2.002-.518-3.062,.115-1.418,.644-2.77,1.573-4.019l.103-.119c.073-.08,.181-.135,.311-.151l.562-.073c.218-.637,.554-1.248,1.007-1.83,.68-.873,1.584-1.605,2.688-2.176,.339-.175,.689-.33,1.04-.484l.666-.249h.833l-.474,.918c-.399,.476-.551,1.078-.473,1.891,.081,.833,.477,1.577,.876,2.269l.271,.467c.281,.481,.562,.963,.827,1.452,.151,.278,.276,.551,.376,.82,.258-.627,.389-1.239,.283-1.913l-.268-1.707,1.249,1.43c.608,.777,.976,1.704,1.094,2.753,.149,1.335,.043,2.673-.315,3.977-.257,.937-.702,1.736-1.321,2.379-.69,.714-1.52,1.227-2.465,1.525-.316,.1-.644,.122-.933,.142l-.147,.011c-.212,.016-.421,.023-.626,.023Zm-4.964-9.812c-.451,.824-.703,1.666-.775,2.558-.073,.893,.074,1.76,.436,2.577,.286,.647,.708,1.202,1.083,1.659l.181,.228c.156,.199,.303,.388,.467,.528,1.115,.958,2.463,1.365,4.123,1.24l.155-.011c.256-.017,.497-.033,.698-.097,.786-.248,1.475-.675,2.048-1.268,.508-.526,.861-1.164,1.077-1.949,.324-1.181,.42-2.392,.285-3.6-.038-.338-.106-.658-.206-.962-.188,.677-.522,1.322-.896,1.996l-.665,1.198-.264-1.345c-.024-.113-.031-.152-.034-.192-.047-.55-.229-1.11-.555-1.713-.26-.48-.536-.953-.812-1.426l-.273-.47c-.435-.751-.907-1.64-1.006-2.673-.049-.511-.024-.972,.078-1.39-.072,.035-.144,.07-.215,.107-.988,.511-1.759,1.133-2.357,1.901-.814,1.045-1.169,2.147-1.085,3.369,.007,.106,.019,.211,.03,.316l.16,1.562-.996-1.003c-.156-.157-.286-.325-.387-.5-.121-.206-.219-.422-.295-.645Z"></path>
        <path class="cls-1" d="M69.387,43.131H32.75v-5.057h36.637v5.057Zm-35.637-1h34.637v-3.057H33.75v3.057Z"></path>
        <path class="cls-1" d="M69.387,72.634H32.75v-5.057h36.637v5.057Zm-35.637-1h34.637v-3.057H33.75v3.057Z"></path>
        <g>
          <path class="cls-1" d="M40.081,68.577h-5.057v-26.446h5.057v26.446Zm-4.057-1h3.057v-24.446h-3.057v24.446Z"></path>
          <path class="cls-1" d="M67.114,68.577h-5.057v-26.446h5.057v26.446Zm-4.058-1h3.058v-24.446h-3.058v24.446Z"></path>
        </g>
        <path class="cls-1" d="M39.734,51.028l-.308-.951c3.647-1.178,7.564-1.774,11.642-1.774s7.995,.597,11.642,1.774l-.308,.951c-3.547-1.145-7.36-1.726-11.334-1.726s-7.787,.581-11.334,1.726Z"></path>
      </g>
    </g>
  </g>
</svg>
