<?xml version="1.0" encoding="UTF-8"?>
<svg xmlns="http://www.w3.org/2000/svg" id="Ebene_2" data-name="Ebene 2" viewBox="0 0 102.138 103.418">
  <defs>
    <style>
      .cls-1 {
        fill: #d5c7a3;
      }
    </style>
  </defs>
  <g id="Ebene_2-2" data-name="Ebene 2">
    <g>
      <g>
        <path class="cls-1" d="M71.815,9.396l-.998-.398-1.249-4.598-1.034,.374-1.14,2.859-.848-.339,2.908-7.294,.848,.339-1.441,3.617,4.75-2.299,1.002,.4-4.196,1.998,1.398,5.34Z"></path>
        <path class="cls-1" d="M78.401,13.329l.495-2.636-2.668-1.669-2.145,1.605-.783-.49,6.812-5.039,.651,.407-1.562,8.322-.802-.501Zm.689-3.483l.517-2.547c.062-.324,.16-.709,.291-1.155-.249,.25-.545,.511-.888,.782l-2.073,1.572,2.153,1.348Z"></path>
        <path class="cls-1" d="M83.798,17.826l2.916-6.858-.03-.03c-.348,.432-.784,.921-1.312,1.467l-3.468,3.595-.607-.585,5.453-5.651,.989,.955-2.708,6.388,.03,.03,6.303-2.92,.982,.947-5.453,5.65-.656-.634,3.513-3.641c.403-.418,.858-.854,1.367-1.309l-.031-.029-6.759,3.137-.529-.512Z"></path>
        <path class="cls-1" d="M89.219,23.925l6.337-4.637,.539,.737-6.337,4.637-.539-.737Z"></path>
        <path class="cls-1" d="M94.805,33.358l-.477-.927,3.898-6.83-.02-.038c-.661,.404-1.279,.755-1.853,1.049l-3.969,2.041-.386-.75,6.983-3.59,.472,.917-3.88,6.808,.02,.038c.083-.05,.352-.207,.807-.469s.784-.441,.988-.538l4.008-2.061,.391,.76-6.983,3.59Z"></path>
      </g>
      <path class="cls-1" d="M51.069,103.418C22.909,103.418,0,80.509,0,52.35S22.909,1.28,51.069,1.28c2.509,0,5.03,.184,7.494,.546,.273,.041,.462,.295,.422,.568-.04,.271-.297,.451-.567,.422-2.416-.355-4.888-.536-7.349-.536C23.461,2.28,1,24.741,1,52.35s22.461,50.068,50.069,50.068,50.069-22.461,50.069-50.068c0-3.579-.38-7.153-1.129-10.622-.059-.27,.112-.536,.383-.594,.266-.06,.537,.113,.594,.383,.765,3.538,1.152,7.183,1.152,10.833,0,28.159-22.909,51.068-51.069,51.068Z"></path>
      <g>
        <path class="cls-1" d="M51.511,65.572c-1.643,0-3.061-.505-4.223-1.504-.238-.204-.423-.44-.603-.669l-.167-.21c-.394-.479-.888-1.128-1.225-1.89-.43-.972-.604-2.002-.518-3.062,.115-1.418,.644-2.77,1.573-4.019l.103-.119c.073-.08,.181-.135,.311-.151l.562-.073c.218-.637,.554-1.248,1.007-1.83,.68-.873,1.584-1.605,2.688-2.176,.339-.175,.689-.33,1.04-.484l.666-.249h.833l-.474,.918c-.399,.476-.551,1.078-.473,1.891,.081,.833,.477,1.577,.876,2.269l.271,.467c.281,.481,.562,.963,.827,1.452,.151,.278,.276,.551,.376,.82,.258-.627,.389-1.239,.283-1.913l-.268-1.707,1.249,1.43c.608,.777,.976,1.704,1.094,2.753,.149,1.335,.043,2.673-.315,3.977-.258,.938-.703,1.738-1.322,2.379-.69,.714-1.52,1.227-2.465,1.525-.316,.1-.644,.122-.933,.142l-.147,.011c-.212,.016-.421,.023-.626,.023Zm-4.964-9.812c-.451,.824-.703,1.666-.775,2.558-.073,.893,.074,1.76,.436,2.577,.286,.647,.708,1.202,1.083,1.659l.181,.228c.156,.199,.303,.388,.467,.528,1.115,.958,2.463,1.366,4.123,1.24l.155-.011c.256-.017,.497-.033,.698-.097,.786-.248,1.475-.675,2.048-1.268,.508-.525,.86-1.163,1.077-1.949,.324-1.181,.42-2.392,.285-3.6-.038-.338-.106-.658-.206-.962-.188,.677-.522,1.322-.896,1.996l-.665,1.198-.264-1.345c-.024-.113-.031-.152-.034-.192-.047-.55-.229-1.11-.555-1.713-.26-.48-.536-.953-.812-1.426l-.273-.47c-.435-.751-.907-1.64-1.006-2.673-.049-.511-.024-.972,.078-1.39-.072,.035-.144,.07-.215,.107-.988,.511-1.759,1.133-2.357,1.901-.814,1.045-1.169,2.147-1.085,3.369,.007,.106,.019,.211,.03,.316l.16,1.562-.996-1.003c-.156-.157-.286-.325-.387-.5-.121-.206-.219-.422-.295-.645Z"></path>
        <path class="cls-1" d="M69.387,40.126H32.75v-5.057h36.637v5.057Zm-35.637-1h34.637v-3.057H33.75v3.057Z"></path>
        <path class="cls-1" d="M69.387,69.629H32.75v-5.057h36.637v5.057Zm-35.637-1h34.637v-3.057H33.75v3.057Z"></path>
        <g>
          <path class="cls-1" d="M40.081,65.572h-5.057v-26.446h5.057v26.446Zm-4.057-1h3.057v-24.446h-3.057v24.446Z"></path>
          <path class="cls-1" d="M67.114,65.572h-5.057v-26.446h5.057v26.446Zm-4.058-1h3.058v-24.446h-3.058v24.446Z"></path>
        </g>
        <path class="cls-1" d="M39.734,48.023l-.308-.951c3.647-1.178,7.564-1.774,11.642-1.774s7.995,.597,11.642,1.774l-.308,.951c-3.547-1.145-7.36-1.726-11.334-1.726s-7.787,.581-11.334,1.726Z"></path>
      </g>
    </g>
  </g>
</svg>
