<?xml version="1.0" encoding="UTF-8"?>
<svg xmlns="http://www.w3.org/2000/svg" id="Ebene_2" data-name="Ebene 2" viewBox="0 0 106.516 106.575">
  <defs>
    <style>
      .cls-1 {
        fill: #d5c7a3;
      }
    </style>
  </defs>
  <g id="Ebene_2-2" data-name="Ebene 2">
    <g>
      <path class="cls-1" d="M51.043,70.25l-.294-.217c-.1-.073-2.461-1.833-3.122-4.241l.964-.266c.441,1.606,1.841,2.939,2.457,3.463,.622-.522,2.042-1.856,2.487-3.471l.964,.266c-.666,2.419-3.058,4.178-3.159,4.251l-.295,.215Z"></path>
      <path class="cls-1" d="M58.997,67.507h-.032c-4.327-.014-7.756-3.134-7.9-3.267l.678-.735c.032,.03,3.294,2.989,7.226,3.002h.028c3.07,0,5.739-1.794,6.768-2.586-.742-.578-2.341-1.687-4.328-2.26l.277-.961c2.982,.86,5.087,2.773,5.175,2.854l.402,.37-.404,.367c-.145,.132-3.578,3.215-7.891,3.215Z"></path>
      <path class="cls-1" d="M43.141,67.507c-4.313,0-7.746-3.083-7.891-3.215l-.404-.367,.402-.37c.091-.084,2.275-2.068,5.347-2.902l.262,.965c-2.059,.559-3.723,1.711-4.484,2.304,1.028,.792,3.698,2.586,6.768,2.586h.027c3.943-.013,7.193-2.972,7.226-3.001l.679,.734c-.144,.133-3.573,3.253-7.901,3.267h-.031Z"></path>
      <path class="cls-1" d="M49.784,64.269c-1.994,0-7.238-.344-10.598-3.705-4.14-4.139-3.701-11.136-3.68-11.432l.03-.435,.435-.029c.241-.016,6.017-.37,10.194,2.647l-.586,.811c-3.237-2.339-7.683-2.507-9.09-2.474-.021,1.583,.163,6.963,3.404,10.204,3.821,3.821,10.587,3.396,10.655,3.391h1.008c.103,.004,6.876,.423,10.689-3.391,3.241-3.241,3.425-8.621,3.405-10.204-1.409-.036-5.853,.135-9.09,2.474l-.586-.811c4.177-3.018,9.952-2.662,10.194-2.647l.435,.029,.031,.435c.021,.296,.458,7.293-3.681,11.432-4.139,4.14-11.136,3.702-11.431,3.682h-.938c-.049,.005-.337,.023-.799,.023Z"></path>
      <path class="cls-1" d="M59.899,49.997c-.283-2.279-1.028-4.206-1.378-5.017-.73,.291-2.306,.986-3.914,2.123l-.577-.816c2.311-1.635,4.5-2.382,4.592-2.413l.413-.14,.194,.391c.051,.104,1.268,2.572,1.662,5.749l-.992,.123Z"></path>
      <path class="cls-1" d="M42.253,49.884l-.991-.131c.409-3.119,1.596-5.527,1.647-5.628l.194-.391,.413,.14c.092,.031,2.281,.778,4.592,2.413l-.577,.816c-1.607-1.137-3.183-1.832-3.913-2.123-.345,.798-1.073,2.679-1.365,4.903Z"></path>
      <path class="cls-1" d="M51.069,64.059l-.328-.285c-.224-.194-5.48-4.833-5.48-10.687s5.257-10.491,5.48-10.686l.328-.285,.328,.285c.224,.194,5.481,4.832,5.481,10.686s-5.257,10.492-5.481,10.687l-.328,.285Zm0-20.595c-1.133,1.104-4.809,5.038-4.809,9.623s3.675,8.521,4.809,9.624c1.133-1.104,4.809-5.039,4.809-9.624s-3.676-8.52-4.809-9.623Z"></path>
      <path class="cls-1" d="M51.069,106.575C22.909,106.575,0,83.666,0,55.506c0-9.467,2.61-18.711,7.547-26.731,.144-.236,.451-.311,.688-.164,.235,.145,.308,.453,.164,.688C3.559,37.162,1,46.225,1,55.506c0,27.608,22.461,50.069,50.069,50.069,9.689,0,19.09-2.772,27.186-8.017,.232-.147,.541-.084,.691,.148,.15,.231,.084,.541-.147,.691-8.258,5.35-17.847,8.177-27.73,8.177Z"></path>
      <g>
        <path class="cls-1" d="M15.098,21.183c.522,.452,.767,.993,.731,1.626s-.334,1.273-.896,1.924c-.609,.703-1.168,1.168-1.678,1.389l-.666-.576c.312-.154,.625-.35,.932-.585,.309-.235,.584-.494,.828-.775,.397-.461,.61-.883,.637-1.267,.027-.385-.116-.711-.428-.98-.205-.178-.41-.282-.612-.313-.202-.03-.443,.003-.722,.101-.279,.098-.659,.283-1.143,.557-.676,.381-1.25,.574-1.727,.576-.476,.003-.932-.184-1.368-.562-.458-.396-.673-.882-.646-1.461,.026-.577,.284-1.15,.774-1.716,.511-.591,1.088-1.04,1.733-1.349l.415,.735c-.629,.312-1.145,.7-1.545,1.164-.316,.365-.484,.719-.506,1.06-.021,.343,.107,.634,.387,.876,.207,.178,.408,.285,.604,.323,.197,.037,.429,.014,.693-.072,.267-.085,.625-.256,1.079-.513,.761-.431,1.369-.652,1.826-.666,.457-.016,.89,.153,1.296,.505Z"></path>
        <path class="cls-1" d="M19.373,12.766c.506,.612,.687,1.257,.541,1.933-.145,.675-.607,1.335-1.386,1.978l-.712,.589,1.969,2.381-.704,.581-5.004-6.052,1.569-1.297c1.512-1.251,2.754-1.288,3.727-.112Zm-2.057,3.895l.634-.523c.623-.516,.991-.988,1.104-1.422,.111-.432-.016-.869-.384-1.313-.33-.4-.708-.591-1.132-.569s-.914,.261-1.469,.72l-.786,.649,2.032,2.459Z"></path>
        <path class="cls-1" d="M29.984,12.774l-2.076-1.697-2.742,1.543,.381,2.65-.806,.453-1.159-8.395,.671-.376,6.556,5.358-.824,.463Zm-2.727-2.274l-1.988-1.673c-.254-.211-.545-.48-.873-.809,.1,.338,.186,.723,.26,1.153l.387,2.573,2.215-1.245Z"></path>
        <path class="cls-1" d="M37.877,9.713l-5.095,1.782-.236-.675,1.85-7.338-3.812,1.333-.271-.775,4.863-1.7,.234,.674-1.852,7.334,4.047-1.416,.272,.781Z"></path>
        <path class="cls-1" d="M41.185,8.968l-1.551-7.698,.896-.181,1.551,7.698-.896,.181Z"></path>
        <path class="cls-1" d="M52.613,3.897c.05,1.256-.229,2.256-.834,3-.607,.745-1.476,1.14-2.605,1.186-1.156,.045-2.062-.272-2.719-.953-.656-.683-1.01-1.668-1.061-2.955-.051-1.277,.225-2.279,.826-3.008S47.703,.051,48.862,.004c1.126-.045,2.021,.277,2.683,.968,.661,.69,1.018,1.665,1.068,2.925Zm-6.252,.25c.041,1.062,.301,1.859,.774,2.39,.476,.532,1.144,.78,2.005,.745,.87-.034,1.516-.334,1.938-.899s.611-1.38,.568-2.446c-.041-1.057-.295-1.848-.758-2.376s-1.129-.774-1.994-.739c-.871,.033-1.52,.335-1.95,.902-.431,.566-.626,1.375-.583,2.424Z"></path>
        <path class="cls-1" d="M68.015,6.672c-.344,1.25-.946,2.112-1.807,2.587-.861,.474-1.928,.536-3.201,.187l-2.098-.578,2.083-7.57,2.32,.638c1.177,.323,2.003,.901,2.476,1.734,.473,.832,.548,1.833,.227,3.003Zm-.941-.226c.271-.987,.229-1.799-.129-2.437-.357-.636-1.025-1.09-2.002-1.358l-1.279-.352-1.664,6.049,1.072,.295c1.049,.288,1.909,.248,2.58-.123,.67-.37,1.144-1.062,1.422-2.074Z"></path>
        <path class="cls-1" d="M70.207,11.94l3.227-7.16,.832,.375-3.226,7.16-.833-.375Z"></path>
        <path class="cls-1" d="M81.357,18.819l2.447-7.039-.033-.028c-.317,.454-.719,.972-1.209,1.552l-3.217,3.82-.646-.543,5.061-6.006,1.05,.886-2.271,6.557,.033,.027,6.092-3.338,1.044,.879-5.06,6.005-.697-.588,3.259-3.869c.373-.444,.798-.91,1.274-1.398l-.031-.027-6.533,3.586-.562-.475Z"></path>
        <path class="cls-1" d="M89.845,27.832l-2.725-3.428,6.148-4.885,2.723,3.426-.635,.505-2.156-2.712-1.98,1.574,2.025,2.549-.631,.5-2.025-2.548-2.262,1.798,2.156,2.713-.639,.508Z"></path>
        <path class="cls-1" d="M98.211,34.298c-1.146,.606-2.185,.761-3.12,.46-.937-.3-1.713-1.033-2.333-2.201l-1.019-1.922,6.936-3.68,1.129,2.126c.572,1.079,.718,2.076,.438,2.991-.281,.914-.957,1.656-2.03,2.226Zm-.481-.839c.904-.48,1.467-1.068,1.684-1.766,.218-.698,.09-1.494-.385-2.389l-.622-1.173-5.542,2.94,.521,.981c.511,.962,1.13,1.56,1.859,1.792,.731,.234,1.559,.104,2.485-.387Z"></path>
        <path class="cls-1" d="M95.882,39.508l7.422-2.562,.299,.863-7.422,2.562-.299-.863Z"></path>
        <path class="cls-1" d="M97.808,46.618l-.178-.896,6.906-1.375-.486-2.439,.797-.158,1.148,5.773-.795,.158-.486-2.438-6.906,1.375Z"></path>
        <path class="cls-1" d="M98.687,56.863l2.473-1.039-.077-3.146-2.521-.905-.022-.924,7.959,2.91,.019,.768-7.806,3.281-.023-.945Zm3.287-1.344l2.41-.973c.305-.125,.68-.256,1.124-.393-.346-.07-.728-.174-1.142-.311l-2.455-.863,.062,2.539Z"></path>
        <path class="cls-1" d="M97.706,65.289l.803-5.338,.706,.105,5.627,5.062,.6-3.994,.813,.122-.767,5.093-.706-.105-5.621-5.061-.638,4.238-.817-.123Z"></path>
        <path class="cls-1" d="M96.818,68.583l7.531,2.223-.258,.876-7.531-2.223,.258-.876Z"></path>
        <path class="cls-1" d="M95.973,81.022c-1.133-.542-1.888-1.256-2.262-2.14-.374-.886-.317-1.837,.171-2.858,.5-1.042,1.205-1.694,2.113-1.955,.91-.262,1.945-.113,3.107,.443,1.154,.552,1.912,1.264,2.273,2.137,.362,.872,.294,1.832-.208,2.878-.487,1.018-1.19,1.657-2.11,1.919s-1.947,.121-3.085-.424Zm2.704-5.643c-.959-.459-1.785-.604-2.477-.433s-1.223,.646-1.596,1.423c-.377,.785-.413,1.496-.111,2.133,.303,.639,.936,1.188,1.898,1.648,.951,.457,1.77,.603,2.453,.439s1.213-.635,1.588-1.416c.375-.785,.412-1.5,.113-2.146-.301-.646-.924-1.195-1.869-1.648Z"></path>
        <path class="cls-1" d="M86.894,86.954l.637-.824,7.84,.63,.025-.035c-.646-.428-1.226-.837-1.736-1.231l-3.533-2.728,.516-.667,6.217,4.798-.631,.816-7.812-.621-.026,.033c.082,.055,.338,.23,.768,.531,.431,.301,.733,.523,.908,.666l3.566,2.755-.521,.675-6.217-4.798Z"></path>
        <path class="cls-1" d="M80.958,92.596l3.262-2.918,5.235,5.854-3.263,2.918-.541-.604,2.582-2.31-1.686-1.886-2.426,2.169-.538-.601,2.427-2.169-1.926-2.154-2.583,2.31-.544-.608Z"></path>
      </g>
    </g>
  </g>
</svg>
