<?xml version="1.0" encoding="UTF-8"?>
<svg xmlns="http://www.w3.org/2000/svg" id="Ebene_2" data-name="Ebene 2" viewBox="0 0 106.483 106.427">
  <defs>
    <style>
      .cls-1 {
        fill: #d5c7a3;
      }
    </style>
  </defs>
  <g id="Ebene_2-2" data-name="Ebene 2">
    <g>
      <g>
        <path class="cls-1" d="M51.043,70.102l-.294-.217c-.1-.073-2.461-1.833-3.122-4.241l.964-.266c.441,1.606,1.841,2.939,2.457,3.463,.622-.522,2.042-1.856,2.487-3.471l.964,.266c-.666,2.419-3.058,4.178-3.159,4.251l-.295,.215Z"></path>
        <path class="cls-1" d="M58.995,67.359h-.029c-4.328-.014-7.757-3.134-7.901-3.267l.678-.735c.032,.03,3.294,2.989,7.226,3.002h.026c3.071,0,5.741-1.794,6.77-2.586-.742-.578-2.341-1.688-4.328-2.26l.277-.961c2.982,.859,5.087,2.773,5.175,2.854l.402,.37-.404,.368c-.145,.131-3.579,3.214-7.893,3.214Z"></path>
        <path class="cls-1" d="M43.143,67.359c-4.314,0-7.748-3.083-7.893-3.214l-.404-.368,.402-.37c.091-.084,2.275-2.069,5.347-2.902l.262,.965c-2.059,.559-3.723,1.71-4.484,2.304,1.029,.791,3.699,2.586,6.77,2.586h.026c3.942-.013,7.193-2.972,7.225-3.001l.679,.734c-.144,.133-3.573,3.253-7.901,3.267h-.029Z"></path>
        <path class="cls-1" d="M49.784,64.12c-1.994,0-7.238-.344-10.598-3.705-4.14-4.139-3.701-11.136-3.68-11.432l.03-.435,.435-.029c.242-.013,6.017-.37,10.194,2.647l-.586,.811c-3.238-2.339-7.686-2.497-9.09-2.474-.021,1.583,.163,6.963,3.404,10.204,3.821,3.821,10.587,3.397,10.655,3.391h1.008c.103,.004,6.876,.423,10.689-3.391,3.241-3.241,3.425-8.621,3.405-10.204-1.418-.021-5.853,.136-9.09,2.474l-.586-.811c4.178-3.018,9.952-2.661,10.194-2.647l.435,.029,.031,.435c.021,.296,.458,7.293-3.681,11.432-4.139,4.141-11.136,3.704-11.431,3.682h-.938c-.049,.005-.337,.023-.799,.023Z"></path>
        <path class="cls-1" d="M59.899,49.85c-.282-2.274-1.029-4.205-1.379-5.017-.73,.291-2.306,.985-3.913,2.122l-.577-.816c2.311-1.635,4.5-2.382,4.592-2.412l.413-.139,.194,.39c.052,.104,1.269,2.571,1.662,5.749l-.992,.123Z"></path>
        <path class="cls-1" d="M42.253,49.736l-.991-.131c.409-3.12,1.597-5.527,1.647-5.628l.194-.39,.413,.139c.092,.03,2.281,.777,4.592,2.412l-.577,.816c-1.607-1.137-3.184-1.831-3.913-2.122-.345,.798-1.073,2.678-1.365,4.903Z"></path>
        <path class="cls-1" d="M51.069,63.91l-.328-.285c-.224-.194-5.48-4.832-5.48-10.686s5.257-10.491,5.48-10.686l.328-.285,.328,.285c.224,.194,5.481,4.832,5.481,10.686s-5.257,10.491-5.481,10.686l-.328,.285Zm0-20.594c-1.133,1.104-4.809,5.038-4.809,9.623s3.675,8.52,4.809,9.623c1.133-1.104,4.809-5.038,4.809-9.623s-3.676-8.52-4.809-9.623Z"></path>
      </g>
      <path class="cls-1" d="M51.069,106.427C22.909,106.427,0,83.518,0,55.358c0-15.1,6.63-29.344,18.191-39.08,.212-.177,.527-.149,.705,.061,.178,.211,.151,.526-.06,.705C7.5,26.59,1,40.555,1,55.358c0,27.607,22.461,50.068,50.069,50.068,15.01,0,29.1-6.65,38.656-18.245,.175-.211,.491-.245,.704-.067,.213,.176,.244,.49,.068,.704-9.747,11.826-24.118,18.608-39.428,18.608Z"></path>
      <g>
        <path class="cls-1" d="M28.648,13.387l-5.588-4.931-.038,.02c.3,.466,.626,1.034,.978,1.706l2.317,4.427-.747,.391-3.643-6.957,1.219-.638,5.207,4.585,.039-.019-.783-6.902,1.209-.633,3.642,6.956-.809,.424-2.347-4.482c-.27-.515-.539-1.084-.811-1.71l-.038,.02,.845,7.403-.652,.341Z"></path>
        <path class="cls-1" d="M40.208,8.977l-4.209,1.207-2.166-7.549,4.209-1.206,.223,.778-3.33,.957,.699,2.432,3.128-.898,.222,.775-3.129,.896,.798,2.778,3.329-.956,.227,.785Z"></path>
        <path class="cls-1" d="M49.41,3.707c.125,1.29-.13,2.31-.764,3.061-.637,.75-1.609,1.188-2.926,1.315l-2.166,.208-.754-7.816,2.396-.23c1.215-.117,2.191,.129,2.93,.736,.739,.609,1.167,1.518,1.283,2.727Zm-.959,.124c-.098-1.019-.428-1.763-.99-2.229-.561-.468-1.346-.652-2.354-.555l-1.32,.127,.602,6.244,1.107-.107c1.083-.104,1.871-.449,2.365-1.033,.494-.587,.691-1.4,.59-2.446Z"></path>
        <path class="cls-1" d="M53.326,7.84l.445-7.84,.911,.051-.444,7.84-.912-.051Z"></path>
        <path class="cls-1" d="M60.638,8.754l-.896-.175,1.343-6.912-2.441-.474,.156-.797,5.777,1.123-.154,.797-2.441-.476-1.344,6.913Z"></path>
        <path class="cls-1" d="M70.465,11.834l-.021-2.682-2.94-1.125-1.795,1.987-.862-.331,5.716-6.255,.718,.274,.066,8.469-.882-.338Zm.007-3.552l.017-2.599c0-.33,.021-.727,.063-1.188-.195,.292-.438,.604-.721,.937l-1.732,1.943,2.373,.907Z"></path>
        <path class="cls-1" d="M75.849,14.736l-.783-.468,3.614-6.044-2.134-1.275,.416-.697,5.053,3.021-.416,.697-2.135-1.277-3.615,6.043Z"></path>
        <path class="cls-1" d="M80.414,17.91l4.91-6.129,.713,.571-4.91,6.128-.713-.57Z"></path>
        <path class="cls-1" d="M91.635,23.409c-.93,.846-1.875,1.275-2.835,1.29-.96,.014-1.82-.398-2.582-1.234-.778-.856-1.117-1.754-1.017-2.695,.101-.94,.628-1.845,1.582-2.712,.946-.86,1.89-1.294,2.835-1.3,.945-.008,1.807,.418,2.588,1.275,.758,.836,1.086,1.728,.982,2.679-.104,.95-.621,1.849-1.554,2.697Zm-4.21-4.63c-.787,.717-1.23,1.426-1.333,2.131s.138,1.377,.718,2.016c.586,.643,1.23,.946,1.934,.904,.705-.039,1.451-.418,2.24-1.137,.782-.709,1.227-1.412,1.333-2.106s-.132-1.362-.716-2.005-1.232-.947-1.944-.913-1.455,.405-2.231,1.11Z"></path>
        <path class="cls-1" d="M93.713,34.026l-.526-.899,3.525-7.031-.022-.037c-.639,.439-1.237,.822-1.793,1.147l-3.853,2.253-.426-.729,6.779-3.963,.521,.891-3.507,7.008,.021,.037c.08-.055,.34-.227,.781-.512,.439-.287,.758-.484,.957-.592l3.891-2.273,.432,.738-6.78,3.962Z"></path>
        <path class="cls-1" d="M98.681,40.992c-.651,.232-1.242,.178-1.775-.165-.532-.342-.943-.918-1.232-1.728-.312-.877-.439-1.592-.382-2.144l.829-.297c-.02,.35-.003,.716,.051,1.101,.053,.383,.143,.751,.267,1.102,.206,.574,.468,.967,.788,1.18,.322,.211,.676,.248,1.063,.11,.257-.091,.448-.218,.575-.379s.217-.388,.27-.677c.052-.291,.077-.714,.077-1.269,0-.776,.117-1.372,.351-1.786,.231-.416,.619-.721,1.162-.914,.57-.203,1.1-.151,1.59,.156,.49,.309,.86,.815,1.112,1.521,.262,.735,.368,1.46,.317,2.173l-.844-.002c.039-.701-.045-1.34-.25-1.918-.162-.455-.387-.775-.675-.962-.286-.187-.604-.218-.951-.095-.257,.092-.45,.215-.579,.367-.131,.152-.223,.365-.279,.639-.058,.272-.086,.67-.086,1.191,0,.873-.107,1.514-.32,1.918s-.572,.697-1.078,.877Z"></path>
        <path class="cls-1" d="M103.88,48.881c-.783,.137-1.433-.025-1.947-.486s-.859-1.188-1.033-2.184l-.158-.91-3.043,.531-.156-.898,7.734-1.352,.352,2.006c.336,1.932-.246,3.029-1.748,3.293Zm-2.367-3.715l.143,.811c.139,.796,.367,1.35,.688,1.662,.32,.311,.764,.417,1.332,.318,.512-.09,.863-.323,1.055-.703,.191-.379,.227-.922,.103-1.631l-.175-1.006-3.145,.549Z"></path>
        <path class="cls-1" d="M98.625,53.227l7.852-.06,.007,.913-7.024,.053,.025,3.465-.826,.006-.033-4.377Z"></path>
        <path class="cls-1" d="M97.619,65.505l2.621-.565,.504-3.107-2.311-1.354,.146-.912,7.287,4.324-.122,.759-8.276,1.788,.15-.933Zm3.479-.716l2.547-.512c.324-.068,.717-.127,1.178-.181-.326-.132-.682-.304-1.064-.515l-2.254-1.301-.406,2.508Z"></path>
        <path class="cls-1" d="M95.865,71.406l.299-.862,6.652,2.307,.815-2.35,.767,.265-1.929,5.562-.767-.266,.814-2.35-6.652-2.307Z"></path>
        <path class="cls-1" d="M91.521,80.555l2.592-4.734,.627,.344,3.539,6.688,1.939-3.542,.721,.394-2.474,4.519-.626-.344-3.535-6.686-2.059,3.76-.725-.398Z"></path>
      </g>
    </g>
  </g>
</svg>
