<?xml version="1.0" encoding="UTF-8"?>
<svg xmlns="http://www.w3.org/2000/svg" id="Ebene_2" data-name="Ebene 2" viewBox="0 0 106.486 106.504">
  <defs>
    <style>
      .cls-1 {
        fill: #d5c7a3;
      }
    </style>
  </defs>
  <g id="Ebene_2-2" data-name="Ebene 2">
    <g>
      <g>
        <path class="cls-1" d="M51.043,70.179l-.294-.217c-.1-.073-2.461-1.833-3.122-4.241l.964-.266c.441,1.606,1.841,2.939,2.457,3.463,.622-.522,2.042-1.856,2.487-3.471l.964,.266c-.666,2.419-3.058,4.178-3.159,4.251l-.295,.215Z"></path>
        <path class="cls-1" d="M58.995,67.437h-.029c-4.328-.014-7.757-3.134-7.901-3.267l.678-.735c.032,.03,3.294,2.989,7.226,3.002h.026c3.071,0,5.741-1.794,6.77-2.586-.742-.578-2.341-1.688-4.328-2.26l.277-.961c2.982,.859,5.087,2.773,5.175,2.854l.402,.37-.404,.368c-.145,.131-3.579,3.214-7.893,3.214Z"></path>
        <path class="cls-1" d="M43.143,67.437c-4.314,0-7.748-3.083-7.893-3.214l-.404-.368,.402-.37c.091-.084,2.275-2.069,5.347-2.902l.262,.965c-2.059,.559-3.723,1.71-4.484,2.304,1.032,.793,3.706,2.627,6.795,2.586,3.942-.013,7.193-2.972,7.225-3.001l.679,.734c-.144,.133-3.573,3.253-7.901,3.267h-.029Z"></path>
        <path class="cls-1" d="M49.784,64.197c-1.994,0-7.238-.344-10.598-3.705-4.14-4.139-3.701-11.136-3.68-11.432l.03-.435,.435-.029c.242-.013,6.017-.37,10.194,2.647l-.586,.811c-3.238-2.339-7.686-2.484-9.09-2.474-.021,1.583,.163,6.963,3.404,10.204,3.821,3.821,10.587,3.396,10.655,3.391h1.008c.103,.004,6.876,.423,10.689-3.391,3.241-3.241,3.425-8.621,3.405-10.204-1.418-.021-5.853,.136-9.09,2.474l-.586-.811c4.178-3.018,9.952-2.662,10.194-2.647l.435,.029,.031,.435c.021,.296,.458,7.293-3.681,11.432-4.139,4.141-11.136,3.703-11.431,3.682h-.938c-.049,.005-.337,.023-.799,.023Z"></path>
        <path class="cls-1" d="M59.899,49.927c-.282-2.274-1.029-4.205-1.379-5.017-.73,.291-2.306,.985-3.913,2.122l-.577-.816c2.311-1.635,4.5-2.382,4.592-2.412l.413-.139,.194,.39c.052,.104,1.269,2.571,1.662,5.749l-.992,.123Z"></path>
        <path class="cls-1" d="M42.253,49.813l-.991-.131c.409-3.12,1.597-5.527,1.647-5.628l.194-.39,.413,.139c.092,.03,2.281,.777,4.592,2.412l-.577,.816c-1.607-1.137-3.184-1.831-3.913-2.122-.345,.798-1.073,2.678-1.365,4.903Z"></path>
        <path class="cls-1" d="M51.069,63.987l-.328-.285c-.224-.194-5.48-4.832-5.48-10.686s5.257-10.491,5.48-10.686l.328-.285,.328,.285c.224,.194,5.481,4.832,5.481,10.686s-5.257,10.491-5.481,10.686l-.328,.285Zm0-20.594c-1.133,1.104-4.809,5.038-4.809,9.623s3.675,8.52,4.809,9.623c1.133-1.104,4.809-5.038,4.809-9.623s-3.676-8.52-4.809-9.623Z"></path>
      </g>
      <path class="cls-1" d="M51.069,106.504C22.909,106.504,0,83.595,0,55.436c0-15.1,6.63-29.344,18.191-39.08,.212-.177,.527-.15,.705,.061,.178,.211,.151,.526-.06,.705C7.5,26.667,1,40.632,1,55.436c0,27.607,22.461,50.068,50.069,50.068,15.01,0,29.1-6.65,38.656-18.245,.175-.211,.491-.244,.704-.067,.213,.176,.244,.49,.068,.704-9.747,11.826-24.118,18.608-39.428,18.608Z"></path>
      <g>
        <path class="cls-1" d="M32.935,11.418l-5.061-5.474-.039,.016c.252,.494,.518,1.093,.8,1.798l1.856,4.638-.783,.312-2.918-7.29,1.277-.511,4.715,5.09,.04-.016-.077-6.945,1.266-.508,2.918,7.291-.848,.338-1.88-4.696c-.216-.538-.427-1.134-.633-1.783l-.04,.016,.089,7.45-.683,.274Z"></path>
        <path class="cls-1" d="M44.851,8.2l-4.307,.781-1.4-7.727,4.307-.781,.145,.799-3.408,.617,.451,2.489,3.203-.581,.143,.794-3.202,.58,.515,2.843,3.409-.617,.146,.803Z"></path>
        <path class="cls-1" d="M54.548,3.874c-.006,1.297-.36,2.286-1.066,2.969-.707,.684-1.721,1.023-3.041,1.018l-2.176-.008,.029-7.853,2.406,.009c1.221,.004,2.169,.347,2.843,1.025,.674,.68,1.01,1.626,1.005,2.84Zm-.967,.029c.004-1.025-.25-1.797-.763-2.318s-1.274-.783-2.288-.787l-1.326-.005-.023,6.272,1.112,.005c1.089,.005,1.907-.261,2.457-.794s.827-1.324,.831-2.373Z"></path>
        <path class="cls-1" d="M58.036,8.378l1.227-7.756,.901,.143-1.227,7.756-.901-.143Z"></path>
        <path class="cls-1" d="M65.205,10.015l-.875-.263,2.029-6.743-2.381-.717,.233-.776,5.638,1.696-.234,.777-2.381-.717-2.029,6.742Z"></path>
        <path class="cls-1" d="M74.658,14.061l.248-2.671-2.812-1.414-1.985,1.797-.826-.416,6.316-5.648,.687,.346-.783,8.432-.845-.425Zm.363-3.533l.277-2.583c.033-.328,.095-.721,.184-1.177-.225,.272-.495,.559-.812,.86l-1.918,1.758,2.27,1.142Z"></path>
        <path class="cls-1" d="M79.746,17.508l-.732-.545,4.205-5.648-1.994-1.485,.484-.65,4.721,3.516-.484,.65-1.994-1.484-4.205,5.647Z"></path>
        <path class="cls-1" d="M83.985,21.141l5.462-5.642,.656,.635-5.463,5.643-.655-.636Z"></path>
        <path class="cls-1" d="M94.594,27.718c-1.01,.748-1.993,1.081-2.95,1-.956-.083-1.771-.579-2.445-1.488-.688-.929-.936-1.857-.742-2.783,.194-.926,.81-1.771,1.846-2.539,1.026-.762,2.01-1.098,2.951-1.012,.94,.089,1.756,.598,2.447,1.529,.671,.907,.908,1.828,.709,2.764-.197,.936-.803,1.779-1.815,2.529Zm-3.726-5.028c-.854,.634-1.367,1.296-1.539,1.987s-.002,1.383,.512,2.076c.519,.699,1.13,1.064,1.834,1.095,.705,.031,1.486-.272,2.344-.907,.848-.629,1.36-1.283,1.535-1.963,.176-.681,.006-1.369-.51-2.066-.519-.698-1.133-1.066-1.844-1.104-.712-.036-1.488,.258-2.332,.882Z"></path>
        <path class="cls-1" d="M95.585,38.489l-.432-.947,4.219-6.639-.018-.039c-.681,.373-1.314,.693-1.9,.961l-4.062,1.85-.35-.768,7.146-3.255,.428,.938-4.197,6.617,.018,.039c.085-.047,.361-.189,.827-.431,.467-.24,.805-.403,1.013-.491l4.101-1.868,.354,.777-7.146,3.255Z"></path>
        <path class="cls-1" d="M98.511,51.753l2.352-1.293-.408-3.121-2.602-.636-.119-.915,8.219,2.057,.101,.763-7.419,4.082-.123-.937Zm3.129-1.682l2.294-1.221c.29-.156,.649-.326,1.077-.509-.352-.033-.74-.097-1.168-.188l-2.532-.602,.329,2.52Z"></path>
        <path class="cls-1" d="M101.86,56.503l-3.263-.158,.045-.912,7.844,.379-.104,2.152c-.048,.962-.267,1.664-.657,2.105-.391,.442-.956,.645-1.696,.609-1.037-.051-1.713-.609-2.026-1.679l-3.628,1.958,.052-1.078,3.354-1.74,.079-1.637Zm.782,.037l-.061,1.25c-.03,.645,.074,1.123,.315,1.436s.618,.481,1.13,.507c.518,.024,.899-.109,1.143-.405,.244-.294,.383-.779,.415-1.455l.058-1.186-3-.146Z"></path>
        <path class="cls-1" d="M96.915,68.193l.954-4.272,7.664,1.713-.955,4.271-.791-.177,.756-3.382-2.47-.551-.71,3.176-.785-.174,.709-3.178-2.82-.631-.754,3.383-.798-.179Z"></path>
        <path class="cls-1" d="M93.988,76.028l2.682,.055,1.207-2.908-1.937-1.85,.354-.854,6.093,5.89-.293,.71-8.467-.17,.361-.873Zm3.551,.105l2.597,.09c.329,.008,.725,.041,1.187,.098-.287-.205-.593-.454-.916-.748l-1.895-1.785-.973,2.346Z"></path>
      </g>
    </g>
  </g>
</svg>
