<?xml version="1.0" encoding="UTF-8"?>
<svg xmlns="http://www.w3.org/2000/svg" id="Ebene_2" data-name="Ebene 2" viewBox="0 0 106.308 106.088">
  <defs>
    <style>
      .cls-1 {
        fill: #d5c7a3;
      }
    </style>
  </defs>
  <g id="Ebene_2-2" data-name="Ebene 2">
    <g>
      <g>
        <path class="cls-1" d="M12.471,20.727c.995,.768,1.583,1.623,1.765,2.565,.182,.943-.073,1.862-.764,2.759-.707,.916-1.532,1.406-2.476,1.472-.944,.065-1.926-.295-2.947-1.083-1.012-.78-1.604-1.635-1.776-2.563-.172-.93,.097-1.853,.805-2.771,.689-.893,1.511-1.372,2.465-1.437s1.931,.289,2.929,1.059Zm-3.822,4.954c.842,.649,1.619,.963,2.331,.94,.712-.023,1.331-.376,1.858-1.06,.531-.688,.716-1.376,.553-2.062-.162-.687-.666-1.355-1.511-2.007-.836-.646-1.605-.96-2.309-.943-.702,.017-1.318,.368-1.848,1.055-.531,.688-.718,1.38-.56,2.074,.159,.695,.653,1.362,1.484,2.003Z"></path>
        <path class="cls-1" d="M18.72,20.133l-.68,.609-5.238-5.851,3.261-2.92,.541,.604-2.581,2.311,1.917,2.141,2.425-2.171,.541,.604-2.425,2.171,2.239,2.501Z"></path>
        <path class="cls-1" d="M24.602,6.223l2.664,4.326c.47,.763,.608,1.504,.417,2.223-.192,.72-.69,1.327-1.495,1.823-.806,.496-1.563,.66-2.274,.492s-1.303-.636-1.776-1.404l-2.653-4.308,.777-.479,2.688,4.362c.344,.559,.76,.893,1.249,1.004,.489,.11,1.029-.016,1.62-.38,.564-.348,.906-.766,1.026-1.254,.12-.487,.007-1.013-.339-1.573l-2.682-4.354,.778-.479Z"></path>
        <path class="cls-1" d="M31.783,7.949l1.154,3.055-.854,.322-2.776-7.346,2.015-.761c.901-.341,1.633-.42,2.193-.237,.561,.182,.972,.62,1.234,1.313,.367,.971,.123,1.813-.733,2.527l3.242,2.547-1.01,.382-2.933-2.383-1.532,.58Zm-.277-.734l1.17-.442c.604-.228,1-.515,1.191-.86,.19-.346,.195-.758,.015-1.237-.184-.485-.459-.781-.827-.888-.367-.105-.867-.039-1.5,.2l-1.11,.419,1.062,2.809Z"></path>
        <path class="cls-1" d="M46.111,3.621c.207,1.24,.056,2.268-.453,3.081-.509,.814-1.321,1.314-2.438,1.501-1.141,.189-2.079-.013-2.815-.606-.735-.595-1.21-1.527-1.422-2.8-.21-1.261-.062-2.29,.444-3.087,.507-.798,1.332-1.292,2.476-1.482,1.113-.186,2.041,.023,2.783,.625,.743,.603,1.218,1.525,1.425,2.769Zm-6.172,1.028c.175,1.049,.53,1.808,1.067,2.275s1.231,.631,2.083,.488c.857-.143,1.461-.521,1.809-1.134,.349-.613,.435-1.446,.26-2.499-.174-1.042-.523-1.796-1.05-2.262-.525-.466-1.216-.628-2.07-.486-.858,.144-1.466,.523-1.822,1.14s-.449,1.442-.276,2.478Z"></path>
        <path class="cls-1" d="M59.905,8.199l-.641-2.604-3.12-.415-1.287,2.349-.916-.121L58.057,0l.762,.102,2.023,8.223-.937-.125Zm-.814-3.456l-.585-2.532c-.077-.32-.148-.711-.213-1.171-.124,.33-.285,.689-.485,1.078l-1.235,2.291,2.519,.334Z"></path>
        <path class="cls-1" d="M71.571,3.427l-1.617,4.817c-.285,.849-.766,1.429-1.441,1.742-.675,.313-1.461,.319-2.357,.019-.896-.301-1.507-.778-1.833-1.432-.327-.653-.347-1.408-.06-2.264l1.611-4.796,.865,.291-1.631,4.857c-.209,.621-.199,1.155,.028,1.602s.671,.78,1.33,1.002c.628,.211,1.167,.206,1.619-.015,.451-.221,.782-.643,.992-1.268l1.628-4.847,.865,.29Z"></path>
        <path class="cls-1" d="M73.285,12.937l-.8-.441,3.796-6.874,3.832,2.116-.393,.71-3.032-1.675-1.39,2.516,2.85,1.573-.392,.71-2.85-1.573-1.622,2.938Z"></path>
        <path class="cls-1" d="M89.896,20.914c-.917,.917-1.866,1.368-2.849,1.355s-1.94-.485-2.875-1.42l-1.538-1.538,5.553-5.553,1.701,1.701c.863,.863,1.295,1.773,1.295,2.73s-.429,1.865-1.287,2.724Zm-.706-.661c.724-.724,1.088-1.451,1.092-2.182,.003-.73-.353-1.454-1.069-2.171l-.938-.938-4.436,4.436,.786,.786c.77,.77,1.537,1.159,2.304,1.168,.766,.009,1.52-.357,2.262-1.1Z"></path>
        <path class="cls-1" d="M91.634,30.045l-2.482-3.605,6.467-4.454,2.483,3.605-.668,.46-1.966-2.854-2.083,1.436,1.847,2.681-.664,.457-1.846-2.681-2.38,1.639,1.965,2.854-.673,.463Z"></path>
        <path class="cls-1" d="M94.727,36.093l5.37-5.169-.018-.04c-.487,.262-1.081,.54-1.78,.837l-4.599,1.949-.329-.776,7.229-3.064,.537,1.266-4.994,4.817,.018,.04,6.942-.219,.532,1.256-7.229,3.064-.356-.841,4.658-1.975c.534-.226,1.124-.449,1.771-.668l-.018-.04-7.446,.24-.288-.678Z"></path>
        <path class="cls-1" d="M106.075,47.76l.189,2.21c.089,1.038-.003,1.802-.273,2.293-.271,.49-.741,.764-1.412,.821-.464,.04-.857-.057-1.181-.29-.324-.232-.552-.593-.683-1.081l-.054,.004c-.102,1.206-.676,1.854-1.721,1.942-.699,.061-1.266-.129-1.698-.568s-.686-1.083-.759-1.933l-.233-2.729,7.824-.669Zm-4.043,1.262l-2.928,.251,.141,1.632c.054,.632,.217,1.097,.488,1.396,.271,.298,.668,.425,1.188,.38,.485-.041,.828-.234,1.028-.581,.201-.346,.272-.853,.215-1.52l-.133-1.558Zm.771-.065l.128,1.498c.056,.643,.195,1.096,.422,1.36,.226,.265,.577,.376,1.056,.336,.438-.038,.741-.222,.909-.553s.222-.838,.163-1.523l-.114-1.338-2.563,.22Z"></path>
        <path class="cls-1" d="M98.183,62.11l2.578-.736,.299-3.133-2.395-1.199,.087-.92,7.556,3.838-.073,.765-8.142,2.327,.09-.941Zm3.424-.941l2.509-.679c.317-.089,.705-.174,1.162-.256-.334-.111-.7-.26-1.096-.444l-2.335-1.15-.24,2.529Z"></path>
        <path class="cls-1" d="M97.45,65.783l7.579,2.055-.239,.881-6.78-1.838-.906,3.344-.799-.217,1.146-4.225Z"></path>
        <path class="cls-1" d="M92.856,78.019l.45-.975,4.658-1.001-.318-1.052-2.793-1.292,.383-.829,7.128,3.296-.384,.828-3.534-1.634,2.04,4.866-.453,.98-1.771-4.298-5.406,1.109Z"></path>
        <path class="cls-1" d="M90.656,88.168c-1.017-.738-1.63-1.576-1.839-2.513-.209-.938,.019-1.864,.684-2.779,.679-.937,1.489-1.451,2.431-1.544s1.935,.239,2.978,.996c1.034,.751,1.651,1.588,1.851,2.512,.199,.923-.042,1.854-.724,2.793-.663,.913-1.47,1.415-2.422,1.508-.952,.092-1.938-.232-2.958-.973Zm3.676-5.063c-.86-.625-1.646-.915-2.357-.872-.711,.044-1.319,.415-1.826,1.113-.512,.704-.676,1.396-.493,2.078,.183,.681,.706,1.335,1.569,1.962,.854,.62,1.633,.912,2.335,.875,.701-.037,1.307-.406,1.815-1.107,.512-.704,.678-1.401,.499-2.09-.179-.69-.692-1.343-1.542-1.959Z"></path>
        <path class="cls-1" d="M80.671,92.383l.773-.699,7.603,2.014,.032-.028c-.562-.536-1.058-1.043-1.49-1.521l-2.992-3.312,.626-.565,5.264,5.827-.765,.691-7.576-2.001-.032,.029c.07,.066,.29,.286,.66,.658,.371,.373,.629,.646,.774,.817l3.021,3.344-.634,.572-5.265-5.826Z"></path>
      </g>
      <path class="cls-1" d="M51.069,106.088C22.909,106.088,0,83.179,0,55.02c0-8.226,1.896-16.079,5.636-23.342,.127-.247,.428-.343,.673-.216,.246,.126,.343,.428,.216,.673-3.666,7.12-5.524,14.819-5.524,22.885,0,27.607,22.461,50.068,50.069,50.068,9.382,0,18.528-2.61,26.45-7.549,.232-.143,.542-.075,.689,.16,.146,.234,.074,.543-.16,.688-8.081,5.038-17.41,7.7-26.979,7.7Z"></path>
      <g>
        <path class="cls-1" d="M68.059,71.389H34.08l-6.257-24.308h46.492l-6.257,24.308Zm-33.203-1h32.428l5.743-22.308H29.112l5.743,22.308Z"></path>
        <rect class="cls-1" x="31.001" y="56.482" width="39.857" height="1"></rect>
        <rect class="cls-1" x="32.52" y="61.073" width="36.82" height="1"></rect>
        <rect class="cls-1" x="29.882" y="38.632" width="1" height="32.774" transform="translate(-12.757 9.312) rotate(-14.437)"></rect>
        <rect class="cls-1" x="55.369" y="54.519" width="32.774" height="1" transform="translate(.552 110.751) rotate(-75.53)"></rect>
        <rect class="cls-1" x="36.425" y="61.467" width="1.001" height="9.527" transform="translate(-13.069 9.217) rotate(-12.106)"></rect>
        <rect class="cls-1" x="33.433" y="47.474" width="1.001" height="9.615" transform="translate(-10.21 8.28) rotate(-12.107)"></rect>
        <rect class="cls-1" x="42.083" y="61.505" width="1.001" height="9.452" transform="translate(-10.589 8.157) rotate(-9.738)"></rect>
        <rect class="cls-1" x="39.689" y="47.512" width="1.001" height="9.539" transform="translate(-8.263 7.55) rotate(-9.737)"></rect>
        <rect class="cls-1" x="46.541" y="47.577" width="1.001" height="9.41" transform="translate(-2.198 2.064) rotate(-2.456)"></rect>
        <rect class="cls-1" x="47.14" y="61.569" width="1.001" height="9.324" transform="translate(-2.793 2.102) rotate(-2.455)"></rect>
        <rect class="cls-1" x="49.836" y="65.73" width="9.324" height="1.001" transform="translate(-14.012 117.835) rotate(-87.54)"></rect>
        <rect class="cls-1" x="50.391" y="51.781" width="9.41" height="1.001" transform="translate(.497 105.083) rotate(-87.54)"></rect>
        <rect class="cls-1" x="54.829" y="65.731" width="9.452" height="1.001" transform="translate(-15.826 113.677) rotate(-80.225)"></rect>
        <rect class="cls-1" x="57.179" y="51.781" width="9.539" height="1.001" transform="translate(-.092 104.454) rotate(-80.225)"></rect>
        <rect class="cls-1" x="60.448" y="65.731" width="9.527" height="1.001" transform="translate(-13.179 116.171) rotate(-77.944)"></rect>
        <rect class="cls-1" x="63.397" y="51.781" width="9.615" height="1.001" transform="translate(2.831 108.062) rotate(-77.944)"></rect>
      </g>
    </g>
  </g>
</svg>
