<?xml version="1.0" encoding="UTF-8"?>
<svg xmlns="http://www.w3.org/2000/svg" id="Ebene_2" data-name="Ebene 2" viewBox="0 0 106.617 106.31">
  <defs>
    <style>
      .cls-1 {
        fill: #d5c7a3;
      }
    </style>
  </defs>
  <g id="Ebene_2-2" data-name="Ebene 2">
    <g>
      <g>
        <path class="cls-1" d="M23.373,11.659c.747,1.01,1.079,1.994,.996,2.95-.083,.957-.579,1.771-1.488,2.444-.931,.688-1.858,.935-2.784,.739-.926-.194-1.771-.811-2.538-1.847-.761-1.027-1.097-2.012-1.008-2.952,.088-.94,.599-1.756,1.531-2.445,.906-.671,1.828-.907,2.763-.708,.936,.199,1.778,.805,2.528,1.818Zm-5.031,3.721c.633,.855,1.295,1.369,1.985,1.541,.691,.173,1.384,.003,2.077-.511,.7-.518,1.065-1.128,1.097-1.833,.03-.704-.271-1.485-.905-2.344-.629-.849-1.282-1.361-1.963-1.537s-1.369-.007-2.065,.509c-.699,.518-1.068,1.132-1.105,1.843-.037,.712,.256,1.489,.88,2.332Z"></path>
        <path class="cls-1" d="M29.524,12.811l-.821,.399-3.436-7.061,3.937-1.915,.354,.729-3.115,1.516,1.258,2.584,2.927-1.424,.354,.729-2.927,1.424,1.469,3.019Z"></path>
        <path class="cls-1" d="M39,1.055l1.369,4.894c.241,.862,.17,1.612-.213,2.251s-1.029,1.086-1.939,1.341-1.685,.203-2.321-.154c-.638-.356-1.077-.97-1.32-1.839l-1.363-4.872,.879-.246,1.381,4.935c.177,.631,.484,1.067,.924,1.309s.993,.269,1.662,.081c.639-.179,1.082-.485,1.332-.922,.25-.436,.286-.972,.108-1.605l-1.378-4.925,.88-.246Z"></path>
        <path class="cls-1" d="M45.434,4.697l.268,3.254-.909,.075-.646-7.826,2.146-.177c.96-.079,1.685,.047,2.173,.376,.489,.33,.765,.864,.825,1.603,.085,1.035-.382,1.778-1.401,2.229l2.415,3.342-1.075,.089-2.163-3.099-1.633,.135Zm-.064-.782l1.247-.103c.643-.053,1.103-.219,1.382-.499,.278-.28,.396-.675,.354-1.186-.042-.518-.226-.878-.55-1.081s-.823-.276-1.497-.222l-1.184,.098,.247,2.992Z"></path>
        <path class="cls-1" d="M60.41,4.452c-.139,1.249-.563,2.196-1.275,2.842-.711,.645-1.629,.905-2.753,.78-1.149-.128-1.998-.578-2.544-1.351-.547-.771-.749-1.799-.606-3.08,.142-1.271,.563-2.221,1.268-2.851,.704-.629,1.633-.88,2.786-.752,1.121,.125,1.957,.578,2.508,1.359,.551,.782,.757,1.8,.617,3.052Zm-6.219-.691c-.117,1.058,.019,1.884,.408,2.48,.389,.597,1.013,.942,1.87,1.037,.865,.097,1.548-.104,2.05-.599s.812-1.273,.93-2.334c.117-1.05-.015-1.871-.394-2.462-.379-.592-1-.936-1.86-1.031-.865-.096-1.553,.104-2.063,.601-.512,.496-.825,1.266-.94,2.308Z"></path>
        <path class="cls-1" d="M72.796,10.505c-.271,.636-.712,1.033-1.324,1.192-.613,.16-1.314,.071-2.105-.266-.856-.364-1.469-.755-1.836-1.173l.345-.81c.243,.251,.524,.487,.843,.708,.318,.222,.648,.405,.991,.551,.561,.238,1.027,.312,1.401,.22,.373-.092,.641-.327,.802-.706,.107-.25,.145-.477,.111-.68-.032-.202-.138-.421-.315-.656s-.472-.541-.879-.918c-.57-.526-.929-1.016-1.077-1.468s-.109-.943,.117-1.474c.236-.557,.635-.911,1.193-1.062s1.182-.08,1.87,.213c.719,.306,1.323,.719,1.813,1.238l-.573,.62c-.489-.504-1.016-.876-1.579-1.116-.445-.189-.833-.241-1.165-.157-.332,.085-.569,.297-.714,.636-.107,.251-.148,.476-.124,.675s.117,.412,.28,.639c.162,.227,.435,.517,.817,.87,.643,.593,1.04,1.104,1.193,1.535,.153,.432,.125,.894-.086,1.389Z"></path>
        <path class="cls-1" d="M84.148,10.669l-2.807,4.235c-.494,.747-1.108,1.184-1.842,1.312-.733,.128-1.494-.069-2.282-.591-.788-.522-1.256-1.142-1.402-1.857-.146-.715,.029-1.449,.528-2.201l2.794-4.218,.762,.504-2.83,4.271c-.362,.547-.491,1.064-.386,1.555,.104,.49,.446,.928,1.025,1.312,.552,.365,1.075,.501,1.568,.404s.922-.419,1.285-.969l2.824-4.262,.762,.504Z"></path>
        <path class="cls-1" d="M82.685,19.653l5.431-5.672,.66,.632-4.859,5.074,2.502,2.396-.572,.598-3.161-3.027Z"></path>
        <path class="cls-1" d="M97.544,24.935l1.129,1.91c.53,.896,.78,1.625,.749,2.185-.031,.559-.337,1.01-.916,1.353-.401,.236-.798,.32-1.19,.251s-.754-.296-1.084-.679l-.047,.027c.432,1.13,.195,1.963-.708,2.496-.604,.357-1.196,.432-1.776,.224-.581-.208-1.088-.679-1.521-1.412l-1.395-2.357,6.76-3.997Zm-3.096,2.892l-2.528,1.495,.833,1.41c.323,.545,.671,.894,1.046,1.045,.374,.15,.786,.093,1.236-.173,.419-.248,.644-.571,.674-.97,.031-.398-.124-.886-.465-1.463l-.796-1.345Zm.666-.394l.766,1.294c.328,.555,.651,.902,.969,1.043,.318,.141,.684,.089,1.097-.155,.38-.224,.573-.521,.581-.892,.007-.371-.164-.853-.514-1.444l-.684-1.155-2.215,1.31Z"></path>
        <path class="cls-1" d="M96.63,41.283l2.01-1.775-1.081-2.956-2.678-.051-.317-.867,8.472,.207,.264,.722-6.344,5.608-.325-.888Zm2.684-2.325l1.972-1.693c.249-.217,.562-.461,.939-.732-.351,.044-.744,.068-1.181,.071l-2.603-.031,.872,2.386Z"></path>
        <path class="cls-1" d="M97.552,44.925l7.726-1.405,.163,.898-6.912,1.257,.62,3.408-.813,.148-.783-4.307Z"></path>
        <path class="cls-1" d="M105.8,55.534c-.015-.862-.312-1.539-.896-2.029s-1.374-.727-2.372-.711c-1.028,.017-1.818,.271-2.37,.761-.553,.491-.822,1.182-.808,2.073,.009,.548,.117,1.171,.326,1.87l-.801,.013c-.213-.541-.325-1.211-.338-2.009-.02-1.157,.317-2.055,1.009-2.694s1.684-.97,2.976-.991c.81-.013,1.521,.127,2.135,.419,.613,.293,1.089,.723,1.428,1.288s.515,1.235,.527,2.009c.013,.823-.126,1.545-.416,2.166l-.791-.374c.27-.599,.399-1.195,.391-1.79Z"></path>
        <path class="cls-1" d="M101.057,68.227c-1.236-.229-2.15-.722-2.742-1.478s-.785-1.69-.579-2.803c.211-1.138,.721-1.95,1.53-2.439s1.849-.616,3.116-.382c1.257,.232,2.174,.723,2.751,1.471s.761,1.692,.549,2.833c-.205,1.108-.718,1.91-1.537,2.402-.819,.493-1.849,.625-3.088,.396Zm1.139-6.153c-1.046-.193-1.88-.117-2.503,.228-.623,.346-1.013,.942-1.17,1.791-.158,.855-.009,1.552,.449,2.088s1.211,.901,2.261,1.096c1.038,.192,1.866,.121,2.484-.215,.617-.335,1.005-.929,1.162-1.781,.158-.855,.009-1.556-.449-2.101-.458-.546-1.203-.914-2.234-1.105Z"></path>
        <path class="cls-1" d="M93.836,76.321l.4-.962,7.732-1.433,.017-.039c-.735-.244-1.401-.49-1.996-.737l-4.122-1.714,.324-.778,7.251,3.015-.396,.952-7.704,1.433-.017,.04c.093,.03,.386,.135,.88,.312,.493,.179,.844,.314,1.049,.407l4.161,1.73-.328,.789-7.251-3.016Z"></path>
        <path class="cls-1" d="M89.579,83.276l2.398-3.662,6.569,4.303-2.399,3.661-.678-.444,1.897-2.897-2.116-1.387-1.783,2.723-.674-.441,1.783-2.723-2.417-1.583-1.898,2.898-.683-.447Z"></path>
      </g>
      <g>
        <path class="cls-1" d="M68.059,71.611H34.08l-6.257-24.308h46.492l-6.257,24.308Zm-33.203-1h32.428l5.743-22.308H29.112l5.743,22.308Z"></path>
        <rect class="cls-1" x="31.001" y="56.705" width="39.857" height="1"></rect>
        <rect class="cls-1" x="32.52" y="61.295" width="36.82" height="1"></rect>
        <rect class="cls-1" x="29.882" y="38.854" width="1" height="32.774" transform="translate(-12.813 9.319) rotate(-14.437)"></rect>
        <rect class="cls-1" x="55.369" y="54.741" width="32.774" height="1" transform="translate(.337 110.917) rotate(-75.53)"></rect>
        <rect class="cls-1" x="36.425" y="61.689" width="1.001" height="9.527" transform="translate(-13.115 9.222) rotate(-12.106)"></rect>
        <rect class="cls-1" x="33.433" y="47.696" width="1.001" height="9.615" transform="translate(-10.257 8.285) rotate(-12.107)"></rect>
        <rect class="cls-1" x="42.083" y="61.727" width="1.001" height="9.452" transform="translate(-10.626 8.16) rotate(-9.738)"></rect>
        <rect class="cls-1" x="39.689" y="47.734" width="1.001" height="9.539" transform="translate(-8.301 7.554) rotate(-9.737)"></rect>
        <rect class="cls-1" x="46.541" y="47.799" width="1.001" height="9.41" transform="translate(-2.207 2.064) rotate(-2.456)"></rect>
        <rect class="cls-1" x="47.14" y="61.791" width="1.001" height="9.324" transform="translate(-2.803 2.102) rotate(-2.455)"></rect>
        <rect class="cls-1" x="49.836" y="65.953" width="9.324" height="1.001" transform="translate(-14.234 118.048) rotate(-87.54)"></rect>
        <rect class="cls-1" x="50.391" y="52.003" width="9.41" height="1.001" transform="translate(.276 105.295) rotate(-87.54)"></rect>
        <rect class="cls-1" x="54.829" y="65.953" width="9.452" height="1.001" transform="translate(-16.045 113.861) rotate(-80.225)"></rect>
        <rect class="cls-1" x="57.179" y="52.003" width="9.539" height="1.001" transform="translate(-.311 104.639) rotate(-80.225)"></rect>
        <rect class="cls-1" x="60.448" y="65.953" width="9.527" height="1.001" transform="translate(-13.396 116.347) rotate(-77.944)"></rect>
        <rect class="cls-1" x="63.397" y="52.004" width="9.615" height="1.001" transform="translate(2.613 108.238) rotate(-77.944)"></rect>
      </g>
      <path class="cls-1" d="M51.069,106.31C22.909,106.31,0,83.401,0,55.242c0-13.238,5.044-25.789,14.202-35.34,.191-.2,.508-.207,.707-.016s.206,.508,.016,.707C5.945,29.957,1,42.262,1,55.242c0,27.607,22.461,50.068,50.069,50.068,14.09,0,27.605-5.987,37.082-16.426,.187-.204,.503-.219,.706-.034,.205,.186,.22,.502,.034,.706-9.666,10.647-23.451,16.754-37.822,16.754Z"></path>
    </g>
  </g>
</svg>
