<?xml version="1.0" encoding="UTF-8"?>
<svg xmlns="http://www.w3.org/2000/svg" id="Ebene_2" data-name="Ebene 2" viewBox="0 0 106.444 106.015">
  <defs>
    <style>
      .cls-1 {
        fill: #d5c7a3;
      }
    </style>
  </defs>
  <g id="Ebene_2-2" data-name="Ebene 2">
    <g>
      <g>
        <path class="cls-1" d="M12.873,20.207c.985,.779,1.564,1.641,1.735,2.586,.17,.945-.095,1.861-.797,2.749-.717,.907-1.548,1.389-2.492,1.443s-1.922-.317-2.934-1.117c-1.003-.792-1.585-1.653-1.747-2.584-.161-.931,.118-1.852,.837-2.762,.699-.885,1.526-1.354,2.481-1.407,.955-.054,1.927,.311,2.916,1.092Zm-3.88,4.909c.835,.66,1.608,.982,2.32,.968s1.336-.361,1.87-1.038c.54-.683,.732-1.368,.577-2.057-.154-.688-.65-1.362-1.487-2.023-.829-.655-1.595-.979-2.297-.97-.703,.009-1.323,.353-1.86,1.032-.539,.683-.733,1.372-.583,2.068s.637,1.369,1.46,2.02Z"></path>
        <path class="cls-1" d="M19.115,19.698l-.688,.602-5.173-5.908,3.294-2.884,.534,.61-2.606,2.282,1.893,2.162,2.449-2.145,.534,.61-2.449,2.145,2.212,2.525Z"></path>
        <path class="cls-1" d="M25.154,5.853l2.615,4.355c.461,.768,.591,1.51,.392,2.228-.2,.718-.706,1.319-1.516,1.806-.811,.486-1.57,.643-2.279,.467s-1.296-.65-1.761-1.425l-2.604-4.337,.783-.471,2.638,4.394c.337,.562,.749,.9,1.237,1.018,.487,.116,1.029-.004,1.625-.362,.567-.341,.914-.755,1.04-1.241,.125-.486,.019-1.013-.321-1.577l-2.632-4.384,.783-.47Z"></path>
        <path class="cls-1" d="M32.305,7.666l1.12,3.067-.857,.313-2.694-7.376,2.023-.739c.904-.33,1.637-.401,2.195-.213s.965,.631,1.22,1.327c.355,.976,.103,1.815-.762,2.52l3.214,2.583-1.014,.37-2.906-2.415-1.539,.562Zm-.269-.736l1.175-.43c.605-.222,1.006-.504,1.2-.848,.195-.344,.204-.756,.028-1.236-.178-.488-.45-.787-.816-.897-.366-.109-.867-.049-1.503,.184l-1.114,.407,1.03,2.82Z"></path>
        <path class="cls-1" d="M46.676,3.498c.192,1.242,.03,2.268-.487,3.076s-1.336,1.3-2.454,1.474c-1.143,.177-2.079-.035-2.809-.638s-1.192-1.541-1.391-2.814c-.196-1.264-.037-2.291,.479-3.083,.515-.792,1.345-1.276,2.491-1.455,1.115-.173,2.04,.046,2.776,.656,.736,.611,1.201,1.539,1.395,2.784Zm-6.184,.96c.163,1.051,.511,1.813,1.043,2.287,.531,.474,1.224,.644,2.076,.512,.86-.134,1.468-.505,1.822-1.114s.45-1.441,.286-2.496c-.161-1.044-.503-1.802-1.023-2.273-.521-.472-1.21-.642-2.065-.508-.86,.133-1.472,.506-1.835,1.119-.363,.612-.465,1.437-.304,2.474Z"></path>
        <path class="cls-1" d="M62.838,4.662c-.199,1.241-.669,2.167-1.41,2.777-.741,.609-1.671,.825-2.788,.646-1.142-.183-1.968-.673-2.476-1.471-.509-.797-.662-1.833-.458-3.105,.202-1.263,.67-2.191,1.403-2.786s1.673-.801,2.818-.618c1.114,.179,1.927,.672,2.439,1.479,.513,.808,.67,1.834,.471,3.078Zm-6.179-.989c-.168,1.051-.072,1.883,.288,2.497s.967,.989,1.819,1.126c.858,.138,1.551-.029,2.076-.5,.524-.471,.872-1.233,1.04-2.286,.167-1.044,.075-1.869-.274-2.479-.351-.609-.954-.982-1.81-1.119-.859-.138-1.556,.029-2.09,.5-.534,.472-.884,1.225-1.05,2.261Z"></path>
        <path class="cls-1" d="M71.101,11.676l-.972-.376-1.622-7.695-.04-.016c-.226,.742-.455,1.413-.688,2.015l-1.612,4.162-.786-.305,2.836-7.322,.962,.372,1.621,7.667,.04,.015c.028-.093,.126-.388,.292-.886s.293-.852,.381-1.06l1.628-4.202,.796,.309-2.836,7.322Z"></path>
        <path class="cls-1" d="M80.499,17.57l-.722-.559,4.307-5.57-1.967-1.521,.496-.642,4.656,3.601-.496,.642-1.967-1.521-4.308,5.57Z"></path>
        <path class="cls-1" d="M88.533,25.478l-.608-.681,2.755-2.463-2.757-3.083-2.755,2.463-.608-.681,5.854-5.233,.608,.681-2.491,2.227,2.757,3.083,2.49-2.227,.609,.681-5.854,5.233Z"></path>
        <path class="cls-1" d="M92.998,32.332l-2.272-3.741,6.711-4.078,2.272,3.741-.692,.421-1.8-2.96-2.161,1.313,1.689,2.781-.688,.419-1.689-2.782-2.47,1.501,1.799,2.96-.698,.425Z"></path>
        <path class="cls-1" d="M103.877,37.896l.585,2.14c.274,1.005,.323,1.773,.146,2.305-.178,.53-.591,.885-1.24,1.062-.449,.123-.854,.1-1.214-.071s-.649-.484-.867-.94l-.052,.014c.117,1.204-.329,1.944-1.342,2.222-.677,.185-1.268,.101-1.772-.253-.506-.354-.87-.941-1.096-1.764l-.723-2.643,7.575-2.071Zm-3.749,1.972l-2.834,.775,.433,1.58c.167,.611,.411,1.039,.732,1.283s.733,.298,1.238,.16c.47-.129,.771-.381,.906-.758,.135-.376,.113-.888-.062-1.533l-.413-1.508Zm.746-.204l.397,1.45c.17,.622,.39,1.043,.659,1.263,.27,.219,.636,.266,1.099,.139,.425-.116,.69-.352,.795-.707,.105-.355,.067-.865-.114-1.528l-.354-1.295-2.481,.679Z"></path>
        <path class="cls-1" d="M98.682,53.432l2.407-1.183-.264-3.137-2.57-.754-.077-.921,8.117,2.434,.064,.765-7.599,3.738-.079-.942Zm3.202-1.535l2.348-1.114c.297-.144,.663-.296,1.1-.459-.35-.049-.735-.13-1.158-.242l-2.502-.717,.213,2.532Z"></path>
        <path class="cls-1" d="M98.619,57.2l7.825,.654-.076,.91-7.001-.586-.288,3.452-.825-.068,.365-4.362Z"></path>
        <path class="cls-1" d="M103.811,69.6c.216-.836,.107-1.567-.324-2.194s-1.131-1.066-2.098-1.315c-.995-.257-1.824-.223-2.487,.104s-1.106,.922-1.329,1.785c-.137,.53-.197,1.159-.183,1.889l-.774-.2c-.062-.578,.008-1.254,.207-2.026,.289-1.12,.852-1.896,1.688-2.33,.837-.433,1.881-.488,3.132-.165,.784,.202,1.433,.526,1.946,.972,.514,.444,.859,.985,1.035,1.62,.176,.636,.168,1.328-.025,2.076-.206,.798-.531,1.457-.977,1.979l-.663-.57c.419-.506,.703-1.047,.852-1.622Z"></path>
        <path class="cls-1" d="M95.889,80.599c-1.131-.548-1.883-1.264-2.254-2.149s-.31-1.838,.183-2.856c.504-1.041,1.211-1.69,2.121-1.948s1.945-.106,3.105,.455c1.151,.557,1.906,1.272,2.265,2.146,.359,.874,.286,1.833-.219,2.877-.491,1.016-1.197,1.653-2.118,1.911-.921,.259-1.948,.114-3.083-.435Zm2.725-5.633c-.957-.464-1.781-.611-2.474-.442-.692,.168-1.226,.641-1.602,1.418-.379,.783-.419,1.494-.119,2.132,.3,.639,.931,1.19,1.891,1.655,.951,.46,1.769,.609,2.453,.449,.684-.16,1.215-.631,1.592-1.411,.379-.783,.42-1.498,.122-2.146-.298-.646-.918-1.199-1.863-1.655Z"></path>
        <path class="cls-1" d="M86.801,86.499l.639-.824,7.838,.648,.026-.034c-.646-.429-1.225-.84-1.733-1.235l-3.527-2.735,.518-.666,6.204,4.812-.632,.814-7.81-.64-.026,.033c.081,.054,.336,.231,.766,.533s.732,.524,.906,.669l3.561,2.762-.523,.675-6.205-4.812Z"></path>
        <path class="cls-1" d="M85.236,93.475l1.039,4.327-.739,.656-1.23-5.336-2.021-2.277,.69-.613,1.993,2.245,5.176,1.893-.748,.663-4.16-1.558Z"></path>
      </g>
      <path class="cls-1" d="M51.069,106.015C22.909,106.015,0,83.106,0,54.947c0-8.226,1.896-16.079,5.636-23.342,.127-.246,.428-.344,.673-.216,.246,.126,.343,.428,.216,.673-3.666,7.12-5.524,14.819-5.524,22.885,0,27.607,22.461,50.068,50.069,50.068,9.382,0,18.528-2.61,26.45-7.549,.232-.144,.542-.075,.689,.16,.146,.234,.074,.543-.16,.688-8.081,5.038-17.41,7.7-26.979,7.7Z"></path>
      <g>
        <path class="cls-1" d="M68.059,71.316H34.08l-6.257-24.308h46.492l-6.257,24.308Zm-33.203-1h32.428l5.743-22.308H29.112l5.743,22.308Z"></path>
        <rect class="cls-1" x="31.001" y="56.41" width="39.857" height="1"></rect>
        <rect class="cls-1" x="32.52" y="61.001" width="36.82" height="1"></rect>
        <rect class="cls-1" x="29.882" y="38.559" width="1" height="32.774" transform="translate(-12.739 9.31) rotate(-14.437)"></rect>
        <rect class="cls-1" x="55.369" y="54.446" width="32.774" height="1" transform="translate(.622 110.696) rotate(-75.53)"></rect>
        <rect class="cls-1" x="36.425" y="61.395" width="1.001" height="9.527" transform="translate(-13.053 9.215) rotate(-12.106)"></rect>
        <rect class="cls-1" x="33.433" y="47.401" width="1.001" height="9.615" transform="translate(-10.195 8.278) rotate(-12.107)"></rect>
        <rect class="cls-1" x="42.083" y="61.432" width="1.001" height="9.452" transform="translate(-10.576 8.156) rotate(-9.738)"></rect>
        <rect class="cls-1" x="39.689" y="47.44" width="1.001" height="9.539" transform="translate(-8.251 7.549) rotate(-9.737)"></rect>
        <rect class="cls-1" x="46.541" y="47.504" width="1.001" height="9.41" transform="translate(-2.194 2.064) rotate(-2.456)"></rect>
        <rect class="cls-1" x="47.14" y="61.496" width="1.001" height="9.324" transform="translate(-2.79 2.102) rotate(-2.455)"></rect>
        <rect class="cls-1" x="49.836" y="65.658" width="9.324" height="1.001" transform="translate(-13.939 117.765) rotate(-87.54)"></rect>
        <rect class="cls-1" x="50.391" y="51.709" width="9.41" height="1.001" transform="translate(.57 105.013) rotate(-87.54)"></rect>
        <rect class="cls-1" x="54.829" y="65.658" width="9.452" height="1.001" transform="translate(-15.754 113.616) rotate(-80.225)"></rect>
        <rect class="cls-1" x="57.179" y="51.709" width="9.539" height="1.001" transform="translate(-.02 104.394) rotate(-80.225)"></rect>
        <rect class="cls-1" x="60.448" y="65.658" width="9.527" height="1.001" transform="translate(-13.108 116.114) rotate(-77.944)"></rect>
        <rect class="cls-1" x="63.397" y="51.709" width="9.615" height="1.001" transform="translate(2.902 108.005) rotate(-77.944)"></rect>
      </g>
    </g>
  </g>
</svg>
