<?xml version="1.0" encoding="UTF-8"?>
<svg xmlns="http://www.w3.org/2000/svg" id="Ebene_2" data-name="Ebene 2" viewBox="0 0 102.138 103.242">
  <defs>
    <style>
      .cls-1 {
        fill: #d5c7a3;
      }
    </style>
  </defs>
  <g id="Ebene_2-2" data-name="Ebene 2">
    <g>
      <g>
        <path class="cls-1" d="M70.902,6.566c-.244,.646-.668,1.062-1.273,1.248-.605,.185-1.311,.126-2.115-.177-.871-.328-1.499-.693-1.884-1.094l.311-.825c.254,.241,.544,.466,.872,.673,.328,.208,.666,.377,1.014,.509,.569,.214,1.039,.268,1.409,.16s.627-.354,.772-.739c.096-.255,.124-.482,.083-.684s-.155-.415-.343-.644c-.188-.228-.494-.521-.917-.879-.592-.502-.971-.976-1.138-1.421-.167-.446-.149-.938,.054-1.478,.213-.566,.596-.938,1.147-1.112s1.178-.13,1.878,.134c.73,.275,1.352,.662,1.864,1.161l-.547,.644c-.511-.483-1.052-.833-1.625-1.049-.452-.17-.842-.206-1.17-.107-.328,.099-.557,.32-.687,.665-.096,.255-.128,.481-.095,.679,.033,.198,.135,.407,.307,.627s.456,.498,.854,.835c.667,.564,1.086,1.06,1.258,1.483,.171,.425,.162,.888-.027,1.391Z"></path>
        <path class="cls-1" d="M77.393,12.465l.428-2.647-2.711-1.6-2.102,1.659-.795-.47,6.681-5.212,.662,.39-1.348,8.36-.814-.48Zm.6-3.5l.45-2.56c.055-.325,.142-.713,.262-1.162-.243,.257-.532,.524-.868,.805l-2.032,1.626,2.188,1.291Z"></path>
        <path class="cls-1" d="M90.028,12.642l-3.367,3.806c-.593,.671-1.262,1.019-2.006,1.044s-1.47-.275-2.178-.902c-.708-.626-1.085-1.304-1.131-2.032-.046-.729,.23-1.432,.828-2.107l3.353-3.79,.684,.605-3.395,3.838c-.435,.49-.634,.986-.598,1.486s.314,.979,.834,1.44c.496,.438,.995,.645,1.497,.618,.502-.027,.971-.287,1.408-.781l3.388-3.829,.684,.604Z"></path>
        <path class="cls-1" d="M90.977,26.096l-.626-.833,2.694-7.389-.026-.035c-.584,.511-1.134,.959-1.649,1.346l-3.569,2.681-.506-.675,6.28-4.715,.619,.825-2.679,7.364,.026,.034c.073-.064,.312-.264,.716-.599s.699-.567,.884-.697l3.604-2.705,.513,.683-6.279,4.715Z"></path>
        <path class="cls-1" d="M95.035,33.802l1.824-1.966-1.368-2.834-2.669,.215-.402-.832,8.45-.632,.334,.691-5.758,6.209-.411-.852Zm2.44-2.579l1.794-1.881c.226-.24,.513-.514,.862-.821-.344,.079-.733,.142-1.168,.188l-2.593,.226,1.104,2.288Z"></path>
      </g>
      <path class="cls-1" d="M51.069,103.242C22.909,103.242,0,80.333,0,52.174S22.909,1.104,51.069,1.104c2.51,0,5.031,.184,7.494,.546,.273,.041,.462,.295,.422,.568-.041,.271-.294,.451-.567,.422-2.415-.355-4.888-.536-7.349-.536C23.461,2.104,1,24.565,1,52.174s22.461,50.068,50.069,50.068,50.069-22.461,50.069-50.068c0-3.58-.38-7.154-1.128-10.622-.058-.27,.113-.536,.383-.594,.27-.057,.536,.113,.594,.383,.764,3.537,1.151,7.182,1.151,10.833,0,28.159-22.909,51.068-51.069,51.068Z"></path>
      <g>
        <path class="cls-1" d="M64.143,68.47c-3.393,0-6.153-2.761-6.153-6.153v-.5h12.306v.5c0,3.393-2.76,6.153-6.153,6.153Zm-5.129-5.653c.252,2.608,2.456,4.653,5.129,4.653s4.877-2.045,5.129-4.653h-10.258Z"></path>
        <path class="cls-1" d="M69.796,62.816c-.276,0-.5-.224-.5-.5v-26.396c0-.276,.224-.5,.5-.5s.5,.224,.5,.5v26.396c0,.276-.224,.5-.5,.5Z"></path>
        <path class="cls-1" d="M55.435,68.927h-19.5l-4.207-20.309h27.915l-4.207,20.309Zm-18.686-1h17.872l3.793-18.309h-25.458l3.793,18.309Z"></path>
        <g>
          <path class="cls-1" d="M42.832,47.477c-.276,0-.5-.224-.5-.5,0-1.063,.34-1.617,.641-2.105,.264-.431,.493-.802,.493-1.582s-.229-1.151-.493-1.582c-.301-.488-.641-1.042-.641-2.105s.341-1.615,.641-2.104c.264-.429,.493-.8,.493-1.578,0-.276,.224-.5,.5-.5s.5,.224,.5,.5c0,1.062-.341,1.615-.641,2.104-.264,.429-.493,.8-.493,1.578s.229,1.151,.493,1.582c.301,.488,.641,1.042,.641,2.105s-.34,1.617-.641,2.105c-.264,.431-.493,.802-.493,1.582,0,.276-.224,.5-.5,.5Z"></path>
          <path class="cls-1" d="M47.404,47.477c-.276,0-.5-.224-.5-.5,0-1.063,.34-1.617,.641-2.105,.264-.431,.493-.802,.493-1.582s-.229-1.151-.493-1.582c-.301-.488-.641-1.042-.641-2.105s.341-1.615,.641-2.104c.264-.429,.493-.8,.493-1.578,0-.276,.224-.5,.5-.5s.5,.224,.5,.5c0,1.062-.341,1.615-.641,2.104-.264,.429-.493,.8-.493,1.578s.229,1.151,.493,1.582c.301,.488,.641,1.042,.641,2.105s-.34,1.617-.641,2.105c-.264,.431-.493,.802-.493,1.582,0,.276-.224,.5-.5,.5Z"></path>
        </g>
        <path class="cls-1" d="M57.215,57.019h-23.34c-.276,0-.5-.224-.5-.5s.224-.5,.5-.5h23.34c.276,0,.5,.224,.5,.5s-.224,.5-.5,.5Z"></path>
        <path class="cls-1" d="M55.697,61.61h-20.304c-.276,0-.5-.224-.5-.5s.224-.5,.5-.5h20.304c.276,0,.5,.224,.5,.5s-.224,.5-.5,.5Z"></path>
        <g>
          <rect class="cls-1" x="38.733" y="49.039" width="1" height="7.559" transform="translate(-9.901 9.059) rotate(-11.707)"></rect>
          <rect class="cls-1" x="41.208" y="61.033" width="1" height="7.472" transform="translate(-12.271 9.807) rotate(-11.704)"></rect>
          <rect class="cls-1" x="48.357" y="52.319" width="7.559" height="1" transform="translate(-10.169 93.144) rotate(-78.284)"></rect>
          <rect class="cls-1" x="45.925" y="64.268" width="7.472" height="1" transform="translate(-23.842 100.243) rotate(-78.284)"></rect>
        </g>
      </g>
    </g>
  </g>
</svg>
