<?xml version="1.0" encoding="UTF-8"?>
<svg xmlns="http://www.w3.org/2000/svg" id="Ebene_2" data-name="Ebene 2" viewBox="0 0 106.56 106.618">
  <defs>
    <style>
      .cls-1 {
        fill: #d5c7a3;
      }
    </style>
  </defs>
  <g id="Ebene_2-2" data-name="Ebene 2">
    <g>
      <g>
        <path class="cls-1" d="M44.943,6.202c.118,.681-.036,1.255-.464,1.722-.427,.467-1.064,.774-1.911,.922-.917,.159-1.643,.164-2.178,.014l-.151-.867c.341,.078,.705,.124,1.093,.137,.387,.013,.765-.014,1.131-.077,.6-.104,1.031-.297,1.296-.577,.264-.28,.359-.623,.289-1.029-.047-.268-.139-.479-.276-.631-.137-.152-.345-.278-.622-.379-.277-.102-.689-.198-1.236-.292-.765-.132-1.332-.348-1.702-.646-.37-.3-.604-.732-.703-1.301-.104-.597,.037-1.109,.424-1.541,.387-.431,.948-.71,1.686-.838,.77-.135,1.501-.116,2.196,.054l-.145,.832c-.685-.157-1.329-.184-1.933-.078-.476,.083-.83,.25-1.062,.501-.232,.252-.317,.559-.254,.922,.047,.269,.134,.479,.263,.634,.129,.153,.322,.281,.582,.384,.26,.102,.646,.197,1.159,.286,.861,.147,1.474,.361,1.837,.64s.591,.682,.683,1.211Z"></path>
        <path class="cls-1" d="M51.892,.817c-.862,.014-1.539,.312-2.029,.895-.49,.583-.727,1.374-.711,2.373,.017,1.027,.271,1.817,.762,2.37,.49,.552,1.182,.821,2.072,.807,.548-.009,1.171-.117,1.87-.326l.013,.801c-.541,.213-1.211,.325-2.009,.339-1.156,.019-2.055-.318-2.694-1.01s-.97-1.684-.991-2.976c-.013-.81,.127-1.521,.42-2.134,.292-.614,.722-1.09,1.287-1.429S51.116,.013,51.89,0c.823-.014,1.545,.125,2.166,.416l-.374,.79c-.599-.27-1.195-.399-1.79-.39Z"></path>
        <path class="cls-1" d="M63.008,9.393l-.896-.172,.695-3.629-4.062-.778-.695,3.629-.896-.172,1.478-7.712,.897,.172-.629,3.281,4.062,.778,.629-3.281,.896,.172-1.478,7.712Z"></path>
        <path class="cls-1" d="M68.691,7.831l-1.217,3.03-.848-.34,2.926-7.287,1.999,.802c.894,.359,1.485,.796,1.774,1.31,.29,.514,.297,1.114,.021,1.802-.387,.964-1.137,1.419-2.25,1.365l.664,4.069-1.002-.402-.548-3.738-1.52-.61Zm.292-.728l1.161,.466c.599,.24,1.085,.298,1.459,.172,.375-.125,.657-.426,.848-.901,.193-.481,.191-.886-.008-1.213-.198-.326-.612-.615-1.24-.868l-1.102-.441-1.118,2.786Z"></path>
        <path class="cls-1" d="M78.079,16.314l-3.724-2.302,4.128-6.68,3.724,2.301-.427,.69-2.946-1.821-1.33,2.152,2.769,1.711-.424,.686-2.769-1.712-1.519,2.459,2.946,1.821-.429,.694Z"></path>
        <path class="cls-1" d="M80.948,18.53l4.993-6.061,.705,.581-4.994,6.061-.704-.581Z"></path>
        <path class="cls-1" d="M90.466,16.49l1.49,1.644c.7,.771,1.091,1.435,1.173,1.989,.082,.554-.127,1.057-.625,1.509-.345,.312-.717,.475-1.115,.485-.398,.012-.798-.138-1.199-.446l-.039,.036c.649,1.021,.586,1.883-.191,2.588-.52,.472-1.085,.664-1.695,.577s-1.202-.446-1.774-1.077l-1.841-2.029,5.817-5.275Zm-2.45,3.455l-2.177,1.974,1.101,1.213c.426,.47,.837,.741,1.234,.813,.396,.072,.789-.066,1.176-.418,.361-.327,.517-.688,.466-1.086-.05-.396-.3-.843-.75-1.339l-1.05-1.157Zm.573-.52l1.01,1.113c.433,.478,.819,.754,1.159,.827s.688-.051,1.043-.373c.326-.296,.456-.626,.389-.99-.067-.365-.331-.802-.793-1.312l-.902-.994-1.905,1.729Z"></path>
        <path class="cls-1" d="M91.58,30.598l-.486-.772,5.956-3.756-1.326-2.104,.686-.433,3.14,4.979-.686,.433-1.326-2.104-5.957,3.756Z"></path>
        <path class="cls-1" d="M94.205,35.462l7.147-3.251,.378,.831-7.147,3.251-.378-.831Z"></path>
        <path class="cls-1" d="M99.366,43.682c-.662,.198-1.25,.112-1.765-.257-.514-.37-.895-.966-1.141-1.789-.267-.893-.357-1.612-.271-2.162l.844-.252c-.038,.348-.041,.715-.008,1.101,.034,.387,.104,.758,.211,1.114,.174,.584,.416,.989,.726,1.219,.31,.229,.661,.284,1.056,.166,.261-.078,.459-.194,.594-.349,.136-.154,.236-.375,.304-.663,.067-.287,.115-.708,.144-1.262,.041-.775,.188-1.364,.441-1.767,.254-.403,.656-.687,1.209-.853,.579-.173,1.106-.093,1.579,.24,.474,.333,.817,.857,1.032,1.574,.224,.748,.292,1.478,.206,2.188l-.844-.045c.075-.699,.024-1.342-.15-1.929-.139-.463-.347-.795-.624-.996-.276-.201-.592-.249-.945-.144-.261,.078-.46,.189-.598,.336-.138,.146-.241,.354-.312,.623-.07,.27-.119,.665-.146,1.185-.046,.873-.186,1.507-.419,1.9-.233,.393-.607,.666-1.122,.82Z"></path>
        <path class="cls-1" d="M105.52,50.022c-.101-.857-.467-1.5-1.096-1.929-.63-.429-1.44-.584-2.433-.467-1.021,.121-1.78,.453-2.28,.998-.5,.544-.697,1.259-.593,2.144,.064,.545,.235,1.153,.514,1.827l-.795,.094c-.267-.517-.447-1.171-.541-1.964-.136-1.148,.108-2.076,.731-2.782,.623-.707,1.576-1.136,2.86-1.288,.803-.095,1.525-.028,2.165,.201,.641,.229,1.157,.607,1.552,1.136s.637,1.177,.728,1.945c.097,.817,.032,1.55-.194,2.196l-.824-.291c.208-.624,.276-1.23,.206-1.82Z"></path>
        <path class="cls-1" d="M98.296,62.019l.066-.911,3.686,.268,.299-4.125-3.686-.268,.066-.91,7.832,.567-.066,.911-3.332-.242-.299,4.125,3.332,.242-.066,.91-7.832-.567Z"></path>
      </g>
      <path class="cls-1" d="M51.069,106.618C22.909,106.618,0,83.709,0,55.55,0,33.049,14.424,13.447,35.892,6.773c.269-.083,.545,.066,.626,.329,.082,.264-.065,.544-.329,.626C15.142,14.271,1,33.489,1,55.55c0,27.607,22.461,50.068,50.069,50.068,22.82,0,42.753-15.408,48.471-37.47,.069-.268,.339-.43,.609-.359,.268,.069,.429,.343,.359,.609-5.833,22.503-26.163,38.22-49.439,38.22Z"></path>
      <g>
        <path class="cls-1" d="M72.45,55.432H29.688v-5.176h42.762v5.176Zm-41.762-1h40.762v-3.176H30.688v3.176Z"></path>
        <path class="cls-1" d="M46.176,60.184H29.688v-5.752h16.487v5.752Zm-15.487-1h14.487v-3.752h-14.487v3.752Z"></path>
        <path class="cls-1" d="M46.176,64.936H29.688v-5.753h16.487v5.753Zm-15.487-1h14.487v-3.753h-14.487v3.753Z"></path>
        <path class="cls-1" d="M46.176,69.688H29.688v-5.752h16.487v5.752Zm-15.487-1h14.487v-3.752h-14.487v3.752Z"></path>
        <path class="cls-1" d="M46.176,74.44H29.688v-5.752h16.487v5.752Zm-15.487-1h14.487v-3.752h-14.487v3.752Z"></path>
        <path class="cls-1" d="M72.45,74.44h-5.855v-20.009h5.855v20.009Zm-4.855-1h3.855v-18.009h-3.855v18.009Z"></path>
        <rect class="cls-1" x="35.844" y="56.808" width="4.177" height="1"></rect>
        <rect class="cls-1" x="35.844" y="61.56" width="4.177" height="1"></rect>
        <rect class="cls-1" x="35.844" y="66.312" width="4.177" height="1"></rect>
        <rect class="cls-1" x="35.844" y="71.064" width="4.177" height="1"></rect>
        <path class="cls-1" d="M33.845,50.756h-1v-11.363c0-1.508,1.227-2.734,2.733-2.734s2.734,1.227,2.734,2.734h-1c0-.956-.778-1.734-1.734-1.734s-1.733,.778-1.733,1.734v11.363Z"></path>
        <path class="cls-1" d="M40.53,43.825h-5.452v-2.199c0-1.507,1.227-2.733,2.734-2.733s2.733,1.227,2.733,2.733l-.016,2.199Zm-4.452-1h3.46l.008-1.203c0-.952-.777-1.729-1.733-1.729s-1.734,.777-1.734,1.733v1.199Z"></path>
      </g>
    </g>
  </g>
</svg>
