<?xml version="1.0" encoding="UTF-8"?>
<svg xmlns="http://www.w3.org/2000/svg" id="Ebene_2" data-name="Ebene 2" viewBox="0 0 106.473 106.634">
  <defs>
    <style>
      .cls-1 {
        fill: #d5c7a3;
      }
    </style>
  </defs>
  <g id="Ebene_2-2" data-name="Ebene 2">
    <g>
      <g>
        <path class="cls-1" d="M47.152,8.069l-.894,.127-2.306-4.984c-.107-.22-.231-.499-.373-.837-.143-.338-.22-.542-.233-.612-.012,.479-.063,1.009-.155,1.59l-.788,5.39-.894,.126-3.169-7.481,.957-.136,1.908,4.628c.266,.649,.476,1.242,.631,1.777,.004-.663,.057-1.317,.156-1.965l.725-4.925,.957-.136,2.138,4.563c.248,.525,.479,1.126,.694,1.801-.004-.513,.037-1.145,.122-1.895l.545-4.965,.957-.136-.979,8.069Z"></path>
        <path class="cls-1" d="M53.131,4.753l-.219,3.258-.911-.062L52.528,.114l2.149,.146c.961,.064,1.658,.296,2.093,.695,.435,.398,.626,.968,.576,1.707-.069,1.036-.642,1.701-1.717,1.995l1.891,3.664-1.077-.072-1.678-3.387-1.635-.109Zm.053-.782l1.249,.084c.643,.043,1.123-.053,1.44-.288s.493-.608,.527-1.119c.035-.519-.093-.901-.383-1.151-.29-.249-.772-.396-1.447-.441l-1.185-.08-.202,2.996Z"></path>
        <path class="cls-1" d="M60.596,8.948l1.638-7.681,.893,.19-1.638,7.68-.893-.189Z"></path>
        <path class="cls-1" d="M67.664,10.967l-.859-.311,2.394-6.622-2.339-.846,.275-.763,5.536,2.001-.275,.763-2.339-.846-2.393,6.623Z"></path>
        <path class="cls-1" d="M72.737,13.204l3.648-6.954,.809,.425-3.648,6.953-.809-.424Z"></path>
        <path class="cls-1" d="M81.903,19.212l-.836-.622,.492-7.849-.034-.025c-.416,.654-.816,1.24-1.201,1.757l-2.665,3.581-.677-.504,4.688-6.299,.827,.615-.484,7.821,.034,.025c.052-.082,.225-.341,.518-.776s.51-.742,.65-.918l2.69-3.615,.686,.51-4.688,6.299Z"></path>
        <path class="cls-1" d="M90.015,21.584l1.776,1.993-2.851,2.541c-.375-.223-.731-.471-1.067-.746-.337-.276-.693-.625-1.07-1.047-.791-.888-1.143-1.814-1.056-2.779s.606-1.871,1.558-2.72c.61-.543,1.253-.896,1.93-1.061,.676-.164,1.34-.124,1.992,.12,.651,.244,1.252,.675,1.803,1.292,.558,.626,.962,1.311,1.214,2.056l-.838,.271c-.247-.729-.589-1.339-1.024-1.828-.637-.714-1.346-1.081-2.128-1.104s-1.551,.303-2.305,.975c-.791,.705-1.219,1.434-1.283,2.185-.065,.75,.236,1.5,.903,2.248,.362,.406,.763,.762,1.202,1.066l1.804-1.608-1.169-1.312,.609-.543Z"></path>
        <path class="cls-1" d="M99.466,37.401c-1.182,.533-2.229,.62-3.144,.262-.915-.359-1.644-1.141-2.188-2.345l-.896-1.982,7.156-3.232,.99,2.192c.503,1.113,.585,2.117,.247,3.013-.339,.896-1.061,1.593-2.167,2.093Zm-.428-.868c.934-.422,1.531-.974,1.793-1.655,.262-.683,.184-1.485-.233-2.408l-.546-1.209-5.718,2.582,.458,1.013c.448,.992,1.029,1.628,1.742,1.907,.713,.278,1.548,.202,2.504-.229Z"></path>
        <path class="cls-1" d="M97.853,46.576l-1.038-4.253,7.629-1.861,1.038,4.252-.788,.192-.821-3.365-2.458,.6,.771,3.162-.782,.191-.771-3.162-2.808,.685,.821,3.366-.793,.193Z"></path>
        <path class="cls-1" d="M100.772,54.267c-.688,.053-1.245-.157-1.668-.628-.424-.471-.667-1.135-.731-1.992-.07-.928-.005-1.651,.197-2.169l.878-.066c-.111,.332-.192,.689-.242,1.074s-.061,.762-.033,1.134c.046,.606,.195,1.055,.449,1.345,.253,.29,.585,.419,.996,.389,.271-.021,.489-.092,.654-.214s.311-.316,.438-.582c.127-.267,.264-.668,.41-1.203,.206-.748,.476-1.291,.809-1.631,.334-.339,.788-.53,1.363-.573,.603-.046,1.101,.145,1.491,.571,.392,.427,.615,1.013,.672,1.759,.059,.779-.031,1.506-.268,2.181l-.813-.225c.223-.666,.311-1.305,.265-1.916-.036-.481-.168-.851-.396-1.106s-.525-.37-.893-.342c-.271,.021-.49,.087-.656,.2-.165,.112-.312,.293-.438,.542-.127,.248-.259,.623-.397,1.126-.23,.843-.502,1.432-.814,1.766s-.736,.521-1.272,.562Z"></path>
        <path class="cls-1" d="M98.114,63.418l.101-1.069,4.059-2.495-.651-.887-3.063-.286,.085-.909,7.818,.731-.085,.909-3.878-.363,3.546,3.909-.101,1.074-3.102-3.462-4.729,2.848Z"></path>
      </g>
      <path class="cls-1" d="M51.069,106.634C22.909,106.634,0,83.725,0,55.565,0,34.375,13.329,15.148,33.169,7.722c.257-.097,.547,.034,.644,.294,.097,.258-.035,.546-.294,.644C14.068,15.939,1,34.79,1,55.565c0,27.607,22.461,50.068,50.069,50.068,22.82,0,42.753-15.408,48.471-37.47,.069-.267,.339-.428,.609-.359,.268,.069,.429,.343,.359,.609-5.833,22.503-26.163,38.22-49.439,38.22Z"></path>
      <g>
        <path class="cls-1" d="M72.45,55.447H29.688v-5.177h42.762v5.177Zm-41.762-1h40.762v-3.177H30.688v3.177Z"></path>
        <path class="cls-1" d="M46.176,60.199H29.688v-5.752h16.487v5.752Zm-15.487-1h14.487v-3.752h-14.487v3.752Z"></path>
        <path class="cls-1" d="M46.176,64.952H29.688v-5.753h16.487v5.753Zm-15.487-1h14.487v-3.753h-14.487v3.753Z"></path>
        <path class="cls-1" d="M46.176,69.704H29.688v-5.752h16.487v5.752Zm-15.487-1h14.487v-3.752h-14.487v3.752Z"></path>
        <path class="cls-1" d="M46.176,74.456H29.688v-5.752h16.487v5.752Zm-15.487-1h14.487v-3.752h-14.487v3.752Z"></path>
        <path class="cls-1" d="M72.45,74.456h-5.855v-20.009h5.855v20.009Zm-4.855-1h3.855v-18.009h-3.855v18.009Z"></path>
        <rect class="cls-1" x="35.844" y="56.823" width="4.177" height="1"></rect>
        <rect class="cls-1" x="35.844" y="61.575" width="4.177" height="1"></rect>
        <rect class="cls-1" x="35.844" y="66.328" width="4.177" height="1"></rect>
        <rect class="cls-1" x="35.844" y="71.08" width="4.177" height="1"></rect>
        <path class="cls-1" d="M33.845,50.771h-1v-11.362c0-1.508,1.227-2.734,2.733-2.734s2.734,1.227,2.734,2.734h-1c0-.956-.778-1.734-1.734-1.734s-1.733,.778-1.733,1.734v11.362Z"></path>
        <path class="cls-1" d="M40.53,43.841h-5.452v-2.199c0-1.507,1.227-2.733,2.734-2.733s2.733,1.227,2.733,2.733l-.016,2.199Zm-4.452-1h3.46l.008-1.203c0-.952-.777-1.729-1.733-1.729s-1.734,.777-1.734,1.733v1.199Z"></path>
      </g>
    </g>
  </g>
</svg>
