<?xml version="1.0" encoding="UTF-8"?>
<svg xmlns="http://www.w3.org/2000/svg" id="Ebene_2" data-name="Ebene 2" viewBox="0 0 106.002 106.22">
  <defs>
    <style>
      .cls-1 {
        fill: #d5c7a3;
      }
    </style>
  </defs>
  <g id="Ebene_2-2" data-name="Ebene 2">
    <g>
      <g>
        <path class="cls-1" d="M59.49,6.145c-.082,.687-.396,1.191-.939,1.515-.543,.324-1.242,.436-2.095,.334-.925-.111-1.622-.314-2.091-.613l.105-.875c.303,.174,.639,.322,1.007,.446,.367,.123,.735,.207,1.106,.251,.604,.072,1.072,.013,1.406-.18,.332-.193,.523-.494,.572-.902,.033-.271,.005-.498-.082-.684-.088-.186-.251-.366-.487-.543-.237-.176-.604-.388-1.101-.635-.694-.347-1.176-.717-1.443-1.109-.269-.393-.369-.875-.3-1.447,.071-.602,.354-1.053,.849-1.354,.494-.302,1.113-.408,1.856-.318,.774,.093,1.47,.32,2.087,.684l-.377,.755c-.611-.347-1.221-.558-1.829-.631-.479-.058-.868,0-1.162,.175-.295,.174-.464,.443-.509,.811-.032,.27-.009,.497,.07,.681,.078,.185,.228,.363,.447,.536,.219,.172,.562,.375,1.027,.607,.783,.389,1.309,.77,1.576,1.141,.267,.371,.369,.823,.305,1.356Z"></path>
        <path class="cls-1" d="M67.773,3.025c-.826-.248-1.561-.168-2.205,.238-.644,.407-1.108,1.089-1.396,2.046-.295,.984-.294,1.813,.007,2.489s.877,1.141,1.731,1.397c.524,.157,1.151,.242,1.881,.256l-.23,.767c-.581,.039-1.253-.057-2.017-.285-1.107-.334-1.862-.926-2.263-1.779-.4-.853-.414-1.897-.043-3.136,.233-.775,.581-1.411,1.046-1.907s1.019-.819,1.66-.971,1.333-.116,2.073,.106c.79,.237,1.436,.588,1.938,1.052l-.596,.641c-.488-.438-1.018-.742-1.588-.914Z"></path>
        <path class="cls-1" d="M72.918,9.214l-1.484,2.908-.812-.414,3.568-6.996,1.918,.979c.858,.438,1.408,.926,1.65,1.464,.242,.537,.195,1.137-.141,1.797-.473,.924-1.261,1.311-2.365,1.158l.296,4.111-.962-.49-.209-3.773-1.459-.744Zm.355-.699l1.115,.568c.574,.294,1.054,.395,1.438,.303,.385-.091,.693-.365,.926-.82,.236-.463,.27-.865,.102-1.209s-.555-.668-1.156-.977l-1.059-.54-1.365,2.675Z"></path>
        <path class="cls-1" d="M78.097,15.993l4.53-6.414,.746,.527-4.53,6.414-.746-.527Z"></path>
        <path class="cls-1" d="M90.678,16.32l.716,.673-7.44,3.782-.657-.617,3.328-7.649,.704,.661-2.166,4.939c-.248,.566-.517,1.094-.806,1.579,.491-.335,1.01-.641,1.557-.919l4.765-2.449Z"></path>
        <path class="cls-1" d="M90.759,28.79l1.417-2.276-1.881-2.523-2.58,.719-.553-.741,8.177-2.226,.459,.615-4.474,7.19-.565-.758Zm1.906-2.997l1.404-2.187c.177-.278,.407-.603,.69-.97-.322,.143-.693,.277-1.111,.406l-2.502,.715,1.519,2.035Z"></path>
        <path class="cls-1" d="M95.334,37.427l-.448-.941,4.1-6.711-.019-.039c-.674,.385-1.301,.717-1.883,.994l-4.028,1.922-.362-.762,7.087-3.381,.444,.931-4.08,6.69,.018,.039c.084-.049,.357-.197,.821-.445,.462-.248,.796-.418,1.003-.51l4.068-1.939,.367,.77-7.088,3.383Z"></path>
        <path class="cls-1" d="M96.549,41.169l7.53-2.228,.259,.875-7.529,2.229-.26-.876Z"></path>
        <path class="cls-1" d="M98.508,50.793l2.331-1.325-.452-3.115-2.61-.598-.132-.915,8.248,1.941,.109,.76-7.359,4.188-.135-.936Zm3.104-1.725l2.276-1.253c.288-.161,.646-.335,1.069-.524-.352-.028-.741-.086-1.17-.172l-2.541-.565,.365,2.515Z"></path>
      </g>
      <g>
        <path class="cls-1" d="M72.45,55.034H29.688v-5.177h42.762v5.177Zm-41.762-1h40.762v-3.177H30.688v3.177Z"></path>
        <path class="cls-1" d="M46.176,59.786H29.688v-5.752h16.487v5.752Zm-15.487-1h14.487v-3.752h-14.487v3.752Z"></path>
        <path class="cls-1" d="M46.176,64.538H29.688v-5.752h16.487v5.752Zm-15.487-1h14.487v-3.752h-14.487v3.752Z"></path>
        <path class="cls-1" d="M46.176,69.291H29.688v-5.753h16.487v5.753Zm-15.487-1h14.487v-3.753h-14.487v3.753Z"></path>
        <path class="cls-1" d="M46.176,74.043H29.688v-5.752h16.487v5.752Zm-15.487-1h14.487v-3.752h-14.487v3.752Z"></path>
        <path class="cls-1" d="M72.45,74.043h-5.855v-20.009h5.855v20.009Zm-4.855-1h3.855v-18.009h-3.855v18.009Z"></path>
        <rect class="cls-1" x="35.844" y="56.41" width="4.177" height="1"></rect>
        <rect class="cls-1" x="35.844" y="61.162" width="4.177" height="1"></rect>
        <rect class="cls-1" x="35.844" y="65.915" width="4.177" height="1"></rect>
        <rect class="cls-1" x="35.844" y="70.667" width="4.177" height="1"></rect>
        <path class="cls-1" d="M33.845,50.357h-1v-11.363c0-1.507,1.227-2.733,2.733-2.733s2.734,1.227,2.734,2.733h-1c0-.956-.778-1.733-1.734-1.733s-1.733,.777-1.733,1.733v11.363Z"></path>
        <path class="cls-1" d="M40.53,43.427h-5.452v-2.199c0-1.508,1.227-2.734,2.734-2.734s2.733,1.227,2.733,2.734l-.016,2.199Zm-4.452-1h3.46l.008-1.203c0-.952-.777-1.73-1.733-1.73s-1.734,.778-1.734,1.734v1.199Z"></path>
      </g>
      <path class="cls-1" d="M51.069,106.22C22.909,106.22,0,83.311,0,55.152,0,28.602,20.713,6.235,47.155,4.23c.272-.018,.516,.187,.537,.461,.021,.275-.186,.516-.461,.537C21.308,7.193,1,29.122,1,55.152c0,27.607,22.461,50.068,50.069,50.068,26.878,0,48.85-21.018,50.021-47.849,.012-.276,.239-.496,.521-.479,.276,.013,.49,.246,.479,.521-1.195,27.368-23.605,48.806-51.021,48.806Z"></path>
    </g>
  </g>
</svg>
