<svg width="75" height="76" viewBox="0 0 75 76" fill="none" xmlns="http://www.w3.org/2000/svg">
<circle cx="37.5" cy="37.668" r="37" stroke="#D5C7A3"/>
<path d="M39.702 53.5098H33.8559V52.7344C33.8559 48.5171 33.8458 44.2999 33.868 40.0831C33.8713 39.4847 33.7305 39.2479 33.0887 39.2754C31.9315 39.3236 30.7665 39.2754 29.6049 39.2928C29.1675 39.299 28.993 39.1549 29.0002 38.692C29.024 37.1853 29.024 35.6778 29.0002 34.1695C28.9935 33.6979 29.1955 33.5745 29.6208 33.5793C30.8229 33.5933 32.0255 33.5658 33.2271 33.5918C33.703 33.6019 33.8704 33.4443 33.8641 32.965C33.8462 31.6206 33.8554 30.2758 33.8786 28.9314C33.947 24.9635 36.7404 22.1841 40.7069 22.1682C42.0898 22.1629 43.4732 22.2535 44.8566 22.2916C45.253 22.3027 45.443 22.4522 45.4353 22.8818C45.4176 24.2262 45.4176 25.5707 45.4353 26.9154C45.4411 27.3493 45.2665 27.4849 44.8566 27.4786C43.8993 27.4641 42.9419 27.4675 41.9842 27.4887C40.5034 27.5215 39.7406 28.2843 39.7092 29.7757C39.6871 30.8549 39.7271 31.936 39.6914 33.0141C39.675 33.4997 39.8756 33.5928 40.3004 33.5899C41.7267 33.5735 43.1531 33.5971 44.5794 33.5783C45.091 33.5716 45.2429 33.7167 45.158 34.2582C44.9304 35.7048 44.7535 37.1557 44.5977 38.61C44.5437 39.1134 44.372 39.3164 43.8431 39.3C42.7234 39.2658 41.6014 39.3174 40.4817 39.2793C39.8901 39.259 39.6803 39.4032 39.6856 40.0532C39.7184 44.27 39.7025 48.4867 39.7025 52.704L39.702 53.5098Z" stroke="#D5C7A3"/>
</svg>
