<svg width="75" height="76" viewBox="0 0 75 76" fill="none" xmlns="http://www.w3.org/2000/svg">
<circle cx="37.5" cy="37.668" r="37" stroke="#D5C7A3"/>
<path d="M46.8412 26.1807C47.0869 26.1826 47.3299 26.2328 47.5561 26.3286C47.7824 26.4243 47.9876 26.5637 48.16 26.7388C48.3324 26.9138 48.4687 27.1211 48.561 27.3488C48.6532 27.5765 48.6998 27.8202 48.6979 28.0659C48.6961 28.3116 48.6458 28.5545 48.5501 28.7807C48.4543 29.007 48.3149 29.2122 48.1399 29.3846C47.9648 29.557 47.7575 29.6933 47.5298 29.7856C47.3021 29.8779 47.0585 29.9244 46.8128 29.9225C46.3166 29.9188 45.8422 29.718 45.494 29.3645C45.1458 29.011 44.9523 28.5336 44.9561 28.0374C44.9599 27.5412 45.1606 27.0668 45.5141 26.7187C45.8677 26.3705 46.345 26.1769 46.8412 26.1807V26.1807Z" stroke="#D5C7A3"/>
<path d="M44.0094 37.8C44.0063 39.0882 43.621 40.3464 42.9024 41.4155C42.1838 42.4846 41.1641 43.3164 39.9725 43.8057C38.7809 44.295 37.4709 44.4198 36.2084 44.1642C34.9458 43.9087 33.7875 43.2843 32.88 42.3701C31.9725 41.4559 31.3566 40.293 31.1103 39.0286C30.864 37.7642 30.9984 36.4552 31.4965 35.2672C31.9945 34.0792 32.8338 33.0657 33.9081 32.355C34.9825 31.6442 36.2435 31.2682 37.5316 31.2745C38.3859 31.2759 39.2315 31.4461 40.0199 31.7751C40.8083 32.1041 41.5239 32.5856 42.1258 33.1919C42.7277 33.7982 43.2039 34.5174 43.5271 35.3081C43.8503 36.0989 44.0143 36.9457 44.0094 37.8Z" stroke="#D5C7A3"/>
<path d="M47.2862 22.168H28.0563C24.7115 22.168 22 24.8795 22 28.2243V47.4542C22 50.799 24.7115 53.5105 28.0563 53.5105H47.2862C50.631 53.5105 53.3425 50.799 53.3425 47.4542V28.2243C53.3425 24.8795 50.631 22.168 47.2862 22.168Z" stroke="#D5C7A3"/>
</svg>
