<svg width="156" height="123" viewBox="0 0 156 123" fill="none" xmlns="http://www.w3.org/2000/svg">
    <path d="M45.1848 121.536V95.7168H46.9112C47.2349 95.7168 47.4507 95.9329 47.4507 96.257V119.484H59.0497C59.3734 119.484 59.5892 119.7 59.5892 120.024V121.536H45.1848Z" fill="#D5C7A3"/>
    <path d="M30.0791 95.7168H31.8055C32.1292 95.7168 32.345 95.9329 32.345 96.257V121.536H30.0791V95.7168Z" fill="#D5C7A3"/>
    <path d="M103.449 100.632V121.536H101.184V96.4727C101.184 95.9866 101.777 95.7705 102.101 96.0946L121.792 116.783V95.7705H124.058V120.942C124.058 121.428 123.464 121.644 123.141 121.32L103.449 100.632Z" fill="#D5C7A3"/>
    <path d="M139.433 111.975H149.414L144.505 100.146L139.433 111.975ZM153.406 121.536L150.277 114.028H138.516L135.333 121.536H132.852L144.019 96.0946C144.235 95.6625 144.828 95.6625 144.99 96.0946L155.942 121.536H153.406Z" fill="#D5C7A3"/>
    <path d="M78.4171 97.229C70.109 97.229 67.7892 103.549 67.2497 105.493C67.2497 105.493 67.1418 105.926 67.0879 106.52C67.2497 106.52 89.4767 106.52 89.7464 106.52C89.6385 105.764 89.5306 105.493 89.5306 105.493C88.9372 102.631 85.8621 97.229 78.4171 97.229ZM78.4171 122.454C70.3248 122.454 64.6602 116.783 64.6602 108.68C64.6602 100.794 70.4327 95.0684 78.4171 95.0684C86.2397 95.0684 91.9583 101.226 92.0662 108.68H66.8181V108.896C66.8181 115.594 71.3498 120.294 78.3632 120.294C82.733 120.294 86.0239 118.565 88.1819 115.108C88.3437 114.892 88.6135 114.784 88.8832 114.892L90.5017 115.648C89.153 118.241 85.7542 122.454 78.4171 122.454Z" fill="#D5C7A3"/>
    <path d="M0.137375 117.863C-0.0784203 118.079 -0.0244713 118.457 0.191324 118.619C3.37431 121.32 6.5573 122.508 10.4956 122.508C15.7286 122.508 19.3971 119.483 19.3971 115.162V115.108C19.3971 111.165 16.7536 108.95 10.6035 107.708C5.69411 106.681 3.05062 105.493 3.05062 102.09V102.036C3.05062 99.2273 5.69412 97.2287 9.30869 97.2287C12.3298 97.2287 14.7036 98.147 17.0773 100.146L18.1563 98.7951C18.3721 98.5791 18.3182 98.201 18.0484 98.0389C15.351 95.9863 12.8693 95.1221 9.36264 95.1221C4.45329 95.1221 0.730814 98.147 0.730814 102.198V102.252C0.730814 106.357 3.32036 108.518 9.74028 109.814C14.4878 110.787 17.0773 111.921 17.0773 115.27V115.324C17.0773 118.295 14.3799 120.402 10.5495 120.402C6.82704 120.402 4.23749 119.321 1.21635 116.512L0.137375 117.863Z" fill="#D5C7A3"/>
    <path d="M81.8699 4.0512C81.8699 6.26585 80.0357 8.10239 77.8238 8.10239C75.6119 8.10239 73.7776 6.26585 73.7776 4.0512C73.7776 1.83654 75.6119 0 77.8238 0C80.0357 0 81.8699 1.83654 81.8699 4.0512Z" fill="#D5C7A3"/>
    <path d="M73.7776 75.2983C73.7776 73.0836 75.6119 71.2471 77.8238 71.2471C80.0357 71.2471 81.8699 73.0836 81.8699 75.2983C81.8699 77.5129 80.0357 79.3495 77.8238 79.3495C75.5579 79.3495 73.7776 77.5129 73.7776 75.2983Z" fill="#D5C7A3"/>
    <path d="M81.0608 16.9607C81.0608 18.7432 79.6042 20.2016 77.8238 20.2016C76.0435 20.2016 74.5869 18.7432 74.5869 16.9607C74.5869 15.1782 76.0435 13.7197 77.8238 13.7197C79.6042 13.7197 81.0608 15.1782 81.0608 16.9607Z" fill="#D5C7A3"/>
    <path d="M74.5869 62.3884C74.5869 60.6059 76.0435 59.1475 77.8238 59.1475C79.6042 59.1475 81.0608 60.6059 81.0608 62.3884C81.0608 64.1709 79.6042 65.6294 77.8238 65.6294C76.0435 65.6294 74.5869 64.1709 74.5869 62.3884Z" fill="#D5C7A3"/>
    <path d="M79.9817 29.2222C79.9817 30.4105 79.0106 31.3828 77.8237 31.3828C76.6369 31.3828 75.6658 30.4105 75.6658 29.2222C75.6658 28.0338 76.6369 27.0615 77.8237 27.0615C79.0106 27.0615 79.9817 28.0338 79.9817 29.2222Z" fill="#D5C7A3"/>
    <path d="M79.9817 50.1265C79.9817 51.3148 79.0106 52.2871 77.8237 52.2871C76.6369 52.2871 75.6658 51.3148 75.6658 50.1265C75.6658 48.9381 76.6369 47.9658 77.8237 47.9658C79.0106 47.9658 79.9817 48.8841 79.9817 50.1265Z" fill="#D5C7A3"/>
    <path d="M67.4116 37.4873C68.5985 37.4873 69.5696 38.4596 69.5696 39.6479C69.5696 40.8363 68.5985 41.8086 67.4116 41.8086C66.2247 41.8086 65.2537 40.8363 65.2537 39.6479C65.2537 38.4596 66.2247 37.4873 67.4116 37.4873Z" fill="#D5C7A3"/>
    <path d="M88.2358 37.4873C89.4227 37.4873 90.3938 38.4596 90.3938 39.6479C90.3938 40.8363 89.4227 41.8086 88.2358 41.8086C87.049 41.8086 86.0779 40.8363 86.0779 39.6479C86.0779 38.4596 87.049 37.4873 88.2358 37.4873Z" fill="#D5C7A3"/>
    <path d="M100.482 42.8882C98.702 42.8882 97.2454 41.4297 97.2454 39.6472C97.2454 37.8647 98.702 36.4062 100.482 36.4062C102.263 36.4062 103.719 37.8647 103.719 39.6472C103.719 41.4837 102.263 42.8882 100.482 42.8882Z" fill="#D5C7A3"/>
    <path d="M55.1654 36.4609C56.9457 36.4609 58.4023 37.9194 58.4023 39.7019C58.4023 41.4844 56.9457 42.9428 55.1654 42.9428C53.3851 42.9428 51.9285 41.4844 51.9285 39.7019C51.9285 37.8654 53.3311 36.4609 55.1654 36.4609Z" fill="#D5C7A3"/>
    <path d="M91.5808 58.0134C90.3399 56.771 90.3399 54.7184 91.5808 53.422C92.8216 52.1796 94.8717 52.1796 96.1664 53.422C97.4072 54.6644 97.4072 56.717 96.1664 58.0134C94.8717 59.2557 92.8216 59.2557 91.5808 58.0134Z" fill="#D5C7A3"/>
    <path d="M64.0668 21.3361C65.3076 22.5784 65.3076 24.631 64.0668 25.9274C62.826 27.1698 60.7759 27.1698 59.4812 25.9274C58.2403 24.6851 58.2403 22.6325 59.4812 21.3361C60.7759 20.0937 62.826 20.0937 64.0668 21.3361Z" fill="#D5C7A3"/>
    <path d="M59.4812 53.422C60.722 52.1796 62.772 52.1796 64.0668 53.422C65.3076 54.6644 65.3076 56.717 64.0668 58.0134C62.826 59.2557 60.7759 59.2557 59.4812 58.0134C58.2403 56.771 58.2403 54.7184 59.4812 53.422Z" fill="#D5C7A3"/>
    <path d="M96.1125 25.9274C94.8716 27.1698 92.8216 27.1698 91.5268 25.9274C90.286 24.6851 90.286 22.6325 91.5268 21.3361C92.7676 20.0937 94.8177 20.0937 96.1125 21.3361C97.4072 22.5784 97.4072 24.631 96.1125 25.9274Z" fill="#D5C7A3"/>
    <path d="M72.1052 17.4475C72.8065 19.1219 71.9973 21.0125 70.3788 21.6607C68.7064 22.3629 66.8182 21.5527 66.1708 19.9322C65.4694 18.2577 66.2787 16.3671 67.8971 15.7189C69.5696 15.0167 71.4578 15.827 72.1052 17.4475Z" fill="#D5C7A3"/>
    <path d="M83.4884 61.9019C82.7871 60.2274 83.5963 58.3369 85.2148 57.6887C86.8872 56.9865 88.7754 57.7967 89.4228 59.4172C90.1241 61.0917 89.3149 62.9822 87.6964 63.6304C86.078 64.3326 84.1897 63.5224 83.4884 61.9019Z" fill="#D5C7A3"/>
    <path d="M89.4767 19.9319C88.7754 21.6064 86.8872 22.3627 85.2687 21.6604C83.5963 20.9582 82.841 19.0677 83.5423 17.4472C84.2437 15.7727 86.1319 15.0165 87.7504 15.7187C89.3688 16.4209 90.1781 18.3115 89.4767 19.9319Z" fill="#D5C7A3"/>
    <path d="M66.1708 59.4176C66.8721 57.7431 68.7603 56.9868 70.3788 57.635C72.0512 58.3372 72.8065 60.2278 72.1052 61.8483C71.4038 63.5228 69.5156 64.279 67.8971 63.5768C66.2247 62.9286 65.4694 61.038 66.1708 59.4176Z" fill="#D5C7A3"/>
    <path d="M55.6508 45.3732C57.3232 44.671 59.2114 45.4813 59.8588 47.1018C60.5601 48.7762 59.7509 50.6668 58.1324 51.315C56.46 52.0172 54.5718 51.207 53.9244 49.5865C53.2231 47.966 53.9784 46.0754 55.6508 45.3732Z" fill="#D5C7A3"/>
    <path d="M99.9967 33.9761C98.3243 34.6783 96.4361 33.8681 95.7887 32.2476C95.0874 30.5731 95.8966 28.6826 97.5151 28.0344C99.1875 27.3322 101.076 28.1424 101.723 29.7629C102.424 31.3834 101.669 33.2739 99.9967 33.9761Z" fill="#D5C7A3"/>
    <path d="M58.1324 27.9805C59.8049 28.6827 60.5601 30.5733 59.8588 32.1938C59.1575 33.8683 57.2693 34.6245 55.6508 33.9223C53.9784 33.2201 53.2231 31.3295 53.9244 29.709C54.5718 28.0886 56.46 27.3323 58.1324 27.9805Z" fill="#D5C7A3"/>
    <path d="M97.5152 51.3694C95.8427 50.6672 95.0875 48.7767 95.7348 47.1562C96.4362 45.4817 98.3244 44.7255 99.9429 45.4277C101.615 46.1299 102.371 48.0204 101.669 49.6409C101.076 51.2614 99.1876 52.0176 97.5152 51.3694Z" fill="#D5C7A3"/>
    <path d="M113.376 43.6991C111.164 43.6991 109.33 41.8625 109.33 39.6479C109.33 37.4332 111.164 35.5967 113.376 35.5967C115.588 35.5967 117.422 37.4332 117.422 39.6479C117.422 41.9165 115.642 43.6991 113.376 43.6991Z" fill="#D5C7A3"/>
    <path d="M42.2176 35.5967C44.4295 35.5967 46.2637 37.4332 46.2637 39.6479C46.2637 41.8625 44.4295 43.6991 42.2176 43.6991C40.0057 43.6991 38.1714 41.8625 38.1714 39.6479C38.1714 37.4332 40.0057 35.5967 42.2176 35.5967Z" fill="#D5C7A3"/>
    <path d="M100.105 67.7365C98.5403 66.17 98.5403 63.5772 100.105 62.0108C101.669 60.4443 104.259 60.4443 105.823 62.0108C107.388 63.5772 107.388 66.17 105.823 67.7365C104.259 69.3029 101.669 69.3029 100.105 67.7365Z" fill="#D5C7A3"/>
    <path d="M55.5429 11.6133C57.1074 13.1798 57.1074 15.7726 55.5429 17.339C53.9783 18.9055 51.3888 18.9055 49.8243 17.339C48.2597 15.7726 48.2597 13.1798 49.8243 11.6133C51.3888 10.0469 53.9244 10.0469 55.5429 11.6133Z" fill="#D5C7A3"/>
    <path d="M105.823 17.339C104.259 18.9055 101.669 18.9055 100.105 17.339C98.5403 15.7726 98.5403 13.1798 100.105 11.6133C101.669 10.0469 104.259 10.0469 105.823 11.6133C107.388 13.1798 107.388 15.7726 105.823 17.339Z" fill="#D5C7A3"/>
    <path d="M49.7703 62.0108C51.3348 60.4443 53.9244 60.4443 55.4889 62.0108C57.0534 63.5772 57.0534 66.17 55.4889 67.7365C53.9244 69.3029 51.3348 69.3029 49.7703 67.7365C48.2058 66.17 48.2058 63.5772 49.7703 62.0108Z" fill="#D5C7A3"/>
    <path d="M43.4043 49.5863C45.4544 48.7221 47.8281 49.6944 48.6913 51.801C49.5545 53.8536 48.5834 56.2303 46.4794 57.0946C44.4293 57.9588 42.0556 56.9865 41.1924 54.8799C40.3292 52.7733 41.3543 50.3966 43.4043 49.5863Z" fill="#D5C7A3"/>
    <path d="M112.243 29.7625C110.193 30.6268 107.819 29.6545 106.956 27.5479C106.093 25.4953 107.064 23.1186 109.168 22.2543C111.218 21.3901 113.592 22.3623 114.455 24.469C115.264 26.5756 114.293 28.9523 112.243 29.7625Z" fill="#D5C7A3"/>
    <path d="M60.4524 71.031C61.3156 68.9784 63.6893 68.0061 65.7394 68.8163C67.7895 69.6806 68.7605 72.0573 67.9513 74.1099C67.0881 76.1625 64.7144 77.1348 62.6643 76.3245C60.5603 75.4603 59.5892 73.0836 60.4524 71.031Z" fill="#D5C7A3"/>
    <path d="M95.1413 8.31887C94.2781 10.3715 91.9044 11.3438 89.8543 10.5335C87.8042 9.66926 86.8331 7.29256 87.6424 5.23996C88.5056 3.18735 90.8793 2.21507 92.9294 3.0253C95.0334 3.88956 96.0045 6.26626 95.1413 8.31887Z" fill="#D5C7A3"/>
    <path d="M87.6965 74.1094C86.8334 72.0568 87.8044 69.6801 89.9085 68.8158C91.9585 67.9516 94.3323 68.9239 95.1954 71.0305C96.0586 73.0831 95.0876 75.4598 92.9835 76.324C90.9335 77.1883 88.5597 76.216 87.6965 74.1094Z" fill="#D5C7A3"/>
    <path d="M67.9513 5.23947C68.8145 7.29208 67.8434 9.66878 65.7394 10.533C63.6893 11.3973 61.3156 10.425 60.4524 8.31838C59.5892 6.26577 60.5603 3.88907 62.6643 3.02482C64.7144 2.16056 67.0881 3.13285 67.9513 5.23947Z" fill="#D5C7A3"/>
    <path d="M109.114 57.0413C107.064 56.1771 106.093 53.8004 106.902 51.7478C107.766 49.6952 110.139 48.7229 112.189 49.5331C114.239 50.3974 115.211 52.7741 114.401 54.8267C113.592 56.9333 111.218 57.9056 109.114 57.0413Z" fill="#D5C7A3"/>
    <path d="M46.4794 22.309C48.5295 23.1733 49.5006 25.55 48.6913 27.6026C47.8281 29.6552 45.4544 30.6275 43.4043 29.8172C41.3543 28.953 40.3832 26.5763 41.1924 24.5237C42.0556 22.417 44.4294 21.4447 46.4794 22.309Z" fill="#D5C7A3"/>
    <path d="M74.4791 29.5471C75.0725 30.5734 74.7488 31.9238 73.6699 32.518C72.6448 33.1122 71.2961 32.7341 70.7027 31.7078C70.1092 30.6815 70.4869 29.3311 71.5119 28.7369C72.5369 28.1967 73.8857 28.5208 74.4791 29.5471Z" fill="#D5C7A3"/>
    <path d="M84.8914 47.6424C85.4849 48.6687 85.1612 50.0191 84.0822 50.6133C83.0572 51.2075 81.7085 50.8293 81.115 49.803C80.5216 48.7767 80.8992 47.4263 81.9243 46.8322C82.9493 46.238 84.298 46.6161 84.8914 47.6424Z" fill="#D5C7A3"/>
    <path d="M87.9123 36.3525C86.8873 36.9467 85.5385 36.6226 84.9451 35.5423C84.3517 34.516 84.7293 33.1656 85.7543 32.5714C86.7794 31.9773 88.1281 32.3554 88.7215 33.3817C89.315 34.408 88.9373 35.7584 87.9123 36.3525Z" fill="#D5C7A3"/>
    <path d="M69.8932 46.7773C68.8682 47.3715 67.5195 47.0474 66.9261 45.9671C66.3326 44.9408 66.7103 43.5904 67.7353 42.9962C68.7603 42.4021 70.109 42.7802 70.7025 43.8065C71.242 44.8328 70.9183 46.1832 69.8932 46.7773Z" fill="#D5C7A3"/>
    <path d="M84.8914 31.7073C84.298 32.7336 82.9493 33.1118 81.9243 32.5176C80.8992 31.9234 80.5216 30.573 81.115 29.5467C81.7085 28.5204 83.0572 28.1423 84.0822 28.7365C85.1072 29.3847 85.4849 30.681 84.8914 31.7073Z" fill="#D5C7A3"/>
    <path d="M74.4791 49.803C73.8857 50.8293 72.5369 51.2075 71.5119 50.6133C70.4869 50.0191 70.1092 48.6687 70.7027 47.6424C71.2961 46.6161 72.6448 46.238 73.6699 46.8322C74.6949 47.4263 75.0725 48.7767 74.4791 49.803Z" fill="#D5C7A3"/>
    <path d="M79.9817 29.2222C79.9817 30.4105 79.0106 31.3828 77.8237 31.3828C76.6369 31.3828 75.6658 30.4105 75.6658 29.2222C75.6658 28.0338 76.6369 27.0615 77.8237 27.0615C79.0106 27.0615 79.9817 28.0338 79.9817 29.2222Z" fill="#D5C7A3"/>
    <path d="M79.9817 50.1265C79.9817 51.3148 79.0106 52.2871 77.8237 52.2871C76.6369 52.2871 75.6658 51.3148 75.6658 50.1265C75.6658 48.9381 76.6369 47.9658 77.8237 47.9658C79.0106 47.9658 79.9817 48.8841 79.9817 50.1265Z" fill="#D5C7A3"/>
    <path d="M67.7353 36.3525C68.7603 36.9467 70.109 36.6226 70.7025 35.5423C71.2959 34.516 70.9183 33.1656 69.8932 32.5714C68.8682 31.9773 67.5195 32.3554 66.926 33.3817C66.3326 34.408 66.6563 35.7584 67.7353 36.3525Z" fill="#D5C7A3"/>
    <path d="M85.7543 46.7773C86.7794 47.3715 88.1281 47.0474 88.7215 45.9671C89.315 44.9408 88.9373 43.5904 87.9123 42.9962C86.8873 42.4021 85.5385 42.7802 84.9451 43.8065C84.3517 44.8328 84.7293 46.1832 85.7543 46.7773Z" fill="#D5C7A3"/>
    </svg>
    