<svg width="156" height="123" viewBox="0 0 156 123" fill="none" xmlns="http://www.w3.org/2000/svg">
<path d="M45.1846 121.536V95.7168H46.9109C47.2346 95.7168 47.4504 95.9329 47.4504 96.257V119.484H59.0494C59.3731 119.484 59.5889 119.7 59.5889 120.024V121.536H45.1846Z" fill="#655B50"/>
<path d="M30.0791 95.7168H31.8055C32.1292 95.7168 32.345 95.9329 32.345 96.257V121.536H30.0791V95.7168Z" fill="#655B50"/>
<path d="M103.449 100.632V121.536H101.184V96.4727C101.184 95.9866 101.777 95.7705 102.101 96.0946L121.792 116.783V95.7705H124.058V120.942C124.058 121.428 123.464 121.644 123.141 121.32L103.449 100.632Z" fill="#655B50"/>
<path d="M139.433 111.975H149.414L144.505 100.146L139.433 111.975ZM153.406 121.536L150.277 114.028H138.516L135.333 121.536H132.852L144.019 96.0946C144.235 95.6625 144.828 95.6625 144.99 96.0946L155.942 121.536H153.406Z" fill="#655B50"/>
<path d="M78.4171 97.229C70.109 97.229 67.7892 103.549 67.2497 105.493C67.2497 105.493 67.1418 105.926 67.0879 106.52C67.2497 106.52 89.4767 106.52 89.7464 106.52C89.6385 105.764 89.5306 105.493 89.5306 105.493C88.9372 102.631 85.8621 97.229 78.4171 97.229ZM78.4171 122.454C70.3248 122.454 64.6602 116.783 64.6602 108.68C64.6602 100.794 70.4327 95.0684 78.4171 95.0684C86.2397 95.0684 91.9583 101.226 92.0662 108.68H66.8181V108.896C66.8181 115.594 71.3498 120.294 78.3632 120.294C82.733 120.294 86.0239 118.565 88.1819 115.108C88.3437 114.892 88.6135 114.784 88.8832 114.892L90.5017 115.648C89.153 118.241 85.7542 122.454 78.4171 122.454Z" fill="#655B50"/>
<path d="M0.137375 117.863C-0.0784203 118.079 -0.0244713 118.457 0.191324 118.619C3.37431 121.32 6.5573 122.508 10.4956 122.508C15.7286 122.508 19.3971 119.483 19.3971 115.162V115.108C19.3971 111.165 16.7536 108.95 10.6035 107.708C5.69411 106.681 3.05062 105.493 3.05062 102.09V102.036C3.05062 99.2273 5.69412 97.2287 9.30869 97.2287C12.3298 97.2287 14.7036 98.147 17.0773 100.146L18.1563 98.7951C18.3721 98.5791 18.3182 98.201 18.0484 98.0389C15.351 95.9863 12.8693 95.1221 9.36264 95.1221C4.45329 95.1221 0.730814 98.147 0.730814 102.198V102.252C0.730814 106.357 3.32036 108.518 9.74028 109.814C14.4878 110.787 17.0773 111.921 17.0773 115.27V115.324C17.0773 118.295 14.3799 120.402 10.5495 120.402C6.82704 120.402 4.23749 119.321 1.21635 116.512L0.137375 117.863Z" fill="#655B50"/>
<path d="M81.8697 4.0512C81.8697 6.26585 80.0354 8.10239 77.8235 8.10239C75.6116 8.10239 73.7773 6.26585 73.7773 4.0512C73.7773 1.83654 75.6116 0 77.8235 0C80.0354 0 81.8697 1.83654 81.8697 4.0512Z" fill="#D5C7A3"/>
<path d="M73.7773 75.2983C73.7773 73.0836 75.6116 71.2471 77.8235 71.2471C80.0354 71.2471 81.8697 73.0836 81.8697 75.2983C81.8697 77.5129 80.0354 79.3495 77.8235 79.3495C75.5577 79.3495 73.7773 77.5129 73.7773 75.2983Z" fill="#D5C7A3"/>
<path d="M81.0608 16.9607C81.0608 18.7432 79.6042 20.2016 77.8238 20.2016C76.0435 20.2016 74.5869 18.7432 74.5869 16.9607C74.5869 15.1782 76.0435 13.7197 77.8238 13.7197C79.6042 13.7197 81.0608 15.1782 81.0608 16.9607Z" fill="#D5C7A3"/>
<path d="M74.5869 62.3884C74.5869 60.6059 76.0435 59.1475 77.8238 59.1475C79.6042 59.1475 81.0608 60.6059 81.0608 62.3884C81.0608 64.1709 79.6042 65.6294 77.8238 65.6294C76.0435 65.6294 74.5869 64.1709 74.5869 62.3884Z" fill="#D5C7A3"/>
<path d="M79.981 29.2222C79.981 30.4105 79.0099 31.3828 77.823 31.3828C76.6361 31.3828 75.665 30.4105 75.665 29.2222C75.665 28.0338 76.6361 27.0615 77.823 27.0615C79.0099 27.0615 79.981 28.0338 79.981 29.2222Z" fill="#D5C7A3"/>
<path d="M79.981 50.1265C79.981 51.3148 79.0099 52.2871 77.823 52.2871C76.6361 52.2871 75.665 51.3148 75.665 50.1265C75.665 48.9381 76.6361 47.9658 77.823 47.9658C79.0099 47.9658 79.981 48.8841 79.981 50.1265Z" fill="#D5C7A3"/>
<path d="M67.4109 37.4873C68.5978 37.4873 69.5688 38.4596 69.5688 39.6479C69.5688 40.8363 68.5978 41.8086 67.4109 41.8086C66.224 41.8086 65.2529 40.8363 65.2529 39.6479C65.2529 38.4596 66.224 37.4873 67.4109 37.4873Z" fill="#D5C7A3"/>
<path d="M88.2351 37.4873C89.422 37.4873 90.3931 38.4596 90.3931 39.6479C90.3931 40.8363 89.422 41.8086 88.2351 41.8086C87.0482 41.8086 86.0771 40.8363 86.0771 39.6479C86.0771 38.4596 87.0482 37.4873 88.2351 37.4873Z" fill="#D5C7A3"/>
<path d="M100.482 42.8882C98.7017 42.8882 97.2451 41.4297 97.2451 39.6472C97.2451 37.8647 98.7017 36.4062 100.482 36.4062C102.262 36.4062 103.719 37.8647 103.719 39.6472C103.719 41.4837 102.262 42.8882 100.482 42.8882Z" fill="#D5C7A3"/>
<path d="M55.1647 36.4609C56.945 36.4609 58.4016 37.9194 58.4016 39.7019C58.4016 41.4844 56.945 42.9428 55.1647 42.9428C53.3844 42.9428 51.9277 41.4844 51.9277 39.7019C51.9277 37.8654 53.3304 36.4609 55.1647 36.4609Z" fill="#D5C7A3"/>
<path d="M91.58 58.0134C90.3392 56.771 90.3392 54.7184 91.58 53.422C92.8209 52.1796 94.8709 52.1796 96.1657 53.422C97.4065 54.6644 97.4065 56.717 96.1657 58.0134C94.8709 59.2557 92.8209 59.2557 91.58 58.0134Z" fill="#D5C7A3"/>
<path d="M64.0661 21.3361C65.3069 22.5784 65.3069 24.631 64.0661 25.9274C62.8253 27.1698 60.7752 27.1698 59.4804 25.9274C58.2396 24.6851 58.2396 22.6325 59.4804 21.3361C60.7752 20.0937 62.8253 20.0937 64.0661 21.3361Z" fill="#D5C7A3"/>
<path d="M59.4804 53.422C60.7212 52.1796 62.7713 52.1796 64.0661 53.422C65.3069 54.6644 65.3069 56.717 64.0661 58.0134C62.8253 59.2557 60.7752 59.2557 59.4804 58.0134C58.2396 56.771 58.2396 54.7184 59.4804 53.422Z" fill="#D5C7A3"/>
<path d="M96.112 25.9274C94.8712 27.1698 92.8211 27.1698 91.5263 25.9274C90.2855 24.6851 90.2855 22.6325 91.5263 21.3361C92.7671 20.0937 94.8172 20.0937 96.112 21.3361C97.4068 22.5784 97.4068 24.631 96.112 25.9274Z" fill="#D5C7A3"/>
<path d="M72.1052 17.4475C72.8065 19.1219 71.9973 21.0125 70.3788 21.6607C68.7064 22.3629 66.8182 21.5527 66.1708 19.9322C65.4694 18.2577 66.2787 16.3671 67.8971 15.7189C69.5696 15.0167 71.4578 15.827 72.1052 17.4475Z" fill="#D5C7A3"/>
<path d="M83.4882 61.9019C82.7868 60.2274 83.5961 58.3369 85.2145 57.6887C86.8869 56.9865 88.7752 57.7967 89.4225 59.4172C90.1239 61.0917 89.3146 62.9822 87.6962 63.6304C86.0777 64.3326 84.1895 63.5224 83.4882 61.9019Z" fill="#D5C7A3"/>
<path d="M89.476 19.9319C88.7747 21.6064 86.8864 22.3627 85.268 21.6604C83.5956 20.9582 82.8403 19.0677 83.5416 17.4472C84.243 15.7727 86.1312 15.0165 87.7496 15.7187C89.3681 16.4209 90.1773 18.3115 89.476 19.9319Z" fill="#D5C7A3"/>
<path d="M66.1705 59.4176C66.8719 57.7431 68.7601 56.9868 70.3785 57.635C72.051 58.3372 72.8062 60.2278 72.1049 61.8483C71.4036 63.5228 69.5154 64.279 67.8969 63.5768C66.2245 62.9286 65.4692 61.038 66.1705 59.4176Z" fill="#D5C7A3"/>
<path d="M55.6508 45.3732C57.3232 44.671 59.2114 45.4813 59.8588 47.1018C60.5601 48.7762 59.7509 50.6668 58.1324 51.315C56.46 52.0172 54.5718 51.207 53.9244 49.5865C53.2231 47.966 53.9784 46.0754 55.6508 45.3732Z" fill="#D5C7A3"/>
<path d="M99.996 33.9761C98.3236 34.6783 96.4354 33.8681 95.788 32.2476C95.0866 30.5731 95.8959 28.6826 97.5143 28.0344C99.1867 27.3322 101.075 28.1424 101.722 29.7629C102.424 31.3834 101.668 33.2739 99.996 33.9761Z" fill="#D5C7A3"/>
<path d="M58.1324 27.9805C59.8049 28.6827 60.5601 30.5733 59.8588 32.1938C59.1575 33.8683 57.2693 34.6245 55.6508 33.9223C53.9784 33.2201 53.2231 31.3295 53.9244 29.709C54.5718 28.0886 56.46 27.3323 58.1324 27.9805Z" fill="#D5C7A3"/>
<path d="M97.5147 51.3694C95.8423 50.6672 95.087 48.7767 95.7344 47.1562C96.4357 45.4817 98.3239 44.7255 99.9424 45.4277C101.615 46.1299 102.37 48.0204 101.669 49.6409C101.075 51.2614 99.1871 52.0176 97.5147 51.3694Z" fill="#D5C7A3"/>
<path d="M113.375 43.6991C111.163 43.6991 109.329 41.8625 109.329 39.6479C109.329 37.4332 111.163 35.5967 113.375 35.5967C115.587 35.5967 117.421 37.4332 117.421 39.6479C117.421 41.9165 115.641 43.6991 113.375 43.6991Z" fill="#D5C7A3"/>
<path d="M42.2171 35.5967C44.429 35.5967 46.2632 37.4332 46.2632 39.6479C46.2632 41.8625 44.429 43.6991 42.2171 43.6991C40.0052 43.6991 38.1709 41.8625 38.1709 39.6479C38.1709 37.4332 40.0052 35.5967 42.2171 35.5967Z" fill="#D5C7A3"/>
<path d="M100.104 67.7365C98.5395 66.17 98.5395 63.5772 100.104 62.0108C101.669 60.4443 104.258 60.4443 105.823 62.0108C107.387 63.5772 107.387 66.17 105.823 67.7365C104.258 69.3029 101.669 69.3029 100.104 67.7365Z" fill="#D5C7A3"/>
<path d="M55.5424 11.6133C57.1069 13.1798 57.1069 15.7726 55.5424 17.339C53.9778 18.9055 51.3883 18.9055 49.8238 17.339C48.2593 15.7726 48.2593 13.1798 49.8238 11.6133C51.3883 10.0469 53.9239 10.0469 55.5424 11.6133Z" fill="#D5C7A3"/>
<path d="M105.823 17.339C104.258 18.9055 101.669 18.9055 100.104 17.339C98.5395 15.7726 98.5395 13.1798 100.104 11.6133C101.669 10.0469 104.258 10.0469 105.823 11.6133C107.387 13.1798 107.387 15.7726 105.823 17.339Z" fill="#D5C7A3"/>
<path d="M49.7701 62.0108C51.3346 60.4443 53.9241 60.4443 55.4887 62.0108C57.0532 63.5772 57.0532 66.17 55.4887 67.7365C53.9241 69.3029 51.3346 69.3029 49.7701 67.7365C48.2056 66.17 48.2056 63.5772 49.7701 62.0108Z" fill="#D5C7A3"/>
<path d="M43.4038 49.5863C45.4539 48.7221 47.8276 49.6944 48.6908 51.801C49.554 53.8536 48.5829 56.2303 46.4789 57.0946C44.4289 57.9588 42.0551 56.9865 41.1919 54.8799C40.3287 52.7733 41.3538 50.3966 43.4038 49.5863Z" fill="#D5C7A3"/>
<path d="M112.243 29.7625C110.193 30.6268 107.819 29.6545 106.956 27.5479C106.093 25.4953 107.064 23.1186 109.168 22.2543C111.218 21.3901 113.592 22.3623 114.455 24.469C115.264 26.5756 114.293 28.9523 112.243 29.7625Z" fill="#D5C7A3"/>
<path d="M60.4522 71.031C61.3153 68.9784 63.6891 68.0061 65.7392 68.8163C67.7892 69.6806 68.7603 72.0573 67.9511 74.1099C67.0879 76.1625 64.7141 77.1348 62.6641 76.3245C60.5601 75.4603 59.589 73.0836 60.4522 71.031Z" fill="#D5C7A3"/>
<path d="M95.141 8.31887C94.2779 10.3715 91.9041 11.3438 89.854 10.5335C87.804 9.66926 86.8329 7.29256 87.6421 5.23996C88.5053 3.18735 90.8791 2.21507 92.9291 3.0253C95.0331 3.88956 96.0042 6.26626 95.141 8.31887Z" fill="#D5C7A3"/>
<path d="M87.6963 74.1094C86.8331 72.0568 87.8042 69.6801 89.9082 68.8158C91.9583 67.9516 94.332 68.9239 95.1952 71.0305C96.0584 73.0831 95.0873 75.4598 92.9833 76.324C90.9332 77.1883 88.5595 76.216 87.6963 74.1094Z" fill="#D5C7A3"/>
<path d="M67.9511 5.23947C68.8142 7.29208 67.8432 9.66878 65.7392 10.533C63.6891 11.3973 61.3153 10.425 60.4522 8.31838C59.589 6.26577 60.5601 3.88907 62.6641 3.02482C64.7141 2.16056 67.0879 3.13285 67.9511 5.23947Z" fill="#D5C7A3"/>
<path d="M109.114 57.0404C107.064 56.1761 106.093 53.7994 106.902 51.7468C107.765 49.6942 110.139 48.7219 112.189 49.5321C114.239 50.3964 115.21 52.7731 114.401 54.8257C113.592 56.9323 111.218 57.9046 109.114 57.0404Z" fill="#D5C7A3"/>
<path d="M46.4789 22.309C48.529 23.1733 49.5001 25.55 48.6908 27.6026C47.8277 29.6552 45.4539 30.6275 43.4038 29.8172C41.3538 28.953 40.3827 26.5763 41.1919 24.5237C42.0551 22.417 44.4289 21.4447 46.4789 22.309Z" fill="#D5C7A3"/>
<path d="M74.4784 29.5471C75.0718 30.5734 74.7481 31.9238 73.6691 32.518C72.6441 33.1122 71.2954 32.7341 70.7019 31.7078C70.1085 30.6815 70.4861 29.3311 71.5112 28.7369C72.5362 28.1967 73.8849 28.5208 74.4784 29.5471Z" fill="#D5C7A3"/>
<path d="M84.8905 47.6424C85.4839 48.6687 85.1602 50.0191 84.0812 50.6133C83.0562 51.2075 81.7075 50.8293 81.114 49.803C80.5206 48.7767 80.8982 47.4263 81.9233 46.8322C82.9483 46.238 84.297 46.6161 84.8905 47.6424Z" fill="#D5C7A3"/>
<path d="M87.9113 36.3525C86.8863 36.9467 85.5376 36.6226 84.9441 35.5423C84.3507 34.516 84.7283 33.1656 85.7534 32.5714C86.7784 31.9773 88.1271 32.3554 88.7205 33.3817C89.314 34.408 88.9363 35.7584 87.9113 36.3525Z" fill="#D5C7A3"/>
<path d="M69.8928 46.7773C68.8677 47.3715 67.519 47.0474 66.9256 45.9671C66.3321 44.9408 66.7098 43.5904 67.7348 42.9962C68.7598 42.4021 70.1086 42.7802 70.702 43.8065C71.2415 44.8328 70.9178 46.1832 69.8928 46.7773Z" fill="#D5C7A3"/>
<path d="M84.8905 31.7073C84.297 32.7336 82.9483 33.1118 81.9233 32.5176C80.8982 31.9234 80.5206 30.573 81.114 29.5467C81.7075 28.5204 83.0562 28.1423 84.0812 28.7365C85.1063 29.3847 85.4839 30.681 84.8905 31.7073Z" fill="#D5C7A3"/>
<path d="M74.4784 49.803C73.8849 50.8293 72.5362 51.2075 71.5112 50.6133C70.4861 50.0191 70.1085 48.6687 70.7019 47.6424C71.2954 46.6161 72.6441 46.238 73.6691 46.8322C74.6942 47.4263 75.0718 48.7767 74.4784 49.803Z" fill="#D5C7A3"/>
<path d="M79.981 29.2222C79.981 30.4105 79.0099 31.3828 77.823 31.3828C76.6361 31.3828 75.665 30.4105 75.665 29.2222C75.665 28.0338 76.6361 27.0615 77.823 27.0615C79.0099 27.0615 79.981 28.0338 79.981 29.2222Z" fill="#D5C7A3"/>
<path d="M79.981 50.1265C79.981 51.3148 79.0099 52.2871 77.823 52.2871C76.6361 52.2871 75.665 51.3148 75.665 50.1265C75.665 48.9381 76.6361 47.9658 77.823 47.9658C79.0099 47.9658 79.981 48.8841 79.981 50.1265Z" fill="#D5C7A3"/>
<path d="M67.7348 36.3525C68.7598 36.9467 70.1085 36.6226 70.702 35.5423C71.2954 34.516 70.9178 33.1656 69.8927 32.5714C68.8677 31.9773 67.519 32.3554 66.9256 33.3817C66.3321 34.408 66.6558 35.7584 67.7348 36.3525Z" fill="#D5C7A3"/>
<path d="M85.7534 46.7773C86.7784 47.3715 88.1271 47.0474 88.7205 45.9671C89.314 44.9408 88.9363 43.5904 87.9113 42.9962C86.8863 42.4021 85.5376 42.7802 84.9441 43.8065C84.3507 44.8328 84.7283 46.1832 85.7534 46.7773Z" fill="#D5C7A3"/>
</svg>
