<svg width="16" height="16" viewBox="0 0 16 16" fill="none" xmlns="http://www.w3.org/2000/svg">
<path d="M8.78847 1.42949C8.78847 1.85093 8.43942 2.20041 8.0185 2.20041C7.59759 2.20041 7.24854 1.85093 7.24854 1.42949C7.24854 1.00805 7.59759 0.658569 8.0185 0.658569C8.43942 0.658569 8.78847 1.00805 8.78847 1.42949Z" fill="#D5C7A3"/>
<path d="M7.24854 14.9875C7.24854 14.566 7.59759 14.2166 8.0185 14.2166C8.43942 14.2166 8.78847 14.566 8.78847 14.9875C8.78847 15.4089 8.43942 15.7584 8.0185 15.7584C7.58732 15.7584 7.24854 15.4089 7.24854 14.9875Z" fill="#D5C7A3"/>
<path d="M8.63429 3.88627C8.63429 4.22548 8.3571 4.50301 8.01832 4.50301C7.67953 4.50301 7.40234 4.22548 7.40234 3.88627C7.40234 3.54706 7.67953 3.26953 8.01832 3.26953C8.3571 3.26953 8.63429 3.54706 8.63429 3.88627Z" fill="#D5C7A3"/>
<path d="M7.40234 12.5308C7.40234 12.1916 7.67953 11.9141 8.01832 11.9141C8.3571 11.9141 8.63429 12.1916 8.63429 12.5308C8.63429 12.87 8.3571 13.1475 8.01832 13.1475C7.67953 13.1475 7.40234 12.87 7.40234 12.5308Z" fill="#D5C7A3"/>
<path d="M8.42872 6.21951C8.42872 6.44565 8.24393 6.63067 8.01807 6.63067C7.79221 6.63067 7.60742 6.44565 7.60742 6.21951C7.60742 5.99337 7.79221 5.80835 8.01807 5.80835C8.24393 5.80835 8.42872 5.99337 8.42872 6.21951Z" fill="#D5C7A3"/>
<path d="M8.42872 10.1974C8.42872 10.4236 8.24393 10.6086 8.01807 10.6086C7.79221 10.6086 7.60742 10.4236 7.60742 10.1974C7.60742 9.97128 7.79221 9.78625 8.01807 9.78625C8.24393 9.78625 8.42872 9.961 8.42872 10.1974Z" fill="#D5C7A3"/>
<path d="M6.03663 7.79224C6.26248 7.79224 6.44727 7.97726 6.44727 8.20339C6.44727 8.42953 6.26248 8.61455 6.03663 8.61455C5.81077 8.61455 5.62598 8.42953 5.62598 8.20339C5.62598 7.97726 5.81077 7.79224 6.03663 7.79224Z" fill="#D5C7A3"/>
<path d="M9.99952 7.79224C10.2254 7.79224 10.4102 7.97726 10.4102 8.20339C10.4102 8.42953 10.2254 8.61455 9.99952 8.61455C9.77366 8.61455 9.58887 8.42953 9.58887 8.20339C9.58887 7.97726 9.77366 7.79224 9.99952 7.79224Z" fill="#D5C7A3"/>
<path d="M12.3303 8.82015C11.9915 8.82015 11.7144 8.54261 11.7144 8.20341C11.7144 7.8642 11.9915 7.58667 12.3303 7.58667C12.6691 7.58667 12.9463 7.8642 12.9463 8.20341C12.9463 8.55289 12.6691 8.82015 12.3303 8.82015Z" fill="#D5C7A3"/>
<path d="M3.70679 7.5968C4.04558 7.5968 4.32277 7.87433 4.32277 8.21354C4.32277 8.55275 4.04558 8.83028 3.70679 8.83028C3.36801 8.83028 3.09082 8.55275 3.09082 8.21354C3.09082 7.86405 3.35774 7.5968 3.70679 7.5968Z" fill="#D5C7A3"/>
<path d="M10.6361 11.6982C10.4 11.4618 10.4 11.0712 10.6361 10.8245C10.8722 10.5881 11.2623 10.5881 11.5087 10.8245C11.7448 11.0609 11.7448 11.4515 11.5087 11.6982C11.2623 11.9347 10.8722 11.9347 10.6361 11.6982Z" fill="#D5C7A3"/>
<path d="M5.40031 4.71882C5.63643 4.95523 5.63643 5.34583 5.40031 5.59253C5.16418 5.82894 4.77407 5.82894 4.52768 5.59253C4.29156 5.35611 4.29156 4.96551 4.52768 4.71882C4.77407 4.4824 5.16418 4.4824 5.40031 4.71882Z" fill="#D5C7A3"/>
<path d="M4.52768 10.8245C4.7638 10.5881 5.15392 10.5881 5.40031 10.8245C5.63643 11.0609 5.63643 11.4515 5.40031 11.6982C5.16418 11.9347 4.77407 11.9347 4.52768 11.6982C4.29156 11.4618 4.29156 11.0712 4.52768 10.8245Z" fill="#D5C7A3"/>
<path d="M11.4985 5.59253C11.2623 5.82894 10.8722 5.82894 10.6258 5.59253C10.3897 5.35611 10.3897 4.96551 10.6258 4.71882C10.8619 4.4824 11.2521 4.4824 11.4985 4.71882C11.7448 4.95523 11.7448 5.34583 11.4985 5.59253Z" fill="#D5C7A3"/>
<path d="M6.93002 3.97872C7.06348 4.29737 6.90949 4.65713 6.6015 4.78048C6.28325 4.91411 5.92393 4.75992 5.80074 4.45155C5.66727 4.13291 5.82127 3.77314 6.12925 3.64979C6.44751 3.51617 6.80683 3.67035 6.93002 3.97872Z" fill="#D5C7A3"/>
<path d="M9.09615 12.4384C8.96269 12.1197 9.11668 11.76 9.42466 11.6366C9.74292 11.503 10.1022 11.6572 10.2254 11.9655C10.3589 12.2842 10.2049 12.6439 9.89691 12.7673C9.58892 12.9009 9.22961 12.7467 9.09615 12.4384Z" fill="#D5C7A3"/>
<path d="M10.2357 4.45153C10.1022 4.77018 9.74288 4.91408 9.43489 4.78046C9.11664 4.64683 8.97291 4.28707 9.10637 3.9787C9.23983 3.66005 9.59915 3.51614 9.90714 3.64977C10.2151 3.7834 10.3691 4.14316 10.2357 4.45153Z" fill="#D5C7A3"/>
<path d="M5.80071 11.9655C5.93417 11.6469 6.29349 11.503 6.60147 11.6263C6.91973 11.7599 7.06345 12.1197 6.92999 12.4281C6.79653 12.7467 6.43721 12.8906 6.12923 12.757C5.81098 12.6336 5.66725 12.2739 5.80071 11.9655Z" fill="#D5C7A3"/>
<path d="M3.79866 9.29298C4.11691 9.15936 4.47623 9.31354 4.59943 9.62191C4.73289 9.94056 4.57889 10.3003 4.27091 10.4237C3.95265 10.5573 3.59334 10.4031 3.47014 10.0947C3.33668 9.78637 3.48041 9.42661 3.79866 9.29298Z" fill="#D5C7A3"/>
<path d="M12.2377 7.12411C11.9195 7.25774 11.5602 7.10355 11.437 6.79518C11.3035 6.47653 11.4575 6.11677 11.7655 5.99342C12.0837 5.8598 12.4431 6.01398 12.5662 6.32235C12.6997 6.63072 12.556 6.99048 12.2377 7.12411Z" fill="#D5C7A3"/>
<path d="M4.27091 5.98314C4.58916 6.11677 4.73289 6.47653 4.59943 6.7849C4.46596 7.10355 4.10665 7.24745 3.79866 7.11383C3.48041 6.9802 3.33668 6.62044 3.47014 6.31207C3.59334 6.0037 3.95265 5.85979 4.27091 5.98314Z" fill="#D5C7A3"/>
<path d="M11.7655 10.4339C11.4472 10.3003 11.3035 9.94051 11.4267 9.63214C11.5601 9.31349 11.9194 9.16958 12.2274 9.30321C12.5457 9.43684 12.6894 9.7966 12.5559 10.105C12.443 10.4133 12.0837 10.5572 11.7655 10.4339Z" fill="#D5C7A3"/>
<path d="M14.7836 8.97422C14.3627 8.97422 14.0137 8.62473 14.0137 8.2033C14.0137 7.78186 14.3627 7.43237 14.7836 7.43237C15.2046 7.43237 15.5536 7.78186 15.5536 8.2033C15.5536 8.63501 15.2148 8.97422 14.7836 8.97422Z" fill="#D5C7A3"/>
<path d="M1.24262 7.43237C1.66354 7.43237 2.01259 7.78186 2.01259 8.2033C2.01259 8.62473 1.66354 8.97422 1.24262 8.97422C0.821708 8.97422 0.472656 8.62473 0.472656 8.2033C0.472656 7.78186 0.821708 7.43237 1.24262 7.43237Z" fill="#D5C7A3"/>
<path d="M12.258 13.5485C11.9602 13.2504 11.9602 12.757 12.258 12.4589C12.5557 12.1608 13.0485 12.1608 13.3462 12.4589C13.6439 12.757 13.6439 13.2504 13.3462 13.5485C13.0485 13.8466 12.5557 13.8466 12.258 13.5485Z" fill="#D5C7A3"/>
<path d="M3.77831 2.86859C4.07603 3.16668 4.07603 3.66007 3.77831 3.95816C3.48059 4.25625 2.98781 4.25625 2.69009 3.95816C2.39237 3.66007 2.39237 3.16668 2.69009 2.86859C2.98781 2.5705 3.47032 2.5705 3.77831 2.86859Z" fill="#D5C7A3"/>
<path d="M13.3462 3.95816C13.0485 4.25625 12.5557 4.25625 12.258 3.95816C11.9602 3.66007 11.9602 3.16668 12.258 2.86859C12.5557 2.5705 13.0485 2.5705 13.3462 2.86859C13.6439 3.16668 13.6439 3.66007 13.3462 3.95816Z" fill="#D5C7A3"/>
<path d="M2.67983 12.4589C2.97755 12.1608 3.47033 12.1608 3.76805 12.4589C4.06577 12.757 4.06577 13.2504 3.76805 13.5485C3.47033 13.8466 2.97755 13.8466 2.67983 13.5485C2.38211 13.2504 2.38211 12.757 2.67983 12.4589Z" fill="#D5C7A3"/>
<path d="M1.46862 10.0947C1.85874 9.93024 2.31045 10.1153 2.47471 10.5161C2.63897 10.9067 2.45418 11.359 2.0538 11.5235C1.66368 11.6879 1.21197 11.5029 1.04771 11.102C0.88345 10.7012 1.07851 10.2489 1.46862 10.0947Z" fill="#D5C7A3"/>
<path d="M14.5684 6.32231C14.1783 6.48677 13.7265 6.30175 13.5623 5.90087C13.398 5.51027 13.5828 5.058 13.9832 4.89353C14.3733 4.72907 14.825 4.91409 14.9893 5.31497C15.1433 5.71585 14.9585 6.16813 14.5684 6.32231Z" fill="#D5C7A3"/>
<path d="M4.71267 14.1754C4.87693 13.7848 5.32865 13.5998 5.71876 13.754C6.10888 13.9184 6.29367 14.3707 6.13968 14.7613C5.97542 15.1519 5.5237 15.3369 5.13359 15.1827C4.73321 15.0183 4.54841 14.566 4.71267 14.1754Z" fill="#D5C7A3"/>
<path d="M11.3137 2.24164C11.1494 2.63224 10.6977 2.81726 10.3076 2.66308C9.9175 2.49861 9.73271 2.04634 9.8867 1.65574C10.051 1.26514 10.5027 1.08012 10.8928 1.2343C11.2932 1.39876 11.478 1.85104 11.3137 2.24164Z" fill="#D5C7A3"/>
<path d="M9.89724 14.7613C9.73298 14.3707 9.91778 13.9185 10.3182 13.754C10.7083 13.5895 11.16 13.7746 11.3242 14.1754C11.4885 14.566 11.3037 15.0183 10.9033 15.1828C10.5132 15.3472 10.0615 15.1622 9.89724 14.7613Z" fill="#D5C7A3"/>
<path d="M6.13968 1.65567C6.30394 2.04627 6.11915 2.49855 5.71876 2.66301C5.32865 2.82747 4.87693 2.64245 4.71267 2.24157C4.54841 1.85097 4.73321 1.3987 5.13359 1.23423C5.5237 1.06977 5.97542 1.25479 6.13968 1.65567Z" fill="#D5C7A3"/>
<path d="M13.9727 11.5132C13.5825 11.3487 13.3977 10.8964 13.5517 10.5058C13.716 10.1152 14.1677 9.93021 14.5578 10.0844C14.9479 10.2489 15.1327 10.7011 14.9787 11.0917C14.8247 11.4926 14.373 11.6776 13.9727 11.5132Z" fill="#D5C7A3"/>
<path d="M2.05343 4.90379C2.44355 5.06825 2.62834 5.52053 2.47435 5.91113C2.31009 6.30173 1.85838 6.48675 1.46826 6.33256C1.07814 6.1681 0.893351 5.71583 1.04734 5.32523C1.2116 4.92435 1.66332 4.73932 2.05343 4.90379Z" fill="#D5C7A3"/>
<path d="M7.38168 6.28111C7.4946 6.47641 7.43301 6.73339 7.22768 6.84645C7.03262 6.95952 6.77597 6.88757 6.66304 6.69227C6.55011 6.49697 6.62198 6.24 6.81703 6.12693C7.01209 6.02414 7.26875 6.08581 7.38168 6.28111Z" fill="#D5C7A3"/>
<path d="M9.36312 9.72464C9.47605 9.91994 9.41445 10.1769 9.20913 10.29C9.01407 10.4031 8.75741 10.3311 8.64449 10.1358C8.53156 9.9405 8.60342 9.68352 8.79848 9.57046C8.99354 9.45739 9.25019 9.52934 9.36312 9.72464Z" fill="#D5C7A3"/>
<path d="M9.93764 7.57636C9.74259 7.68943 9.48593 7.62776 9.373 7.42218C9.26007 7.22688 9.33194 6.9699 9.527 6.85683C9.72205 6.74376 9.97871 6.81572 10.0916 7.01102C10.2046 7.20632 10.1327 7.46329 9.93764 7.57636Z" fill="#D5C7A3"/>
<path d="M6.50893 9.56025C6.31387 9.67332 6.05722 9.61164 5.94429 9.40606C5.83136 9.21076 5.90323 8.95379 6.09828 8.84072C6.29334 8.72765 6.55 8.7996 6.66293 8.9949C6.76559 9.1902 6.70399 9.44718 6.50893 9.56025Z" fill="#D5C7A3"/>
<path d="M9.36312 6.69232C9.25019 6.88762 8.99354 6.95957 8.79848 6.8465C8.60342 6.73343 8.53156 6.47646 8.64449 6.28116C8.75741 6.08586 9.01407 6.01391 9.20913 6.12697C9.40419 6.25032 9.47605 6.49702 9.36312 6.69232Z" fill="#D5C7A3"/>
<path d="M7.38168 10.1358C7.26875 10.3311 7.01209 10.4031 6.81703 10.29C6.62198 10.1769 6.55011 9.91994 6.66304 9.72464C6.77597 9.52934 7.03262 9.45739 7.22768 9.57046C7.42274 9.68352 7.4946 9.9405 7.38168 10.1358Z" fill="#D5C7A3"/>
<path d="M8.42872 6.21951C8.42872 6.44565 8.24393 6.63067 8.01807 6.63067C7.79221 6.63067 7.60742 6.44565 7.60742 6.21951C7.60742 5.99337 7.79221 5.80835 8.01807 5.80835C8.24393 5.80835 8.42872 5.99337 8.42872 6.21951Z" fill="#D5C7A3"/>
<path d="M8.42872 10.1974C8.42872 10.4236 8.24393 10.6086 8.01807 10.6086C7.79221 10.6086 7.60742 10.4236 7.60742 10.1974C7.60742 9.97128 7.79221 9.78625 8.01807 9.78625C8.24393 9.78625 8.42872 9.961 8.42872 10.1974Z" fill="#D5C7A3"/>
<path d="M6.09856 7.57636C6.29362 7.68943 6.55027 7.62776 6.6632 7.42218C6.77613 7.22688 6.70427 6.9699 6.50921 6.85683C6.31415 6.74376 6.05749 6.81572 5.94457 7.01102C5.83164 7.20632 5.89323 7.46329 6.09856 7.57636Z" fill="#D5C7A3"/>
<path d="M9.52748 9.56013C9.72254 9.67319 9.9792 9.61152 10.0921 9.40594C10.2051 9.21064 10.1332 8.95367 9.93813 8.8406C9.74307 8.72753 9.48642 8.79948 9.37349 8.99478C9.26056 9.19008 9.33243 9.44706 9.52748 9.56013Z" fill="#D5C7A3"/>
</svg>
