<?xml version="1.0" encoding="UTF-8"?>
<svg xmlns="http://www.w3.org/2000/svg" width="24" height="24" viewBox="0 0 24 24">
  <g id="Gruppe_3550" data-name="Gruppe 3550" transform="translate(-1881 -6961)">
    <rect id="Rechteck_216" data-name="Rechteck 216" width="8" height="8" transform="translate(1889.001 6969.075)" fill="#575756"></rect>
    <path id="Pfad_4494" data-name="Pfad 4494" d="M27.177,24.4V19.177h-8v8H24.4A2.72,2.72,0,0,0,27.177,24.4" transform="translate(1877.823 6957.823)" fill="#1d1d1b"></path>
    <path id="Pfad_4495" data-name="Pfad 4495" d="M24.4,0H19.177V8h8V2.777A2.72,2.72,0,0,0,24.4,0" transform="translate(1877.823 6961)" fill="#a9c811"></path>
    <path id="Pfad_4496" data-name="Pfad 4496" d="M0,2.777V8H8V0H2.777A2.72,2.72,0,0,0,0,2.777" transform="translate(1881 6961)" fill="#1d1d1b"></path>
    <path id="Pfad_4497" data-name="Pfad 4497" d="M2.777,27.177H8v-8H0V24.4a2.72,2.72,0,0,0,2.777,2.777" transform="translate(1881 6957.823)" fill="#1d1d1b"></path>
  </g>
</svg>
