<?xml version="1.0" encoding="UTF-8"?>
<svg xmlns="http://www.w3.org/2000/svg" width="24.001" height="24" viewBox="0 0 24.001 24">
  <g id="Gruppe_1865" data-name="Gruppe 1865" transform="translate(-1401 -914)">
    <path id="Pfad_4496" data-name="Pfad 4496" d="M0,2.777V8H8V0H2.777A2.72,2.72,0,0,0,0,2.777" transform="translate(1401 914)" fill="#fff"></path>
    <rect id="Rechteck_216" data-name="Rechteck 216" width="8" height="8" transform="translate(1409.001 922.075)" fill="#dbdbda"></rect>
    <path id="Pfad_4495" data-name="Pfad 4495" d="M24.4,0H19.177V8h8V2.777A2.72,2.72,0,0,0,24.4,0" transform="translate(1397.823 914)" fill="#a9c811"></path>
    <path id="Pfad_4497" data-name="Pfad 4497" d="M2.777,27.177H8v-8H0V24.4a2.72,2.72,0,0,0,2.777,2.777" transform="translate(1401 910.823)" fill="#fff"></path>
    <path id="Pfad_4494" data-name="Pfad 4494" d="M27.177,24.4V19.177h-8v8H24.4A2.72,2.72,0,0,0,27.177,24.4" transform="translate(1397.823 910.823)" fill="#fff"></path>
  </g>
</svg>
