<?xml version="1.0" encoding="UTF-8"?>
<svg xmlns="http://www.w3.org/2000/svg" xmlns:xlink="http://www.w3.org/1999/xlink" version="1.1" id="Ebene_2_00000119798888250769877500000017249145770487433628_" x="0px" y="0px" viewBox="0 0 104.6 105.9" style="enable-background:new 0 0 104.6 105.9;" xml:space="preserve">
<style type="text/css">
	.st0{fill:#655B50;}
</style>
<g id="Ebene_2-2">
	<g>
		<g>
			<path class="st0" d="M34.9,48.7c-0.3,0-0.5-0.2-0.5-0.5v-9.1c0-1.6,1.3-3,3-3c1.2,0,2.3,0.7,2.7,1.8c0.1,0.3,0,0.5-0.3,0.7     c-0.3,0.1-0.5,0-0.7-0.3c-0.3-0.7-1-1.2-1.8-1.2c-1.1,0-2,0.9-2,2v9.1C35.4,48.5,35.2,48.7,34.9,48.7L34.9,48.7z"></path>
			<path class="st0" d="M38,39.9c-0.2,0-0.4-0.1-0.5-0.3c-0.1-0.2,0-0.5,0.2-0.7l3.7-1.8c0.2-0.1,0.5,0,0.7,0.2     c0.1,0.2,0,0.5-0.2,0.7l-3.7,1.8C38.1,39.9,38,39.9,38,39.9z"></path>
			<path class="st0" d="M50.4,70.2c-10.3,0-19.1-8.1-20-18.4c0-0.3,0.2-0.5,0.5-0.5c0.3,0,0.5,0.2,0.5,0.5c0.9,9.8,9.2,17.4,19,17.4     c9.9,0,18.1-7.4,19-17.3c0-0.3,0.3-0.5,0.5-0.5c0.3,0,0.5,0.3,0.4,0.5C69.4,62.4,60.8,70.2,50.4,70.2L50.4,70.2z"></path>
			<g>
				<path class="st0" d="M65.3,58.8H54.6V48.5c0-0.3,0.2-0.5,0.5-0.5s0.5,0.2,0.5,0.5v9.3h8.7v-9.3c0-0.3,0.2-0.5,0.5-0.5      s0.5,0.2,0.5,0.5V58.8z"></path>
				<path class="st0" d="M64.8,55.8h-9.7c-0.3,0-0.5-0.2-0.5-0.5s0.2-0.5,0.5-0.5h9.7c0.3,0,0.5,0.2,0.5,0.5S65,55.8,64.8,55.8z"></path>
			</g>
			<path class="st0" d="M69.2,52.5h-4.5c-0.3,0-0.5-0.2-0.5-0.5s0.2-0.5,0.5-0.5h4.5c0.8,0,1.4-0.6,1.4-1.4s-0.6-1.4-1.4-1.4H31.5     c-0.8,0-1.4,0.6-1.4,1.4s0.6,1.4,1.4,1.4h23.2c0.3,0,0.5,0.2,0.5,0.5s-0.2,0.5-0.5,0.5H31.5c-1.3,0-2.4-1.1-2.4-2.4     s1.1-2.4,2.4-2.4h37.7c1.3,0,2.4,1.1,2.4,2.4S70.6,52.5,69.2,52.5z"></path>
		</g>
		<g>
			<path class="st0" d="M59.4,0l2.2,0.4c1,0.2,1.7,0.5,2.1,0.9s0.5,0.9,0.4,1.6C64,3.4,63.8,3.7,63.5,4s-0.7,0.4-1.2,0.4l0,0.1     c1.1,0.4,1.6,1.2,1.4,2.2c-0.1,0.7-0.5,1.2-1,1.5c-0.5,0.3-1.2,0.4-2.1,0.2l-2.7-0.5L59.4,0L59.4,0z M59.5,4.2l-0.6,2.9l1.6,0.3     c0.6,0.1,1.1,0.1,1.5-0.1c0.4-0.2,0.6-0.5,0.7-1c0.1-0.5,0-0.9-0.3-1.1S61.7,4.7,61,4.5L59.5,4.2L59.5,4.2z M59.7,3.5l1.5,0.3     c0.6,0.1,1.1,0.1,1.4,0s0.5-0.5,0.6-0.9c0.1-0.4,0-0.8-0.3-1c-0.3-0.3-0.7-0.4-1.4-0.6L60.2,1L59.7,3.5z"></path>
			<path class="st0" d="M71,11.6l0-2.7l-2.9-1.2l-1.8,2l-0.9-0.3l5.8-6.2l0.7,0.3l0,8.5L71,11.6L71,11.6z M71.1,8l0.1-2.6     c0-0.3,0-0.7,0.1-1.2c-0.2,0.3-0.4,0.6-0.7,0.9l-1.8,1.9L71.1,8L71.1,8z"></path>
			<path class="st0" d="M76.4,14.6l-0.8-0.5l3.7-6l-2.1-1.3l0.4-0.7l5,3.1l-0.4,0.7l-2.1-1.3C80.1,8.6,76.4,14.6,76.4,14.6z"></path>
			<path class="st0" d="M85.2,21.6L84.5,21l2.5-2.7l-3.1-2.8l-2.5,2.7l-0.7-0.6l5.3-5.8l0.7,0.6l-2.2,2.5l3.1,2.8l2.2-2.5l0.7,0.6     L85.2,21.6L85.2,21.6z"></path>
			<path class="st0" d="M89.2,26.4l-0.6-0.7l5.6-4.3l-1.5-2l0.6-0.5l3.6,4.7l-0.6,0.5l-1.5-2L89.2,26.4L89.2,26.4z"></path>
			<path class="st0" d="M101.9,32.5l-4.5,2.3c-0.8,0.4-1.5,0.5-2.2,0.2c-0.7-0.3-1.3-0.8-1.7-1.6c-0.4-0.8-0.5-1.6-0.3-2.3     c0.2-0.7,0.7-1.2,1.5-1.7l4.5-2.3l0.4,0.8L95,30.3c-0.6,0.3-1,0.7-1.1,1.2c-0.2,0.5-0.1,1,0.2,1.6c0.3,0.6,0.7,1,1.2,1.1     c0.5,0.2,1,0.1,1.6-0.2l4.6-2.3L101.9,32.5L101.9,32.5z"></path>
			<path class="st0" d="M103.7,37.4l0.6,2.1c0.3,1,0.3,1.8,0.2,2.3c-0.2,0.5-0.6,0.9-1.2,1.1c-0.4,0.1-0.9,0.1-1.2-0.1     s-0.7-0.5-0.9-0.9l-0.1,0c0.1,1.2-0.3,1.9-1.3,2.2c-0.7,0.2-1.3,0.1-1.8-0.2c-0.5-0.3-0.9-0.9-1.1-1.8l-0.7-2.6L103.7,37.4     L103.7,37.4z M100,39.4l-2.8,0.8l0.4,1.6c0.2,0.6,0.4,1,0.7,1.3c0.3,0.2,0.7,0.3,1.2,0.1c0.5-0.1,0.8-0.4,0.9-0.8     c0.1-0.4,0.1-0.9-0.1-1.5L100,39.4L100,39.4z M100.7,39.2l0.4,1.4c0.2,0.6,0.4,1,0.7,1.3c0.3,0.2,0.6,0.3,1.1,0.1     c0.4-0.1,0.7-0.4,0.8-0.7c0.1-0.4,0.1-0.9-0.1-1.5l-0.4-1.3L100.7,39.2z"></path>
		</g>
		<path class="st0" d="M51.1,105.9C22.9,105.9,0,83,0,54.9S22.9,3.8,51.1,3.8c0.3,0,0.5,0.2,0.5,0.5s-0.2,0.5-0.5,0.5    C23.5,4.8,1,27.2,1,54.9s22.5,50.1,50.1,50.1s50.1-22.5,50.1-50.1c0-1.1,0-2.2-0.1-3.3c0-0.3,0.2-0.5,0.5-0.5    c0.3,0,0.5,0.2,0.5,0.5c0.1,1.1,0.1,2.3,0.1,3.4C102.1,83,79.2,105.9,51.1,105.9L51.1,105.9z"></path>
	</g>
</g>
</svg>
