<?xml version="1.0" encoding="UTF-8"?>
<svg xmlns="http://www.w3.org/2000/svg" xmlns:xlink="http://www.w3.org/1999/xlink" version="1.1" id="Ebene_2_00000039093842047792822540000005214115740341197205_" x="0px" y="0px" viewBox="0 0 102.1 103.5" style="enable-background:new 0 0 102.1 103.5;" xml:space="preserve">
<style type="text/css">
	.st0{fill:#655B50;}
</style>
<g id="Ebene_2-2">
	<g>
		<g>
			<g>
				<path class="st0" d="M34.9,46.3c-0.3,0-0.5-0.2-0.5-0.5v-9.1c0-1.6,1.3-3,3-3c1.2,0,2.3,0.7,2.7,1.8c0.1,0.3,0,0.5-0.3,0.7      c-0.3,0.1-0.5,0-0.7-0.3c-0.3-0.7-1-1.2-1.8-1.2c-1.1,0-2,0.9-2,2v9.1C35.4,46.1,35.2,46.3,34.9,46.3L34.9,46.3z"></path>
				<path class="st0" d="M38,37.5c-0.2,0-0.4-0.1-0.5-0.3c-0.1-0.2,0-0.5,0.2-0.7l3.7-1.8c0.2-0.1,0.5,0,0.7,0.2      c0.1,0.2,0,0.5-0.2,0.7l-3.7,1.8C38.1,37.5,38,37.5,38,37.5z"></path>
				<path class="st0" d="M50.4,67.8c-10.3,0-19.1-8.1-20-18.4c0-0.3,0.2-0.5,0.5-0.5c0.3,0,0.5,0.2,0.5,0.5      c0.9,9.8,9.2,17.4,19,17.4c9.9,0,18.1-7.4,19-17.3c0-0.3,0.3-0.5,0.5-0.5c0.3,0,0.5,0.3,0.4,0.5C69.4,60,60.8,67.8,50.4,67.8      L50.4,67.8z"></path>
				<g>
					<path class="st0" d="M65.3,56.5H54.6V46.2c0-0.3,0.2-0.5,0.5-0.5s0.5,0.2,0.5,0.5v9.3h8.7v-9.3c0-0.3,0.2-0.5,0.5-0.5       s0.5,0.2,0.5,0.5V56.5z"></path>
					<path class="st0" d="M64.8,53.5h-9.7c-0.3,0-0.5-0.2-0.5-0.5s0.2-0.5,0.5-0.5h9.7c0.3,0,0.5,0.2,0.5,0.5S65,53.5,64.8,53.5z"></path>
				</g>
				<path class="st0" d="M69.2,50.1h-4.5c-0.3,0-0.5-0.2-0.5-0.5s0.2-0.5,0.5-0.5h4.5c0.8,0,1.4-0.6,1.4-1.4s-0.6-1.4-1.4-1.4H31.5      c-0.8,0-1.4,0.6-1.4,1.4s0.6,1.4,1.4,1.4h23.2c0.3,0,0.5,0.2,0.5,0.5s-0.2,0.5-0.5,0.5H31.5c-1.3,0-2.4-1.1-2.4-2.4      s1.1-2.4,2.4-2.4h37.7c1.3,0,2.4,1.1,2.4,2.4S70.6,50.1,69.2,50.1z"></path>
			</g>
			<g>
				<path class="st0" d="M74.4,2.1l0.9,0.4l-5.6,6.2l-0.8-0.3L69.2,0l0.9,0.4l-0.3,5.4c0,0.6-0.1,1.2-0.2,1.8c0.3-0.5,0.7-1,1.1-1.4      L74.4,2.1L74.4,2.1z"></path>
				<path class="st0" d="M78.8,13.8l0.5-2.6l-2.7-1.7L74.6,11l-0.8-0.5l6.9-5L81.3,6l-1.7,8.3L78.8,13.8L78.8,13.8z M79.6,10.3      l0.5-2.5c0.1-0.3,0.2-0.7,0.3-1.2c-0.3,0.2-0.6,0.5-0.9,0.8l-2.1,1.6L79.6,10.3L79.6,10.3z"></path>
				<path class="st0" d="M86.4,17.5c-0.5,0.5-1,0.7-1.6,0.7s-1.3-0.4-1.9-1c-0.7-0.6-1.1-1.2-1.3-1.7l0.6-0.6      c0.1,0.3,0.3,0.6,0.6,0.9s0.5,0.6,0.8,0.8c0.4,0.4,0.9,0.6,1.2,0.7s0.7-0.1,1-0.4c0.2-0.2,0.3-0.4,0.3-0.6s0-0.4-0.1-0.7      c-0.1-0.3-0.3-0.7-0.5-1.2c-0.4-0.7-0.5-1.3-0.5-1.7c0-0.5,0.2-0.9,0.6-1.4c0.4-0.4,0.9-0.6,1.5-0.6c0.6,0,1.1,0.3,1.7,0.8      c0.6,0.5,1,1.1,1.3,1.8l-0.7,0.4c-0.3-0.6-0.7-1.2-1.1-1.6c-0.4-0.3-0.7-0.5-1-0.5c-0.3,0-0.6,0.1-0.9,0.4      c-0.2,0.2-0.3,0.4-0.3,0.6c0,0.2,0,0.4,0.1,0.7c0.1,0.3,0.2,0.6,0.5,1.1c0.4,0.8,0.6,1.4,0.6,1.8C87,16.7,86.8,17.1,86.4,17.5      L86.4,17.5z"></path>
				<path class="st0" d="M95,19.8c-0.5-0.7-1.2-1-1.9-1.1s-1.5,0.2-2.3,0.9c-0.8,0.6-1.3,1.3-1.4,2s0,1.4,0.6,2.1      c0.3,0.4,0.8,0.9,1.4,1.3l-0.6,0.5c-0.5-0.3-1-0.8-1.5-1.4c-0.7-0.9-1-1.8-0.8-2.8c0.2-0.9,0.8-1.8,1.8-2.6      c0.6-0.5,1.3-0.8,2-0.9c0.7-0.1,1.3-0.1,1.9,0.2c0.6,0.3,1.2,0.7,1.6,1.3c0.5,0.7,0.8,1.3,1,2l-0.9,0.2      C95.6,20.8,95.3,20.3,95,19.8L95,19.8z"></path>
				<path class="st0" d="M94.5,32.9l1.8-2l-1.4-2.8l-2.7,0.3l-0.4-0.8l8.4-0.9l0.4,0.7L95,33.8L94.5,32.9L94.5,32.9z M96.9,30.3      l1.7-1.9c0.2-0.2,0.5-0.5,0.8-0.8c-0.3,0.1-0.7,0.2-1.2,0.2L95.7,28L96.9,30.3L96.9,30.3z"></path>
			</g>
		</g>
		<path class="st0" d="M51.1,103.5C22.9,103.5,0,80.6,0,52.5S22.9,1.4,51.1,1.4c3.5,0,6.9,0.3,10.3,1c0.3,0.1,0.4,0.3,0.4,0.6    s-0.3,0.4-0.6,0.4c-3.3-0.7-6.7-1-10.1-1C23.5,2.4,1,24.9,1,52.5s22.5,50.1,50.1,50.1s50.1-22.5,50.1-50.1c0-4.4-0.6-8.7-1.7-12.9    c-0.1-0.3,0.1-0.5,0.4-0.6c0.3-0.1,0.5,0.1,0.6,0.4c1.1,4.3,1.7,8.7,1.7,13.2C102.1,80.6,79.2,103.5,51.1,103.5L51.1,103.5z"></path>
	</g>
</g>
</svg>
