<?xml version="1.0" encoding="UTF-8"?>
<svg xmlns="http://www.w3.org/2000/svg" xmlns:xlink="http://www.w3.org/1999/xlink" version="1.1" id="Ebene_2_00000160178241742263116290000010941175220448544920_" x="0px" y="0px" viewBox="0 0 106.5 106.5" style="enable-background:new 0 0 106.5 106.5;" xml:space="preserve">
<style type="text/css">
	.st0{fill:#655B50;}
</style>
<g id="Ebene_2-2">
	<g>
		<g>
			<path class="st0" d="M34.9,49.2c-0.3,0-0.5-0.2-0.5-0.5v-9.1c0-1.6,1.3-3,3-3c1.2,0,2.3,0.7,2.7,1.8c0.1,0.3,0,0.5-0.3,0.7     c-0.3,0.1-0.5,0-0.7-0.3c-0.3-0.7-1-1.2-1.8-1.2c-1.1,0-2,0.9-2,2v9.1C35.4,49,35.2,49.2,34.9,49.2L34.9,49.2z"></path>
			<path class="st0" d="M38,40.5c-0.2,0-0.4-0.1-0.5-0.3c-0.1-0.2,0-0.5,0.2-0.7l3.7-1.8c0.2-0.1,0.5,0,0.7,0.2     c0.1,0.2,0,0.5-0.2,0.7l-3.7,1.8C38.1,40.4,38,40.5,38,40.5z"></path>
			<path class="st0" d="M50.4,70.7c-10.3,0-19.1-8.1-20-18.4c0-0.3,0.2-0.5,0.5-0.5c0.3,0,0.5,0.2,0.5,0.5c0.9,9.8,9.2,17.4,19,17.4     c9.9,0,18.1-7.4,19-17.3c0-0.3,0.3-0.5,0.5-0.5c0.3,0,0.5,0.3,0.4,0.5C69.4,62.9,60.8,70.7,50.4,70.7L50.4,70.7z"></path>
			<g>
				<path class="st0" d="M65.3,59.4H54.6V49.1c0-0.3,0.2-0.5,0.5-0.5s0.5,0.2,0.5,0.5v9.3h8.7v-9.3c0-0.3,0.2-0.5,0.5-0.5      s0.5,0.2,0.5,0.5V59.4z"></path>
				<path class="st0" d="M64.8,56.4h-9.7c-0.3,0-0.5-0.2-0.5-0.5s0.2-0.5,0.5-0.5h9.7c0.3,0,0.5,0.2,0.5,0.5S65,56.4,64.8,56.4z"></path>
			</g>
			<path class="st0" d="M69.2,53h-4.5c-0.3,0-0.5-0.2-0.5-0.5s0.2-0.5,0.5-0.5h4.5c0.8,0,1.4-0.6,1.4-1.4s-0.6-1.4-1.4-1.4H31.5     c-0.8,0-1.4,0.6-1.4,1.4s0.6,1.4,1.4,1.4h23.2c0.3,0,0.5,0.2,0.5,0.5S55,53,54.7,53H31.5c-1.3,0-2.4-1.1-2.4-2.4s1.1-2.4,2.4-2.4     h37.7c1.3,0,2.4,1.1,2.4,2.4S70.6,53,69.2,53z"></path>
		</g>
		<g>
			<path class="st0" d="M46.9,0.1L49.2,0c1,0,1.8,0.1,2.3,0.4c0.5,0.3,0.7,0.8,0.7,1.5c0,0.5-0.1,0.9-0.4,1.2s-0.6,0.5-1.1,0.6v0.1     c1.2,0.2,1.8,0.8,1.8,1.8c0,0.7-0.2,1.3-0.7,1.7c-0.5,0.4-1.1,0.6-2,0.6l-2.7,0.1L46.9,0.1L46.9,0.1z M47.9,3.4l1.5,0     c0.6,0,1.1-0.1,1.4-0.3c0.3-0.2,0.4-0.6,0.4-1c0-0.4-0.2-0.8-0.5-0.9c-0.3-0.2-0.8-0.3-1.5-0.2l-1.3,0L47.9,3.4L47.9,3.4z      M48,4.2l0.1,2.9l1.6,0c0.6,0,1.1-0.2,1.4-0.4c0.3-0.3,0.5-0.6,0.4-1.2c0-0.5-0.2-0.8-0.5-1.1s-0.8-0.3-1.5-0.3L48,4.2L48,4.2z"></path>
			<path class="st0" d="M60.8,8.8l-0.6-2.6l-3.1-0.5L55.8,8l-0.9-0.1l4.3-7.3l0.8,0.1l1.9,8.3C61.8,8.9,60.8,8.8,60.8,8.8z      M60.1,5.3l-0.5-2.5c-0.1-0.3-0.1-0.7-0.2-1.2c-0.1,0.3-0.3,0.7-0.5,1.1l-1.3,2.3C57.6,4.9,60.1,5.3,60.1,5.3z"></path>
			<path class="st0" d="M71.6,8c-0.4,1.2-1.1,2-2,2.4c-0.9,0.4-2,0.4-3.2-0.1l-2-0.7L67,2.2L69.3,3c1.1,0.4,1.9,1.1,2.3,1.9     C72,5.8,72,6.8,71.6,8L71.6,8z M70.7,7.7c0.3-1,0.4-1.8,0.1-2.4c-0.3-0.7-0.9-1.2-1.9-1.5l-1.2-0.4l-2.1,5.9l1,0.4     c1,0.4,1.9,0.4,2.6,0.1C69.8,9.3,70.4,8.7,70.7,7.7z"></path>
			<path class="st0" d="M77.1,15.5l-3.8-2.2l4-6.8l3.8,2.2l-0.4,0.7l-3-1.7l-1.3,2.2l2.8,1.6l-0.4,0.7L76,10.5L74.5,13l3,1.7     L77.1,15.5z"></path>
			<path class="st0" d="M85,21.9l-0.7-0.6l2.3-5c0.1-0.2,0.2-0.5,0.4-0.8s0.3-0.5,0.3-0.6c-0.4,0.3-0.8,0.6-1.3,0.9l-4.6,2.9     l-0.7-0.6l3.7-7.2l0.7,0.6l-2.3,4.4c-0.3,0.6-0.6,1.2-1,1.6c0.5-0.4,1-0.8,1.6-1.1l4.2-2.6l0.7,0.6L86.3,19     c-0.2,0.5-0.6,1.1-0.9,1.7c0.4-0.3,0.9-0.7,1.5-1.1l4.2-2.8l0.7,0.6L85,21.9L85,21.9z"></path>
			<path class="st0" d="M91.1,29.5l1.4-2.3l-1.8-2.5l-2.6,0.7l-0.5-0.7l8.2-2.1l0.5,0.6l-4.6,7.1L91.1,29.5L91.1,29.5z M93,26.6     l1.4-2.2c0.2-0.3,0.4-0.6,0.7-1c-0.3,0.1-0.7,0.3-1.1,0.4l-2.5,0.7L93,26.6L93,26.6z"></path>
			<path class="st0" d="M95.5,38.2l-0.4-0.9l4.2-6.7l0,0c-0.7,0.4-1.3,0.7-1.9,1l-4.1,1.9L93,32.6l7.1-3.3l0.4,0.9l-4.2,6.6l0,0     c0.1,0,0.4-0.2,0.8-0.4c0.5-0.2,0.8-0.4,1-0.5l4.1-1.9l0.4,0.8L95.5,38.2z"></path>
			<path class="st0" d="M98.1,47.7l-0.2-1l5.5-5.7l0,0c-0.7,0.2-1.4,0.4-2.1,0.6l-4.3,1l-0.2-0.8l7.7-1.8l0.2,1l-5.4,5.6l0,0     c0.1,0,0.4-0.1,0.9-0.3c0.5-0.1,0.9-0.2,1.1-0.3l4.4-1l0.2,0.8L98.1,47.7L98.1,47.7z"></path>
			<path class="st0" d="M98.7,55.8l-0.2-4.4l7.8-0.3l0.2,4.4l-0.8,0l-0.1-3.5l-2.5,0.1l0.1,3.3l-0.8,0l-0.1-3.3l-2.9,0.1l0.1,3.5     L98.7,55.8L98.7,55.8z"></path>
		</g>
		<path class="st0" d="M51.1,106.5C22.9,106.5,0,83.6,0,55.4c0-24,17-45,40.4-50C40.7,5.4,41,5.6,41,5.8s-0.1,0.5-0.4,0.6    C17.7,11.3,1,31.9,1,55.4c0,27.6,22.5,50.1,50.1,50.1c24.6,0,45.3-17.6,49.4-41.7c0-0.3,0.3-0.5,0.6-0.4c0.3,0,0.5,0.3,0.4,0.6    C97.3,88.6,76.1,106.5,51.1,106.5z"></path>
	</g>
</g>
</svg>
