<?xml version="1.0" encoding="UTF-8"?>
<svg xmlns="http://www.w3.org/2000/svg" xmlns:xlink="http://www.w3.org/1999/xlink" version="1.1" id="Ebene_2_00000139976423171824963780000001779244479249884082_" x="0px" y="0px" viewBox="0 0 106.5 106.6" style="enable-background:new 0 0 106.5 106.6;" xml:space="preserve">
<style type="text/css">
	.st0{fill:#655B50;}
</style>
<g id="Ebene_2-2">
	<g>
		<g>
			<path class="st0" d="M49.7,7.9L46.9,1h0C47,1.6,47,2.2,47,3l0.1,5l-0.8,0l-0.2-7.9l1.4,0l2.6,6.4h0L52.5,0l1.4,0L54,7.9l-0.9,0     L53,2.8c0-0.6,0-1.2,0-1.9h0l-2.6,7L49.7,7.9L49.7,7.9z"></path>
			<path class="st0" d="M62.6,9.2l-0.5-2.6L59,6l-1.4,2.3l-0.9-0.2L61.2,1l0.8,0.1l1.5,8.3L62.6,9.2z M62,5.7l-0.4-2.6     c-0.1-0.3-0.1-0.7-0.1-1.2c-0.1,0.3-0.3,0.7-0.5,1l-1.4,2.2L62,5.7z"></path>
			<path class="st0" d="M66.2,10.4L68.8,3l0.9,0.3l-2.6,7.4L66.2,10.4z"></path>
			<path class="st0" d="M75.8,12.3c-0.3,0.6-0.8,1-1.4,1.1c-0.6,0.1-1.3,0-2.1-0.4c-0.8-0.4-1.4-0.9-1.8-1.3l0.4-0.8     c0.2,0.3,0.5,0.5,0.8,0.8s0.6,0.4,1,0.6c0.5,0.3,1,0.4,1.4,0.3c0.4-0.1,0.7-0.3,0.8-0.6c0.1-0.2,0.2-0.5,0.2-0.7     c0-0.2-0.1-0.4-0.3-0.7s-0.4-0.6-0.8-1c-0.5-0.6-0.9-1.1-1-1.5c-0.1-0.5,0-0.9,0.2-1.5c0.3-0.5,0.7-0.9,1.3-1     c0.6-0.1,1.2,0,1.9,0.3c0.7,0.4,1.3,0.8,1.7,1.4L77.4,8c-0.5-0.5-1-0.9-1.5-1.2c-0.4-0.2-0.8-0.3-1.2-0.2S74.2,6.8,74,7.1     c-0.1,0.2-0.2,0.5-0.2,0.7c0,0.2,0.1,0.4,0.2,0.7s0.4,0.5,0.8,0.9c0.6,0.6,1,1.2,1.1,1.6C76.1,11.4,76,11.8,75.8,12.3L75.8,12.3z     "></path>
			<path class="st0" d="M85.4,16.9c-0.8,1-1.6,1.6-2.6,1.8c-0.9,0.2-1.9-0.1-2.8-0.8c-0.9-0.7-1.4-1.5-1.5-2.5     c-0.1-0.9,0.3-1.9,1.1-2.9c0.8-1,1.6-1.6,2.6-1.8c0.9-0.2,1.9,0.1,2.8,0.8c0.9,0.7,1.4,1.5,1.4,2.5S86.2,15.9,85.4,16.9     L85.4,16.9z M80.4,13.1c-0.7,0.8-1,1.6-0.9,2.3c0,0.7,0.4,1.3,1.1,1.9c0.7,0.5,1.4,0.7,2.1,0.6c0.7-0.2,1.4-0.7,2-1.5     c0.6-0.8,1-1.6,0.9-2.3c0-0.7-0.4-1.3-1.1-1.8c-0.7-0.5-1.4-0.7-2.1-0.6C81.7,11.8,81.1,12.3,80.4,13.1L80.4,13.1z"></path>
			<path class="st0" d="M89.3,27l-0.7-0.8l2.2-7.5l0,0c-0.6,0.5-1.1,1-1.6,1.4L85.9,23l-0.5-0.6l6-5.1L92,18l-2.2,7.5l0,0     c0.1-0.1,0.3-0.3,0.7-0.6c0.4-0.4,0.7-0.6,0.8-0.8l3.4-2.9l0.6,0.6L89.3,27L89.3,27z"></path>
			<path class="st0" d="M93.6,34l-2.2-3.8l6.8-3.9l2.2,3.8l-0.7,0.4l-1.7-3l-2.2,1.3l1.6,2.8L96.7,32l-1.6-2.8l-2.5,1.4l1.7,3     L93.6,34z"></path>
			<path class="st0" d="M95.9,39.4l-0.3-0.9l6.6-2.4l-0.9-2.3l0.8-0.3l2,5.5l-0.8,0.3l-0.9-2.3L95.9,39.4L95.9,39.4z"></path>
			<path class="st0" d="M97.9,47l-0.2-0.9l6.9-1.3l-0.5-2.4l0.8-0.2l1.1,5.8l-0.8,0.2l-0.5-2.4L97.9,47L97.9,47z"></path>
			<path class="st0" d="M98.7,56.7l-0.1-4.4l7.9-0.2l0.1,4.4l-0.8,0l-0.1-3.5l-2.5,0.1l0.1,3.3l-0.8,0l-0.1-3.3l-2.9,0.1l0.1,3.5     L98.7,56.7L98.7,56.7z"></path>
		</g>
		<path class="st0" d="M51.1,106.6C22.9,106.6,0,83.6,0,55.5C0,31.8,16.1,11.3,39.1,5.8c0.4-0.1,0.9-0.2,1.3-0.3    c0.3,0,0.5,0.1,0.6,0.4c0.1,0.3-0.1,0.5-0.4,0.6c-0.4,0.1-0.9,0.2-1.3,0.3C16.8,12.2,1,32.2,1,55.5c0,27.6,22.5,50.1,50.1,50.1    c24.6,0,45.4-17.6,49.4-41.9c0-0.3,0.3-0.5,0.6-0.4c0.3,0,0.5,0.3,0.4,0.6C97.4,88.6,76.2,106.6,51.1,106.6L51.1,106.6z"></path>
		<g>
			<polygon class="st0" points="36.9,60.8 34.8,60.8 34.8,59.8 36.5,59.8 62.4,36.6 65.1,36.6 65.1,37.6 62.7,37.6    "></polygon>
			<g>
				<rect x="40" y="57" class="st0" width="1" height="10.5"></rect>
				<rect x="49" y="49.1" class="st0" width="1" height="11.9"></rect>
				<rect x="61.4" y="37.8" class="st0" width="1" height="10.5"></rect>
			</g>
			<polygon class="st0" points="65.6,73.9 64.6,73.9 64.6,48.6 59.1,48.6 59.1,55 52.7,55 52.7,61.5 46.2,61.5 46.2,67.9 39.8,67.9      39.8,73.9 38.8,73.9 38.8,66.9 45.2,66.9 45.2,60.5 51.7,60.5 51.7,54 58.1,54 58.1,47.6 65.6,47.6    "></polygon>
			<rect x="37" y="73.4" class="st0" width="30.4" height="1"></rect>
		</g>
	</g>
</g>
</svg>
