<?xml version="1.0" encoding="UTF-8"?>
<svg xmlns="http://www.w3.org/2000/svg" xmlns:xlink="http://www.w3.org/1999/xlink" version="1.1" id="Ebene_2_00000047781587503197306520000002197517681295471524_" x="0px" y="0px" viewBox="0 0 102.1 103.2" style="enable-background:new 0 0 102.1 103.2;" xml:space="preserve">
<style type="text/css">
	.st0{fill:#655B50;}
</style>
<g id="Ebene_2-2">
	<g>
		<g>
			<path class="st0" d="M70.9,6.6c-0.2,0.6-0.7,1.1-1.3,1.2C69,8,68.3,7.9,67.5,7.6c-0.9-0.3-1.5-0.7-1.9-1.1l0.3-0.8     c0.3,0.2,0.5,0.5,0.9,0.7c0.3,0.2,0.7,0.4,1,0.5c0.6,0.2,1,0.3,1.4,0.2s0.6-0.4,0.8-0.7c0.1-0.3,0.1-0.5,0.1-0.7S69.9,5.2,69.7,5     c-0.2-0.2-0.5-0.5-0.9-0.9c-0.6-0.5-1-1-1.1-1.4c-0.2-0.4-0.1-0.9,0.1-1.5c0.2-0.6,0.6-0.9,1.1-1.1s1.2-0.1,1.9,0.1     c0.7,0.3,1.4,0.7,1.9,1.2L72.1,2c-0.5-0.5-1.1-0.8-1.6-1c-0.5-0.2-0.8-0.2-1.2-0.1C69,1,68.7,1.2,68.6,1.6     c-0.1,0.3-0.1,0.5-0.1,0.7c0,0.2,0.1,0.4,0.3,0.6s0.5,0.5,0.9,0.8c0.7,0.6,1.1,1.1,1.3,1.5C71.1,5.6,71.1,6.1,70.9,6.6L70.9,6.6z     "></path>
			<path class="st0" d="M77.4,12.5l0.4-2.6l-2.7-1.6L73,9.9l-0.8-0.5l6.7-5.2l0.7,0.4l-1.3,8.4L77.4,12.5L77.4,12.5z M78,9l0.4-2.6     c0.1-0.3,0.1-0.7,0.3-1.2c-0.2,0.3-0.5,0.5-0.9,0.8l-2,1.6C75.8,7.7,78,9,78,9z"></path>
			<path class="st0" d="M90,12.6l-3.4,3.8c-0.6,0.7-1.3,1-2,1s-1.5-0.3-2.2-0.9c-0.7-0.6-1.1-1.3-1.1-2c0-0.7,0.2-1.4,0.8-2.1     l3.4-3.8l0.7,0.6l-3.4,3.8c-0.4,0.5-0.6,1-0.6,1.5s0.3,1,0.8,1.4c0.5,0.4,1,0.6,1.5,0.6s1-0.3,1.4-0.8l3.4-3.8L90,12.6L90,12.6z"></path>
			<path class="st0" d="M91,26.1l-0.6-0.8l2.7-7.4l0,0c-0.6,0.5-1.1,1-1.6,1.3l-3.6,2.7l-0.5-0.7l6.3-4.7l0.6,0.8l-2.7,7.4l0,0     c0.1-0.1,0.3-0.3,0.7-0.6s0.7-0.6,0.9-0.7l3.6-2.7l0.5,0.7L91,26.1L91,26.1z"></path>
			<path class="st0" d="M95,33.8l1.8-2L95.5,29l-2.7,0.2l-0.4-0.8l8.4-0.6l0.3,0.7l-5.8,6.2L95,33.8L95,33.8z M97.5,31.2l1.8-1.9     c0.2-0.2,0.5-0.5,0.9-0.8c-0.3,0.1-0.7,0.1-1.2,0.2l-2.6,0.2L97.5,31.2L97.5,31.2z"></path>
		</g>
		<path class="st0" d="M51.1,103.2C22.9,103.2,0,80.3,0,52.2S22.9,1.1,51.1,1.1c2.5,0,5,0.2,7.5,0.5c0.3,0,0.5,0.3,0.4,0.6    c0,0.3-0.3,0.5-0.6,0.4c-2.4-0.4-4.9-0.5-7.3-0.5C23.5,2.1,1,24.6,1,52.2s22.5,50.1,50.1,50.1s50.1-22.5,50.1-50.1    c0-3.6-0.4-7.2-1.1-10.6c-0.1-0.3,0.1-0.5,0.4-0.6c0.3-0.1,0.5,0.1,0.6,0.4c0.8,3.5,1.2,7.2,1.2,10.8    C102.1,80.3,79.2,103.2,51.1,103.2z"></path>
		<g>
			<path class="st0" d="M64.1,68.5c-3.4,0-6.2-2.8-6.2-6.2v-0.5h12.3v0.5C70.3,65.7,67.5,68.5,64.1,68.5z M59,62.8     c0.3,2.6,2.5,4.7,5.1,4.7c2.7,0,4.9-2,5.1-4.7H59z"></path>
			<path class="st0" d="M69.8,62.8c-0.3,0-0.5-0.2-0.5-0.5V35.9c0-0.3,0.2-0.5,0.5-0.5s0.5,0.2,0.5,0.5v26.4     C70.3,62.6,70.1,62.8,69.8,62.8z"></path>
			<path class="st0" d="M55.4,68.9H35.9l-4.2-20.3h27.9L55.4,68.9L55.4,68.9z M36.7,67.9h17.9l3.8-18.3H33L36.7,67.9z"></path>
			<g>
				<path class="st0" d="M42.8,47.5c-0.3,0-0.5-0.2-0.5-0.5c0-1.1,0.3-1.6,0.6-2.1c0.3-0.4,0.5-0.8,0.5-1.6s-0.2-1.2-0.5-1.6      c-0.3-0.5-0.6-1-0.6-2.1s0.3-1.6,0.6-2.1c0.3-0.4,0.5-0.8,0.5-1.6c0-0.3,0.2-0.5,0.5-0.5s0.5,0.2,0.5,0.5c0,1.1-0.3,1.6-0.6,2.1      c-0.3,0.4-0.5,0.8-0.5,1.6s0.2,1.2,0.5,1.6c0.3,0.5,0.6,1,0.6,2.1s-0.3,1.6-0.6,2.1c-0.3,0.4-0.5,0.8-0.5,1.6      C43.3,47.3,43.1,47.5,42.8,47.5z"></path>
				<path class="st0" d="M47.4,47.5c-0.3,0-0.5-0.2-0.5-0.5c0-1.1,0.3-1.6,0.6-2.1c0.3-0.4,0.5-0.8,0.5-1.6s-0.2-1.2-0.5-1.6      c-0.3-0.5-0.6-1-0.6-2.1s0.3-1.6,0.6-2.1c0.3-0.4,0.5-0.8,0.5-1.6c0-0.3,0.2-0.5,0.5-0.5s0.5,0.2,0.5,0.5c0,1.1-0.3,1.6-0.6,2.1      c-0.3,0.4-0.5,0.8-0.5,1.6s0.2,1.2,0.5,1.6c0.3,0.5,0.6,1,0.6,2.1s-0.3,1.6-0.6,2.1c-0.3,0.4-0.5,0.8-0.5,1.6      C47.9,47.3,47.7,47.5,47.4,47.5z"></path>
			</g>
			<path class="st0" d="M57.2,57H33.9c-0.3,0-0.5-0.2-0.5-0.5s0.2-0.5,0.5-0.5h23.3c0.3,0,0.5,0.2,0.5,0.5S57.5,57,57.2,57z"></path>
			<path class="st0" d="M55.7,61.6H35.4c-0.3,0-0.5-0.2-0.5-0.5s0.2-0.5,0.5-0.5h20.3c0.3,0,0.5,0.2,0.5,0.5S56,61.6,55.7,61.6z"></path>
			<g>
				<rect x="38.7" y="49" transform="matrix(0.9792 -0.2029 0.2029 0.9792 -9.901 9.0594)" class="st0" width="1" height="7.6"></rect>
				<rect x="41.2" y="61" transform="matrix(0.9792 -0.2029 0.2029 0.9792 -12.2715 9.8075)" class="st0" width="1" height="7.5"></rect>
				
					<rect x="48.4" y="52.3" transform="matrix(0.2031 -0.9792 0.9792 0.2031 -10.1691 93.1439)" class="st0" width="7.6" height="1"></rect>
				
					<rect x="45.9" y="64.3" transform="matrix(0.2031 -0.9792 0.9792 0.2031 -23.8424 100.2427)" class="st0" width="7.5" height="1"></rect>
			</g>
		</g>
	</g>
</g>
</svg>
