<?xml version="1.0" encoding="UTF-8"?>
<svg xmlns="http://www.w3.org/2000/svg" xmlns:xlink="http://www.w3.org/1999/xlink" version="1.1" id="Ebene_2_00000161594926294097272470000016379950076132899775_" x="0px" y="0px" viewBox="0 0 106.5 106.6" style="enable-background:new 0 0 106.5 106.6;" xml:space="preserve">
<style type="text/css">
	.st0{fill:#655B50;}
</style>
<g id="Ebene_2-2">
	<g>
		<g>
			<path class="st0" d="M47.2,8.1l-0.9,0.1l-2.3-5c-0.1-0.2-0.2-0.5-0.4-0.8c-0.1-0.3-0.2-0.5-0.2-0.6c0,0.5-0.1,1-0.2,1.6l-0.8,5.4     l-0.9,0.1l-3.2-7.5l1-0.1l1.9,4.6c0.3,0.6,0.5,1.2,0.6,1.8c0-0.7,0.1-1.3,0.2-2l0.7-4.9l1-0.1l2.1,4.6c0.2,0.5,0.5,1.1,0.7,1.8     c0-0.5,0-1.1,0.1-1.9l0.5-5l1-0.1L47.2,8.1L47.2,8.1z"></path>
			<path class="st0" d="M53.1,4.8L52.9,8L52,7.9l0.5-7.8l2.1,0.1c1,0.1,1.7,0.3,2.1,0.7c0.4,0.4,0.6,1,0.6,1.7c-0.1,1-0.6,1.7-1.7,2     l1.9,3.7l-1.1-0.1l-1.7-3.4L53.1,4.8L53.1,4.8z M53.2,4l1.2,0.1c0.6,0,1.1-0.1,1.4-0.3c0.3-0.2,0.5-0.6,0.5-1.1     c0-0.5-0.1-0.9-0.4-1.2c-0.3-0.2-0.8-0.4-1.4-0.4L53.4,1L53.2,4L53.2,4z"></path>
			<path class="st0" d="M60.6,8.9l1.6-7.7l0.9,0.2l-1.6,7.7C61.5,9.1,60.6,8.9,60.6,8.9z"></path>
			<path class="st0" d="M67.7,11l-0.9-0.3L69.2,4l-2.3-0.8l0.3-0.8l5.5,2l-0.3,0.8l-2.3-0.8L67.7,11L67.7,11z"></path>
			<path class="st0" d="M72.7,13.2l3.6-7l0.8,0.4l-3.6,7L72.7,13.2z"></path>
			<path class="st0" d="M81.9,19.2l-0.8-0.6l0.5-7.8l0,0c-0.4,0.7-0.8,1.2-1.2,1.8l-2.7,3.6L77,15.5l4.7-6.3l0.8,0.6L82,17.7l0,0     c0.1-0.1,0.2-0.3,0.5-0.8s0.5-0.7,0.7-0.9l2.7-3.6l0.7,0.5C86.6,12.9,81.9,19.2,81.9,19.2z"></path>
			<path class="st0" d="M90,21.6l1.8,2l-2.9,2.5c-0.4-0.2-0.7-0.5-1.1-0.7c-0.3-0.3-0.7-0.6-1.1-1c-0.8-0.9-1.1-1.8-1.1-2.8     s0.6-1.9,1.6-2.7c0.6-0.5,1.3-0.9,1.9-1.1c0.7-0.2,1.3-0.1,2,0.1c0.7,0.2,1.3,0.7,1.8,1.3c0.6,0.6,1,1.3,1.2,2.1l-0.8,0.3     c-0.2-0.7-0.6-1.3-1-1.8c-0.6-0.7-1.3-1.1-2.1-1.1s-1.6,0.3-2.3,1c-0.8,0.7-1.2,1.4-1.3,2.2c-0.1,0.8,0.2,1.5,0.9,2.2     c0.4,0.4,0.8,0.8,1.2,1.1l1.8-1.6l-1.2-1.3L90,21.6L90,21.6z"></path>
			<path class="st0" d="M99.5,37.4c-1.2,0.5-2.2,0.6-3.1,0.3c-0.9-0.4-1.6-1.1-2.2-2.3l-0.9-2l7.2-3.2l1,2.2c0.5,1.1,0.6,2.1,0.2,3     C101.3,36.2,100.6,36.9,99.5,37.4L99.5,37.4z M99,36.5c0.9-0.4,1.5-1,1.8-1.7c0.3-0.7,0.2-1.5-0.2-2.4l-0.5-1.2l-5.7,2.6l0.5,1     c0.4,1,1,1.6,1.7,1.9C97.2,37,98.1,37,99,36.5L99,36.5z"></path>
			<path class="st0" d="M97.9,46.6l-1-4.3l7.6-1.9l1,4.3l-0.8,0.2l-0.8-3.4l-2.5,0.6l0.8,3.2l-0.8,0.2l-0.8-3.2L97.8,43l0.8,3.4     C98.6,46.4,97.9,46.6,97.9,46.6z"></path>
			<path class="st0" d="M100.8,54.3c-0.7,0.1-1.2-0.2-1.7-0.6c-0.4-0.5-0.7-1.1-0.7-2c-0.1-0.9,0-1.7,0.2-2.2l0.9-0.1     c-0.1,0.3-0.2,0.7-0.2,1.1s-0.1,0.8,0,1.1c0,0.6,0.2,1.1,0.4,1.3c0.3,0.3,0.6,0.4,1,0.4c0.3,0,0.5-0.1,0.7-0.2s0.3-0.3,0.4-0.6     c0.1-0.3,0.3-0.7,0.4-1.2c0.2-0.7,0.5-1.3,0.8-1.6c0.3-0.3,0.8-0.5,1.4-0.6c0.6,0,1.1,0.1,1.5,0.6c0.4,0.4,0.6,1,0.7,1.8     c0.1,0.8,0,1.5-0.3,2.2l-0.8-0.2c0.2-0.7,0.3-1.3,0.3-1.9c0-0.5-0.2-0.9-0.4-1.1s-0.5-0.4-0.9-0.3c-0.3,0-0.5,0.1-0.7,0.2     c-0.2,0.1-0.3,0.3-0.4,0.5c-0.1,0.2-0.3,0.6-0.4,1.1c-0.2,0.8-0.5,1.4-0.8,1.8S101.3,54.2,100.8,54.3L100.8,54.3z"></path>
			<path class="st0" d="M98.1,63.4l0.1-1.1l4.1-2.5l-0.7-0.9l-3.1-0.3l0.1-0.9l7.8,0.7l-0.1,0.9l-3.9-0.4L106,63l-0.1,1.1l-3.1-3.5     L98.1,63.4z"></path>
		</g>
		<path class="st0" d="M51.1,106.6C22.9,106.6,0,83.7,0,55.6C0,34.4,13.3,15.1,33.2,7.7c0.3-0.1,0.5,0,0.6,0.3    c0.1,0.3,0,0.5-0.3,0.6C14.1,15.9,1,34.8,1,55.6c0,27.6,22.5,50.1,50.1,50.1c22.8,0,42.8-15.4,48.5-37.5c0.1-0.3,0.3-0.4,0.6-0.4    c0.3,0.1,0.4,0.3,0.4,0.6C94.7,90.9,74.3,106.6,51.1,106.6L51.1,106.6z"></path>
		<g>
			<path class="st0" d="M72.4,55.4H29.7v-5.2h42.8V55.4z M30.7,54.4h40.8v-3.2H30.7C30.7,51.3,30.7,54.4,30.7,54.4z"></path>
			<path class="st0" d="M46.2,60.2H29.7v-5.8h16.5L46.2,60.2L46.2,60.2z M30.7,59.2h14.5v-3.8H30.7V59.2z"></path>
			<path class="st0" d="M46.2,65H29.7v-5.8h16.5L46.2,65L46.2,65z M30.7,64h14.5v-3.8H30.7V64z"></path>
			<path class="st0" d="M46.2,69.7H29.7V64h16.5L46.2,69.7L46.2,69.7z M30.7,68.7h14.5V65H30.7V68.7z"></path>
			<path class="st0" d="M46.2,74.5H29.7v-5.8h16.5L46.2,74.5L46.2,74.5z M30.7,73.5h14.5v-3.8H30.7V73.5z"></path>
			<path class="st0" d="M72.4,74.5h-5.9v-20h5.9V74.5z M67.6,73.5h3.9v-18h-3.9V73.5z"></path>
			<rect x="35.8" y="56.8" class="st0" width="4.2" height="1"></rect>
			<rect x="35.8" y="61.6" class="st0" width="4.2" height="1"></rect>
			<rect x="35.8" y="66.3" class="st0" width="4.2" height="1"></rect>
			<rect x="35.8" y="71.1" class="st0" width="4.2" height="1"></rect>
			<path class="st0" d="M33.8,50.8h-1V39.4c0-1.5,1.2-2.7,2.7-2.7s2.7,1.2,2.7,2.7h-1c0-1-0.8-1.7-1.7-1.7s-1.7,0.8-1.7,1.7V50.8z"></path>
			<path class="st0" d="M40.5,43.8h-5.5v-2.2c0-1.5,1.2-2.7,2.7-2.7s2.7,1.2,2.7,2.7L40.5,43.8L40.5,43.8z M36.1,42.8h3.5l0-1.2     c0-1-0.8-1.7-1.7-1.7s-1.7,0.8-1.7,1.7L36.1,42.8L36.1,42.8z"></path>
		</g>
	</g>
</g>
</svg>
