<?xml version="1.0" encoding="UTF-8"?>
<svg xmlns="http://www.w3.org/2000/svg" xmlns:xlink="http://www.w3.org/1999/xlink" version="1.1" id="Ebene_2_00000147927561837681401560000007163613455033054907_" x="0px" y="0px" viewBox="0 0 106 106.2" style="enable-background:new 0 0 106 106.2;" xml:space="preserve">
<style type="text/css">
	.st0{fill:#655B50;}
</style>
<g id="Ebene_2-2">
	<g>
		<g>
			<path class="st0" d="M59.5,6.1c-0.1,0.7-0.4,1.2-0.9,1.5S57.3,8.1,56.5,8c-0.9-0.1-1.6-0.3-2.1-0.6l0.1-0.9     c0.3,0.2,0.6,0.3,1,0.4c0.4,0.1,0.7,0.2,1.1,0.3c0.6,0.1,1.1,0,1.4-0.2c0.3-0.2,0.5-0.5,0.6-0.9c0-0.3,0-0.5-0.1-0.7     c-0.1-0.2-0.3-0.4-0.5-0.5c-0.2-0.2-0.6-0.4-1.1-0.6c-0.7-0.3-1.2-0.7-1.4-1.1c-0.3-0.4-0.4-0.9-0.3-1.4c0.1-0.6,0.4-1.1,0.8-1.4     C56.5,0,57.1-0.1,57.9,0c0.8,0.1,1.5,0.3,2.1,0.7l-0.4,0.8c-0.6-0.3-1.2-0.6-1.8-0.6c-0.5-0.1-0.9,0-1.2,0.2     c-0.3,0.2-0.5,0.4-0.5,0.8c0,0.3,0,0.5,0.1,0.7c0.1,0.2,0.2,0.4,0.4,0.5c0.2,0.2,0.6,0.4,1,0.6c0.8,0.4,1.3,0.8,1.6,1.1     S59.6,5.6,59.5,6.1L59.5,6.1z"></path>
			<path class="st0" d="M67.8,3c-0.8-0.2-1.6-0.2-2.2,0.2c-0.6,0.4-1.1,1.1-1.4,2c-0.3,1-0.3,1.8,0,2.5s0.9,1.1,1.7,1.4     c0.5,0.2,1.2,0.2,1.9,0.3l-0.2,0.8c-0.6,0-1.3-0.1-2-0.3c-1.1-0.3-1.9-0.9-2.3-1.8c-0.4-0.9-0.4-1.9,0-3.1c0.2-0.8,0.6-1.4,1-1.9     s1-0.8,1.7-1S67.3,2,68,2.2c0.8,0.2,1.4,0.6,1.9,1.1l-0.6,0.6C68.9,3.5,68.3,3.2,67.8,3L67.8,3z"></path>
			<path class="st0" d="M72.9,9.2l-1.5,2.9l-0.8-0.4l3.6-7l1.9,1c0.9,0.4,1.4,0.9,1.7,1.5C78,7.7,78,8.3,77.6,9     c-0.5,0.9-1.3,1.3-2.4,1.2l0.3,4.1l-1-0.5L74.4,10C74.4,10,72.9,9.2,72.9,9.2z M73.3,8.5l1.1,0.6c0.6,0.3,1.1,0.4,1.4,0.3     c0.4-0.1,0.7-0.4,0.9-0.8C77,8.1,77,7.7,76.9,7.4s-0.6-0.7-1.2-1l-1.1-0.5L73.3,8.5L73.3,8.5z"></path>
			<path class="st0" d="M78.1,16l4.5-6.4l0.7,0.5l-4.5,6.4L78.1,16z"></path>
			<path class="st0" d="M90.7,16.3l0.7,0.7L84,20.8l-0.7-0.6l3.3-7.6l0.7,0.7l-2.2,4.9c-0.2,0.6-0.5,1.1-0.8,1.6     c0.5-0.3,1-0.6,1.6-0.9L90.7,16.3L90.7,16.3z"></path>
			<path class="st0" d="M90.8,28.8l1.4-2.3L90.3,24l-2.6,0.7L87.2,24l8.2-2.2l0.5,0.6l-4.5,7.2L90.8,28.8z M92.7,25.8l1.4-2.2     c0.2-0.3,0.4-0.6,0.7-1c-0.3,0.1-0.7,0.3-1.1,0.4l-2.5,0.7L92.7,25.8L92.7,25.8z"></path>
			<path class="st0" d="M95.3,37.4l-0.4-0.9l4.1-6.7l0,0c-0.7,0.4-1.3,0.7-1.9,1l-4,1.9l-0.4-0.8l7.1-3.4l0.4,0.9l-4.1,6.7l0,0     c0.1,0,0.4-0.2,0.8-0.4c0.5-0.2,0.8-0.4,1-0.5l4.1-1.9l0.4,0.8L95.3,37.4L95.3,37.4z"></path>
			<path class="st0" d="M96.5,41.2l7.5-2.2l0.3,0.9L96.8,42L96.5,41.2z"></path>
			<path class="st0" d="M98.5,50.8l2.3-1.3l-0.5-3.1l-2.6-0.6l-0.1-0.9l8.2,1.9l0.1,0.8l-7.4,4.2C98.6,51.7,98.5,50.8,98.5,50.8z      M101.6,49.1l2.3-1.3c0.3-0.2,0.6-0.3,1.1-0.5c-0.4,0-0.7-0.1-1.2-0.2l-2.5-0.6L101.6,49.1L101.6,49.1z"></path>
		</g>
		<g>
			<path class="st0" d="M72.4,55H29.7v-5.2h42.8C72.4,49.9,72.4,55,72.4,55z M30.7,54h40.8v-3.2H30.7C30.7,50.9,30.7,54,30.7,54z"></path>
			<path class="st0" d="M46.2,59.8H29.7V54h16.5L46.2,59.8L46.2,59.8z M30.7,58.8h14.5V55H30.7V58.8z"></path>
			<path class="st0" d="M46.2,64.5H29.7v-5.8h16.5L46.2,64.5L46.2,64.5z M30.7,63.5h14.5v-3.8H30.7V63.5z"></path>
			<path class="st0" d="M46.2,69.3H29.7v-5.8h16.5L46.2,69.3L46.2,69.3z M30.7,68.3h14.5v-3.8H30.7V68.3z"></path>
			<path class="st0" d="M46.2,74H29.7v-5.8h16.5L46.2,74L46.2,74z M30.7,73h14.5v-3.8H30.7V73z"></path>
			<path class="st0" d="M72.4,74h-5.9V54h5.9V74z M67.6,73h3.9V55h-3.9V73z"></path>
			<rect x="35.8" y="56.4" class="st0" width="4.2" height="1"></rect>
			<rect x="35.8" y="61.2" class="st0" width="4.2" height="1"></rect>
			<rect x="35.8" y="65.9" class="st0" width="4.2" height="1"></rect>
			<rect x="35.8" y="70.7" class="st0" width="4.2" height="1"></rect>
			<path class="st0" d="M33.8,50.4h-1V39c0-1.5,1.2-2.7,2.7-2.7s2.7,1.2,2.7,2.7h-1c0-1-0.8-1.7-1.7-1.7S33.8,38,33.8,39V50.4z"></path>
			<path class="st0" d="M40.5,43.4h-5.5v-2.2c0-1.5,1.2-2.7,2.7-2.7s2.7,1.2,2.7,2.7L40.5,43.4L40.5,43.4z M36.1,42.4h3.5l0-1.2     c0-1-0.8-1.7-1.7-1.7s-1.7,0.8-1.7,1.7L36.1,42.4L36.1,42.4z"></path>
		</g>
		<path class="st0" d="M51.1,106.2C22.9,106.2,0,83.3,0,55.2C0,28.6,20.7,6.2,47.2,4.2c0.3,0,0.5,0.2,0.5,0.5c0,0.3-0.2,0.5-0.5,0.5    C21.3,7.2,1,29.1,1,55.2c0,27.6,22.5,50.1,50.1,50.1c26.9,0,48.8-21,50-47.8c0-0.3,0.2-0.5,0.5-0.5c0.3,0,0.5,0.2,0.5,0.5    C100.9,84.8,78.5,106.2,51.1,106.2L51.1,106.2z"></path>
	</g>
</g>
</svg>
