<?xml version="1.0" encoding="UTF-8"?>
<svg xmlns="http://www.w3.org/2000/svg" xmlns:xlink="http://www.w3.org/1999/xlink" version="1.1" id="Ebene_2_00000082341658684368775930000014169061813167447482_" x="0px" y="0px" viewBox="0 0 106.6 106.6" style="enable-background:new 0 0 106.6 106.6;" xml:space="preserve">
<style type="text/css">
	.st0{fill:#655B50;}
</style>
<g id="Ebene_2-2">
	<g>
		<g>
			<path class="st0" d="M44.9,6.2c0.1,0.7,0,1.3-0.5,1.7c-0.4,0.5-1.1,0.8-1.9,0.9c-0.9,0.2-1.6,0.2-2.2,0L40.2,8     c0.3,0.1,0.7,0.1,1.1,0.1c0.4,0,0.8,0,1.1-0.1c0.6-0.1,1-0.3,1.3-0.6c0.3-0.3,0.4-0.6,0.3-1c0-0.3-0.1-0.5-0.3-0.6     s-0.3-0.3-0.6-0.4c-0.3-0.1-0.7-0.2-1.2-0.3c-0.8-0.1-1.3-0.3-1.7-0.6c-0.4-0.3-0.6-0.7-0.7-1.3c-0.1-0.6,0-1.1,0.4-1.5     c0.4-0.4,0.9-0.7,1.7-0.8c0.8-0.1,1.5-0.1,2.2,0.1l-0.1,0.8c-0.7-0.2-1.3-0.2-1.9-0.1c-0.5,0.1-0.8,0.2-1.1,0.5     c-0.2,0.3-0.3,0.6-0.3,0.9c0,0.3,0.1,0.5,0.3,0.6C40.8,3.8,41,4,41.3,4.1c0.3,0.1,0.6,0.2,1.2,0.3c0.9,0.1,1.5,0.4,1.8,0.6     S44.9,5.7,44.9,6.2L44.9,6.2z"></path>
			<path class="st0" d="M51.9,0.8c-0.9,0-1.5,0.3-2,0.9c-0.5,0.6-0.7,1.4-0.7,2.4c0,1,0.3,1.8,0.8,2.4C50.4,7,51.1,7.3,52,7.3     c0.5,0,1.2-0.1,1.9-0.3l0,0.8c-0.5,0.2-1.2,0.3-2,0.3c-1.2,0-2.1-0.3-2.7-1s-1-1.7-1-3c0-0.8,0.1-1.5,0.4-2.1     c0.3-0.6,0.7-1.1,1.3-1.4s1.2-0.5,2-0.5c0.8,0,1.5,0.1,2.2,0.4l-0.4,0.8C53.1,0.9,52.5,0.8,51.9,0.8L51.9,0.8z"></path>
			<path class="st0" d="M63,9.4l-0.9-0.2l0.7-3.6l-4.1-0.8L58,8.4l-0.9-0.2l1.5-7.7l0.9,0.2L58.9,4L63,4.8l0.6-3.3l0.9,0.2L63,9.4     L63,9.4z"></path>
			<path class="st0" d="M68.7,7.8l-1.2,3l-0.8-0.3l2.9-7.3l2,0.8c0.9,0.4,1.5,0.8,1.8,1.3c0.3,0.5,0.3,1.1,0,1.8     c-0.4,1-1.1,1.4-2.2,1.4l0.7,4.1l-1-0.4l-0.5-3.7L68.7,7.8L68.7,7.8z M69,7.1l1.2,0.5c0.6,0.2,1.1,0.3,1.5,0.2     c0.4-0.1,0.7-0.4,0.8-0.9c0.2-0.5,0.2-0.9,0-1.2c-0.2-0.3-0.6-0.6-1.2-0.9l-1.1-0.4L69,7.1L69,7.1z"></path>
			<path class="st0" d="M78.1,16.3L74.4,14l4.1-6.7l3.7,2.3l-0.4,0.7l-2.9-1.8l-1.3,2.2l2.8,1.7l-0.4,0.7l-2.8-1.7l-1.5,2.5l2.9,1.8     L78.1,16.3L78.1,16.3z"></path>
			<path class="st0" d="M80.9,18.5l5-6.1l0.7,0.6l-5,6.1C81.7,19.1,80.9,18.5,80.9,18.5z"></path>
			<path class="st0" d="M90.5,16.5l1.5,1.6c0.7,0.8,1.1,1.4,1.2,2c0.1,0.6-0.1,1.1-0.6,1.5c-0.3,0.3-0.7,0.5-1.1,0.5     c-0.4,0-0.8-0.1-1.2-0.4l0,0c0.6,1,0.6,1.9-0.2,2.6c-0.5,0.5-1.1,0.7-1.7,0.6s-1.2-0.4-1.8-1.1l-1.8-2L90.5,16.5L90.5,16.5z      M88,19.9l-2.2,2l1.1,1.2c0.4,0.5,0.8,0.7,1.2,0.8c0.4,0.1,0.8-0.1,1.2-0.4c0.4-0.3,0.5-0.7,0.5-1.1c-0.1-0.4-0.3-0.8-0.8-1.3     C89.1,21.1,88,19.9,88,19.9z M88.6,19.4l1,1.1c0.4,0.5,0.8,0.8,1.2,0.8s0.7-0.1,1-0.4c0.3-0.3,0.5-0.6,0.4-1     c-0.1-0.4-0.3-0.8-0.8-1.3l-0.9-1L88.6,19.4L88.6,19.4z"></path>
			<path class="st0" d="M91.6,30.6l-0.5-0.8l6-3.8L95.7,24l0.7-0.4l3.1,5l-0.7,0.4l-1.3-2.1L91.6,30.6L91.6,30.6z"></path>
			<path class="st0" d="M94.2,35.5l7.1-3.3l0.4,0.8l-7.1,3.3L94.2,35.5z"></path>
			<path class="st0" d="M99.4,43.7c-0.7,0.2-1.2,0.1-1.8-0.3c-0.5-0.4-0.9-1-1.1-1.8c-0.3-0.9-0.4-1.6-0.3-2.2l0.8-0.3     c0,0.3,0,0.7,0,1.1c0,0.4,0.1,0.8,0.2,1.1c0.2,0.6,0.4,1,0.7,1.2c0.3,0.2,0.7,0.3,1.1,0.2c0.3-0.1,0.5-0.2,0.6-0.3     c0.1-0.2,0.2-0.4,0.3-0.7c0.1-0.3,0.1-0.7,0.1-1.3c0-0.8,0.2-1.4,0.4-1.8c0.3-0.4,0.7-0.7,1.2-0.9c0.6-0.2,1.1-0.1,1.6,0.2     c0.5,0.3,0.8,0.9,1,1.6c0.2,0.7,0.3,1.5,0.2,2.2l-0.8,0c0.1-0.7,0-1.3-0.2-1.9c-0.1-0.5-0.3-0.8-0.6-1c-0.3-0.2-0.6-0.2-0.9-0.1     c-0.3,0.1-0.5,0.2-0.6,0.3c-0.1,0.1-0.2,0.4-0.3,0.6c-0.1,0.3-0.1,0.7-0.1,1.2c0,0.9-0.2,1.5-0.4,1.9S99.9,43.5,99.4,43.7     L99.4,43.7z"></path>
			<path class="st0" d="M105.5,50c-0.1-0.9-0.5-1.5-1.1-1.9c-0.6-0.4-1.4-0.6-2.4-0.5c-1,0.1-1.8,0.5-2.3,1     c-0.5,0.5-0.7,1.3-0.6,2.1c0.1,0.5,0.2,1.2,0.5,1.8l-0.8,0.1c-0.3-0.5-0.4-1.2-0.5-2c-0.1-1.1,0.1-2.1,0.7-2.8     c0.6-0.7,1.6-1.1,2.9-1.3c0.8-0.1,1.5,0,2.2,0.2c0.6,0.2,1.2,0.6,1.6,1.1s0.6,1.2,0.7,1.9c0.1,0.8,0,1.5-0.2,2.2l-0.8-0.3     C105.5,51.2,105.6,50.6,105.5,50z"></path>
			<path class="st0" d="M98.3,62l0.1-0.9l3.7,0.3l0.3-4.1L98.7,57l0.1-0.9l7.8,0.6l-0.1,0.9l-3.3-0.2l-0.3,4.1l3.3,0.2l-0.1,0.9     L98.3,62z"></path>
		</g>
		<path class="st0" d="M51.1,106.6C22.9,106.6,0,83.7,0,55.5C0,33,14.4,13.4,35.9,6.8c0.3-0.1,0.5,0.1,0.6,0.3    c0.1,0.3-0.1,0.5-0.3,0.6C15.1,14.3,1,33.5,1,55.5c0,27.6,22.5,50.1,50.1,50.1c22.8,0,42.8-15.4,48.5-37.5    c0.1-0.3,0.3-0.4,0.6-0.4c0.3,0.1,0.4,0.3,0.4,0.6C94.7,90.9,74.3,106.6,51.1,106.6z"></path>
		<g>
			<path class="st0" d="M72.4,55.4H29.7v-5.2h42.8V55.4z M30.7,54.4h40.8v-3.2H30.7C30.7,51.3,30.7,54.4,30.7,54.4z"></path>
			<path class="st0" d="M46.2,60.2H29.7v-5.8h16.5L46.2,60.2L46.2,60.2z M30.7,59.2h14.5v-3.8H30.7V59.2z"></path>
			<path class="st0" d="M46.2,64.9H29.7v-5.8h16.5L46.2,64.9L46.2,64.9z M30.7,63.9h14.5v-3.8H30.7V63.9z"></path>
			<path class="st0" d="M46.2,69.7H29.7v-5.8h16.5L46.2,69.7L46.2,69.7z M30.7,68.7h14.5v-3.8H30.7V68.7z"></path>
			<path class="st0" d="M46.2,74.4H29.7v-5.8h16.5L46.2,74.4L46.2,74.4z M30.7,73.4h14.5v-3.8H30.7V73.4z"></path>
			<path class="st0" d="M72.4,74.4h-5.9v-20h5.9V74.4z M67.6,73.4h3.9v-18h-3.9V73.4z"></path>
			<rect x="35.8" y="56.8" class="st0" width="4.2" height="1"></rect>
			<rect x="35.8" y="61.6" class="st0" width="4.2" height="1"></rect>
			<rect x="35.8" y="66.3" class="st0" width="4.2" height="1"></rect>
			<rect x="35.8" y="71.1" class="st0" width="4.2" height="1"></rect>
			<path class="st0" d="M33.8,50.8h-1V39.4c0-1.5,1.2-2.7,2.7-2.7s2.7,1.2,2.7,2.7h-1c0-1-0.8-1.7-1.7-1.7s-1.7,0.8-1.7,1.7V50.8z"></path>
			<path class="st0" d="M40.5,43.8h-5.5v-2.2c0-1.5,1.2-2.7,2.7-2.7s2.7,1.2,2.7,2.7L40.5,43.8L40.5,43.8z M36.1,42.8h3.5l0-1.2     c0-1-0.8-1.7-1.7-1.7s-1.7,0.8-1.7,1.7L36.1,42.8L36.1,42.8z"></path>
		</g>
	</g>
</g>
</svg>
