<?xml version="1.0" encoding="UTF-8"?>
<svg xmlns="http://www.w3.org/2000/svg" xmlns:xlink="http://www.w3.org/1999/xlink" version="1.1" id="Ebene_2_00000060717776036106884050000007241393528956859067_" x="0px" y="0px" viewBox="0 0 106.6 106.6" style="enable-background:new 0 0 106.6 106.6;" xml:space="preserve">
<style type="text/css">
	.st0{fill:#655B50;}
</style>
<g id="Ebene_2-2">
	<g>
		<g>
			<path class="st0" d="M49.9,7.9L49,8l-0.2-7L46.3,1l0-0.8L52.1,0l0,0.8l-2.5,0.1L49.9,7.9L49.9,7.9z"></path>
			<path class="st0" d="M60.2,8.7l-0.6-2.6l-3.1-0.4L55.1,8l-0.9-0.1l4.2-7.4l0.8,0.1l2,8.2L60.2,8.7L60.2,8.7z M59.4,5.3l-0.6-2.5     c-0.1-0.3-0.1-0.7-0.2-1.2c-0.1,0.3-0.3,0.7-0.5,1.1l-1.2,2.3L59.4,5.3L59.4,5.3z"></path>
			<path class="st0" d="M66.1,10.3l-0.9-0.3l2.2-6.7L65,2.6l0.2-0.8l5.6,1.8l-0.2,0.8l-2.4-0.8L66.1,10.3L66.1,10.3z"></path>
			<path class="st0" d="M75.5,14.6l0.3-2.7L73,10.4l-2,1.8l-0.8-0.4l6.4-5.5l0.7,0.4L76.3,15L75.5,14.6L75.5,14.6z M75.9,11l0.3-2.6     c0-0.3,0.1-0.7,0.2-1.2c-0.2,0.3-0.5,0.5-0.8,0.8l-2,1.7L75.9,11L75.9,11z"></path>
			<path class="st0" d="M81.2,18.7l2.4-7.1l0,0c-0.3,0.5-0.7,1-1.2,1.6L79.2,17l-0.6-0.5l5-6l1.1,0.9l-2.2,6.6l0,0l6.1-3.4l1,0.9     l-5,6l-0.7-0.6l3.2-3.9c0.4-0.4,0.8-0.9,1.3-1.4l0,0l-6.5,3.6L81.2,18.7L81.2,18.7z"></path>
			<path class="st0" d="M87,24.3l6-5.1l0.6,0.7l-6,5.1L87,24.3z"></path>
			<path class="st0" d="M94.2,35.3l5.2-5.3l0,0c-0.5,0.3-1.1,0.6-1.8,0.9l-4.5,2.1l-0.4-0.8l7.1-3.3l0.6,1.2l-4.9,5l0,0l6.9-0.4     l0.6,1.2L96,39.2l-0.4-0.8l4.6-2.1c0.5-0.2,1.1-0.5,1.8-0.7l0,0L94.5,36L94.2,35.3L94.2,35.3z"></path>
			<path class="st0" d="M98.1,47.6l2.2-1.5L99.6,43L97,42.6l-0.2-0.9l8.4,1.3l0.2,0.8l-7,4.7L98.1,47.6L98.1,47.6z M101,45.7     l2.2-1.4c0.3-0.2,0.6-0.4,1-0.6c-0.4,0-0.7,0-1.2-0.1l-2.6-0.4L101,45.7L101,45.7z"></path>
			<path class="st0" d="M98.6,53.7l0-0.9l7-0.3l-0.1-2.5l0.8,0l0.3,5.9l-0.8,0l-0.1-2.5L98.6,53.7L98.6,53.7z"></path>
		</g>
		<g>
			<path class="st0" d="M65,74.4H37.2V36.6H65V74.4z M38.2,73.4H64V37.6H38.2V73.4z"></path>
			<path class="st0" d="M40.7,74.4c-0.3,0-0.5-0.2-0.5-0.5V37.1c0-0.3,0.2-0.5,0.5-0.5s0.5,0.2,0.5,0.5v36.8     C41.2,74.2,41,74.4,40.7,74.4z"></path>
			<path class="st0" d="M61.5,74.4c-0.3,0-0.5-0.2-0.5-0.5V37.1c0-0.3,0.2-0.5,0.5-0.5s0.5,0.2,0.5,0.5v36.8     C62,74.2,61.8,74.4,61.5,74.4z"></path>
		</g>
		<path class="st0" d="M51.1,106.6C22.9,106.6,0,83.6,0,55.5c0-25,17.8-46.2,42.4-50.3c0.3,0,0.5,0.1,0.6,0.4c0,0.3-0.1,0.5-0.4,0.6    C18.5,10.2,1,31,1,55.5c0,27.6,22.5,50.1,50.1,50.1c25.9,0,47.4-19.4,49.8-45.2c0-0.3,0.3-0.5,0.5-0.5c0.3,0,0.5,0.3,0.4,0.5    C99.4,86.7,77.5,106.6,51.1,106.6L51.1,106.6z"></path>
	</g>
</g>
</svg>
