<?xml version="1.0" encoding="UTF-8"?>
<svg xmlns="http://www.w3.org/2000/svg" xmlns:xlink="http://www.w3.org/1999/xlink" version="1.1" id="Ebene_2_00000111171556169472747870000013501529181298225548_" x="0px" y="0px" viewBox="0 0 106.5 106.5" style="enable-background:new 0 0 106.5 106.5;" xml:space="preserve">
<style type="text/css">
	.st0{fill:#655B50;}
</style>
<g id="Ebene_2-2">
	<g>
		<g>
			<path class="st0" d="M27.9,13.9l-0.8,0.5l-3.5-6.1l-2.2,1.2l-0.4-0.7l5.1-2.9l0.4,0.7l-2.2,1.2L27.9,13.9L27.9,13.9z"></path>
			<path class="st0" d="M37.4,9.8l-1.8-2l-3,1.1l-0.1,2.7l-0.9,0.3L32,3.4l0.7-0.3l5.6,6.4L37.4,9.8L37.4,9.8z M35.1,7.1l-1.7-2     c-0.2-0.2-0.5-0.6-0.7-0.9c0,0.4,0.1,0.7,0.1,1.2l0,2.6L35.1,7.1L35.1,7.1z"></path>
			<path class="st0" d="M45,2.6c0.1,0.8,0,1.4-0.5,1.9s-1.2,0.8-2.2,1l-0.9,0.2l0.5,3L41,8.9l-1.3-7.7l2-0.3     C43.6,0.5,44.7,1.1,45,2.6L45,2.6z M41.3,4.9l0.8-0.1c0.8-0.1,1.4-0.4,1.7-0.7c0.3-0.3,0.4-0.8,0.3-1.3c-0.1-0.5-0.3-0.9-0.7-1.1     s-0.9-0.2-1.6-0.1l-1,0.2L41.3,4.9L41.3,4.9z"></path>
			<path class="st0" d="M54.3,2.4c0,0.8-0.3,1.4-0.8,1.8c-0.5,0.4-1.3,0.6-2.3,0.6l-0.9,0l0,3.1l-0.9,0L49.3,0l2,0     C53.3,0.1,54.3,0.8,54.3,2.4L54.3,2.4z M50.2,4L51,4c0.8,0,1.4-0.1,1.8-0.4c0.4-0.3,0.6-0.7,0.6-1.2c0-0.5-0.2-0.9-0.5-1.2     C52.5,1,52,0.8,51.2,0.8l-1,0L50.2,4L50.2,4z"></path>
			<path class="st0" d="M61.9,9.1l-4.3-0.8l1.4-7.7l4.3,0.8l-0.1,0.8l-3.4-0.6L59.3,4l3.2,0.6l-0.1,0.8l-3.2-0.6l-0.5,2.8L62,8.3     L61.9,9.1L61.9,9.1z"></path>
			<path class="st0" d="M67.5,10.8l-0.9-0.3L69,3.9L66.7,3L67,2.3l5.5,2L72.2,5l-2.3-0.8L67.5,10.8L67.5,10.8z"></path>
			<path class="st0" d="M72.6,13l3.6-7L77,6.5l-3.6,7L72.6,13z"></path>
			<path class="st0" d="M81.8,19l-0.8-0.6l0.5-7.9l0,0c-0.4,0.7-0.8,1.2-1.2,1.8l-2.7,3.6l-0.7-0.5L81.5,9l0.8,0.6l-0.5,7.8l0,0     c0.1-0.1,0.2-0.3,0.5-0.8c0.3-0.4,0.5-0.7,0.6-0.9l2.7-3.6l0.7,0.5L81.8,19L81.8,19z"></path>
			<path class="st0" d="M92,24c-0.9,0.8-1.9,1.3-2.8,1.3c-1,0-1.8-0.4-2.6-1.3c-0.8-0.9-1.1-1.8-1-2.7s0.6-1.8,1.6-2.7     c1-0.8,1.9-1.3,2.8-1.3s1.8,0.4,2.6,1.3c0.7,0.8,1.1,1.7,1,2.7S92.9,23.1,92,24z M87.8,19.3c-0.8,0.7-1.2,1.4-1.4,2.1     c-0.1,0.7,0.1,1.4,0.7,2c0.6,0.6,1.2,1,1.9,0.9c0.7,0,1.5-0.4,2.3-1.1c0.8-0.7,1.2-1.4,1.4-2.1c0.1-0.7-0.1-1.4-0.7-2     c-0.6-0.6-1.2-1-1.9-0.9C89.4,18.2,88.6,18.6,87.8,19.3L87.8,19.3z"></path>
			<path class="st0" d="M94.4,35.8L94,35l6.4-3l-1-2.3l0.7-0.3l2.5,5.3l-0.7,0.3l-1-2.3L94.4,35.8L94.4,35.8z"></path>
			<path class="st0" d="M97.7,45.6l2.2-1.6L99,41l-2.7-0.3l-0.2-0.9l8.4,1l0.2,0.7l-6.8,5L97.7,45.6L97.7,45.6z M100.6,43.5l2.1-1.5     c0.3-0.2,0.6-0.4,1-0.6c-0.4,0-0.7,0-1.2,0l-2.6-0.3L100.6,43.5L100.6,43.5z"></path>
			<path class="st0" d="M98.5,51.7l-0.1-0.9l7-0.6l-0.2-2.5l0.8-0.1l0.5,5.9l-0.8,0.1l-0.2-2.5L98.5,51.7L98.5,51.7z"></path>
			<path class="st0" d="M98.3,61.9l2.6-0.8l0.3-3.1l-2.4-1.2l0.1-0.9l7.6,3.7l-0.1,0.8l-8.1,2.4L98.3,61.9L98.3,61.9z M101.7,61     l2.5-0.7c0.3-0.1,0.7-0.2,1.2-0.3c-0.3-0.1-0.7-0.2-1.1-0.4l-2.3-1.1L101.7,61L101.7,61z"></path>
			<path class="st0" d="M96.7,68.8l7.4-0.5l0,0c-0.5-0.1-1.2-0.3-1.9-0.5l-4.8-1.4l0.2-0.8l7.5,2.3l-0.4,1.3l-6.9,0.5l0,0l5.5,4.3     l-0.4,1.3l-7.5-2.3l0.3-0.9l4.8,1.5c0.6,0.2,1.2,0.4,1.8,0.6l0,0l-5.9-4.6L96.7,68.8L96.7,68.8z"></path>
			<path class="st0" d="M93.8,76.4l7,3.5l-0.4,0.8l-7-3.5L93.8,76.4z"></path>
		</g>
		<path class="st0" d="M51.1,106.5C22.9,106.5,0,83.6,0,55.5c0-16.2,7.4-31,20.3-40.8c0.2-0.2,0.5-0.1,0.7,0.1    c0.2,0.2,0.1,0.5-0.1,0.7C8.3,25,1,39.6,1,55.5c0,27.6,22.5,50.1,50.1,50.1c16.7,0,32.3-8.3,41.6-22.2c0.2-0.2,0.5-0.3,0.7-0.1    c0.2,0.2,0.3,0.5,0.1,0.7C84,98.1,68.1,106.5,51.1,106.5z"></path>
		<g>
			<path class="st0" d="M65,74.3H37.2V36.6H65V74.3L65,74.3z M38.2,73.3H64V37.6H38.2V73.3L38.2,73.3z"></path>
			<path class="st0" d="M40.7,74.3c-0.3,0-0.5-0.2-0.5-0.5V37.1c0-0.3,0.2-0.5,0.5-0.5s0.5,0.2,0.5,0.5v36.8     C41.2,74.1,41,74.3,40.7,74.3L40.7,74.3z"></path>
			<path class="st0" d="M61.5,74.3c-0.3,0-0.5-0.2-0.5-0.5V37.1c0-0.3,0.2-0.5,0.5-0.5s0.5,0.2,0.5,0.5v36.8     C62,74.1,61.8,74.3,61.5,74.3L61.5,74.3z"></path>
		</g>
	</g>
</g>
</svg>
