<?xml version="1.0" encoding="UTF-8"?>
<svg xmlns="http://www.w3.org/2000/svg" id="Ebene_2" data-name="Ebene 2" viewBox="0 0 106.566 106.515">
  <defs>
    <style>
      .cls-1 {
        fill: #655c51;
      }
    </style>
  </defs>
  <g id="Ebene_2-2" data-name="Ebene 2">
    <g>
      <g>
        <path class="cls-1" d="M42.105,8.718l-.896,.18-1.385-6.904-2.438,.489-.159-.795,5.771-1.158,.16,.795-2.438,.489,1.385,6.904Z"></path>
        <path class="cls-1" d="M52.373,7.828l-1.04-2.472-3.146,.079-.903,2.521-.924,.023L49.264,.02l.768-.02,3.287,7.805-.945,.023Zm-1.346-3.286l-.975-2.409c-.126-.305-.257-.68-.394-1.124-.07,.346-.173,.727-.31,1.142l-.862,2.456,2.54-.064Z"></path>
        <path class="cls-1" d="M58.508,8.451l-.903-.133,1.024-6.967-2.46-.361,.118-.803,5.824,.857-.118,.802-2.461-.361-1.024,6.966Z"></path>
        <path class="cls-1" d="M68.438,11.074l-.143-2.678-2.988-.989-1.703,2.066-.877-.29,5.426-6.51,.729,.241,.454,8.456-.897-.297Zm-.155-3.548l-.102-2.597c-.016-.329-.013-.727,.01-1.19-.184,.302-.409,.625-.678,.97l-1.642,2.019,2.411,.799Z"></path>
        <path class="cls-1" d="M74.731,14.168l1.222-7.353-.037-.021c-.235,.501-.546,1.079-.93,1.734l-2.525,4.31-.728-.427,3.971-6.774,1.187,.695-1.13,6.846,.037,.021,5.439-4.32,1.177,.69-3.971,6.774-.788-.462,2.559-4.365c.293-.5,.634-1.031,1.021-1.593l-.037-.021-5.831,4.638-.635-.372Z"></path>
        <path class="cls-1" d="M81.432,18.823l5.072-5.994,.696,.59-5.072,5.994-.696-.59Z"></path>
        <path class="cls-1" d="M90.266,28.482l4.271-6.107-.023-.036c-.429,.351-.958,.739-1.586,1.164l-4.138,2.8-.473-.698,6.504-4.401,.771,1.139-3.971,5.69,.023,.035,6.771-1.553,.765,1.13-6.503,4.4-.512-.756,4.189-2.835c.48-.325,1.017-.658,1.608-.998l-.024-.035-7.261,1.671-.412-.609Z"></path>
        <path class="cls-1" d="M96.135,39.967l1.949-1.843-1.181-2.917-2.678,.04-.347-.856,8.474-.079,.288,.712-6.151,5.82-.354-.877Zm2.604-2.414l1.913-1.76c.241-.225,.545-.479,.913-.764-.348,.057-.74,.094-1.178,.111l-2.602,.057,.953,2.355Z"></path>
        <path class="cls-1" d="M97.683,45.902l-.19-.894,6.886-1.471-.52-2.432,.794-.17,1.229,5.757-.793,.17-.52-2.433-6.887,1.472Z"></path>
        <path class="cls-1" d="M98.608,53.677l-.042-.912,7.034-.323-.114-2.484,.81-.037,.271,5.881-.811,.037-.114-2.484-7.033,.323Z"></path>
        <path class="cls-1" d="M98.03,63.443l.511-4.348,7.799,.916-.511,4.348-.806-.095,.404-3.44-2.512-.295-.381,3.232-.8-.094,.38-3.232-2.87-.338-.404,3.44-.811-.095Z"></path>
      </g>
      <path class="cls-1" d="M51.069,106.515C22.909,106.515,0,83.605,0,55.446,0,33.856,13.665,14.508,34.004,7.298c.255-.093,.545,.044,.639,.305,.092,.26-.044,.546-.305,.639C14.397,15.309,1,34.279,1,55.446c0,27.607,22.461,50.068,50.069,50.068,21.954,0,41.681-14.673,47.972-35.683,.079-.264,.355-.416,.622-.335,.265,.079,.415,.357,.335,.622-6.416,21.429-26.536,36.396-48.929,36.396Z"></path>
      <g>
        <path class="cls-1" d="M64.96,74.337h-27.782V36.555h27.782v37.782Zm-26.782-1h25.782V37.555h-25.782v35.782Z"></path>
        <path class="cls-1" d="M40.731,74.337c-.276,0-.5-.224-.5-.5V37.055c0-.276,.224-.5,.5-.5s.5,.224,.5,.5v36.782c0,.276-.224,.5-.5,.5Z"></path>
        <path class="cls-1" d="M61.514,74.337c-.276,0-.5-.224-.5-.5V37.055c0-.276,.224-.5,.5-.5s.5,.224,.5,.5v36.782c0,.276-.224,.5-.5,.5Z"></path>
      </g>
    </g>
  </g>
</svg>
